<?xml version="1.0" encoding="utf-8" standalone="no"?>
<!DOCTYPE svg PUBLIC "-//W3C//DTD SVG 1.1//EN"
  "http://www.w3.org/Graphics/SVG/1.1/DTD/svg11.dtd">
<svg height="180.494691pt" version="1.1" viewBox="0 0 236.958031 180.494691" width="236.958031pt" xmlns="http://www.w3.org/2000/svg" xmlns:xlink="http://www.w3.org/1999/xlink">
 <metadata>
  <rdf:RDF xmlns:cc="http://creativecommons.org/ns#" xmlns:dc="http://purl.org/dc/elements/1.1/" xmlns:rdf="http://www.w3.org/1999/02/22-rdf-syntax-ns#">
   <cc:Work>
    <dc:type rdf:resource="http://purl.org/dc/dcmitype/StillImage"/>
    <dc:date>2022-07-10T16:18:42.382415</dc:date>
    <dc:format>image/svg+xml</dc:format>
    <dc:creator>
     <cc:Agent>
      <dc:title>Matplotlib v3.4.2, https://matplotlib.org/</dc:title>
     </cc:Agent>
    </dc:creator>
   </cc:Work>
  </rdf:RDF>
 </metadata>
 <defs>
  <style type="text/css">*{stroke-linecap:butt;stroke-linejoin:round;}</style>
 </defs>
 <g id="figure_1">
  <g id="patch_1">
   <path d="M 0 180.494691 
L 236.958031 180.494691 
L 236.958031 -0 
L 0 -0 
z
" style="fill:none;"/>
  </g>
  <g id="axes_1">
   <g id="patch_2">
    <path d="M 65.17 141.438441 
L 229.758031 141.438441 
L 229.758031 7.821276 
L 65.17 7.821276 
z
" style="fill:#ffffff;"/>
   </g>
   <g id="matplotlib.axis_1">
    <g id="xtick_1">
     <g id="line2d_1">
      <defs>
       <path d="M 0 0 
L 0 5 
" id="mdfa49a68ad" style="stroke:#000000;stroke-width:0.8;"/>
      </defs>
      <g>
       <use style="stroke:#000000;stroke-width:0.8;" x="71.500309" xlink:href="#mdfa49a68ad" y="141.438441"/>
      </g>
     </g>
     <g id="text_1">
      <!-- 0.0 -->
      <g transform="translate(63.548746 157.536879)scale(0.1 -0.1)">
       <defs>
        <path d="M 2034 4250 
Q 1547 4250 1301 3770 
Q 1056 3291 1056 2328 
Q 1056 1369 1301 889 
Q 1547 409 2034 409 
Q 2525 409 2770 889 
Q 3016 1369 3016 2328 
Q 3016 3291 2770 3770 
Q 2525 4250 2034 4250 
z
M 2034 4750 
Q 2819 4750 3233 4129 
Q 3647 3509 3647 2328 
Q 3647 1150 3233 529 
Q 2819 -91 2034 -91 
Q 1250 -91 836 529 
Q 422 1150 422 2328 
Q 422 3509 836 4129 
Q 1250 4750 2034 4750 
z
" id="DejaVuSans-30" transform="scale(0.015625)"/>
        <path d="M 684 794 
L 1344 794 
L 1344 0 
L 684 0 
L 684 794 
z
" id="DejaVuSans-2e" transform="scale(0.015625)"/>
       </defs>
       <use xlink:href="#DejaVuSans-30"/>
       <use x="63.623047" xlink:href="#DejaVuSans-2e"/>
       <use x="95.410156" xlink:href="#DejaVuSans-30"/>
      </g>
     </g>
    </g>
    <g id="xtick_2">
     <g id="line2d_2">
      <g>
       <use style="stroke:#000000;stroke-width:0.8;" x="134.803398" xlink:href="#mdfa49a68ad" y="141.438441"/>
      </g>
     </g>
     <g id="text_2">
      <!-- 0.2 -->
      <g transform="translate(126.851835 157.536879)scale(0.1 -0.1)">
       <defs>
        <path d="M 1228 531 
L 3431 531 
L 3431 0 
L 469 0 
L 469 531 
Q 828 903 1448 1529 
Q 2069 2156 2228 2338 
Q 2531 2678 2651 2914 
Q 2772 3150 2772 3378 
Q 2772 3750 2511 3984 
Q 2250 4219 1831 4219 
Q 1534 4219 1204 4116 
Q 875 4013 500 3803 
L 500 4441 
Q 881 4594 1212 4672 
Q 1544 4750 1819 4750 
Q 2544 4750 2975 4387 
Q 3406 4025 3406 3419 
Q 3406 3131 3298 2873 
Q 3191 2616 2906 2266 
Q 2828 2175 2409 1742 
Q 1991 1309 1228 531 
z
" id="DejaVuSans-32" transform="scale(0.015625)"/>
       </defs>
       <use xlink:href="#DejaVuSans-30"/>
       <use x="63.623047" xlink:href="#DejaVuSans-2e"/>
       <use x="95.410156" xlink:href="#DejaVuSans-32"/>
      </g>
     </g>
    </g>
    <g id="xtick_3">
     <g id="line2d_3">
      <g>
       <use style="stroke:#000000;stroke-width:0.8;" x="198.106487" xlink:href="#mdfa49a68ad" y="141.438441"/>
      </g>
     </g>
     <g id="text_3">
      <!-- 0.4 -->
      <g transform="translate(190.154924 157.536879)scale(0.1 -0.1)">
       <defs>
        <path d="M 2419 4116 
L 825 1625 
L 2419 1625 
L 2419 4116 
z
M 2253 4666 
L 3047 4666 
L 3047 1625 
L 3713 1625 
L 3713 1100 
L 3047 1100 
L 3047 0 
L 2419 0 
L 2419 1100 
L 313 1100 
L 313 1709 
L 2253 4666 
z
" id="DejaVuSans-34" transform="scale(0.015625)"/>
       </defs>
       <use xlink:href="#DejaVuSans-30"/>
       <use x="63.623047" xlink:href="#DejaVuSans-2e"/>
       <use x="95.410156" xlink:href="#DejaVuSans-34"/>
      </g>
     </g>
    </g>
    <g id="text_4">
     <!-- Rotational Energy [eV] -->
     <g transform="translate(91.017922 171.215004)scale(0.1 -0.1)">
      <defs>
       <path d="M 2841 2188 
Q 3044 2119 3236 1894 
Q 3428 1669 3622 1275 
L 4263 0 
L 3584 0 
L 2988 1197 
Q 2756 1666 2539 1819 
Q 2322 1972 1947 1972 
L 1259 1972 
L 1259 0 
L 628 0 
L 628 4666 
L 2053 4666 
Q 2853 4666 3247 4331 
Q 3641 3997 3641 3322 
Q 3641 2881 3436 2590 
Q 3231 2300 2841 2188 
z
M 1259 4147 
L 1259 2491 
L 2053 2491 
Q 2509 2491 2742 2702 
Q 2975 2913 2975 3322 
Q 2975 3731 2742 3939 
Q 2509 4147 2053 4147 
L 1259 4147 
z
" id="DejaVuSans-52" transform="scale(0.015625)"/>
       <path d="M 1959 3097 
Q 1497 3097 1228 2736 
Q 959 2375 959 1747 
Q 959 1119 1226 758 
Q 1494 397 1959 397 
Q 2419 397 2687 759 
Q 2956 1122 2956 1747 
Q 2956 2369 2687 2733 
Q 2419 3097 1959 3097 
z
M 1959 3584 
Q 2709 3584 3137 3096 
Q 3566 2609 3566 1747 
Q 3566 888 3137 398 
Q 2709 -91 1959 -91 
Q 1206 -91 779 398 
Q 353 888 353 1747 
Q 353 2609 779 3096 
Q 1206 3584 1959 3584 
z
" id="DejaVuSans-6f" transform="scale(0.015625)"/>
       <path d="M 1172 4494 
L 1172 3500 
L 2356 3500 
L 2356 3053 
L 1172 3053 
L 1172 1153 
Q 1172 725 1289 603 
Q 1406 481 1766 481 
L 2356 481 
L 2356 0 
L 1766 0 
Q 1100 0 847 248 
Q 594 497 594 1153 
L 594 3053 
L 172 3053 
L 172 3500 
L 594 3500 
L 594 4494 
L 1172 4494 
z
" id="DejaVuSans-74" transform="scale(0.015625)"/>
       <path d="M 2194 1759 
Q 1497 1759 1228 1600 
Q 959 1441 959 1056 
Q 959 750 1161 570 
Q 1363 391 1709 391 
Q 2188 391 2477 730 
Q 2766 1069 2766 1631 
L 2766 1759 
L 2194 1759 
z
M 3341 1997 
L 3341 0 
L 2766 0 
L 2766 531 
Q 2569 213 2275 61 
Q 1981 -91 1556 -91 
Q 1019 -91 701 211 
Q 384 513 384 1019 
Q 384 1609 779 1909 
Q 1175 2209 1959 2209 
L 2766 2209 
L 2766 2266 
Q 2766 2663 2505 2880 
Q 2244 3097 1772 3097 
Q 1472 3097 1187 3025 
Q 903 2953 641 2809 
L 641 3341 
Q 956 3463 1253 3523 
Q 1550 3584 1831 3584 
Q 2591 3584 2966 3190 
Q 3341 2797 3341 1997 
z
" id="DejaVuSans-61" transform="scale(0.015625)"/>
       <path d="M 603 3500 
L 1178 3500 
L 1178 0 
L 603 0 
L 603 3500 
z
M 603 4863 
L 1178 4863 
L 1178 4134 
L 603 4134 
L 603 4863 
z
" id="DejaVuSans-69" transform="scale(0.015625)"/>
       <path d="M 3513 2113 
L 3513 0 
L 2938 0 
L 2938 2094 
Q 2938 2591 2744 2837 
Q 2550 3084 2163 3084 
Q 1697 3084 1428 2787 
Q 1159 2491 1159 1978 
L 1159 0 
L 581 0 
L 581 3500 
L 1159 3500 
L 1159 2956 
Q 1366 3272 1645 3428 
Q 1925 3584 2291 3584 
Q 2894 3584 3203 3211 
Q 3513 2838 3513 2113 
z
" id="DejaVuSans-6e" transform="scale(0.015625)"/>
       <path d="M 603 4863 
L 1178 4863 
L 1178 0 
L 603 0 
L 603 4863 
z
" id="DejaVuSans-6c" transform="scale(0.015625)"/>
       <path id="DejaVuSans-20" transform="scale(0.015625)"/>
       <path d="M 628 4666 
L 3578 4666 
L 3578 4134 
L 1259 4134 
L 1259 2753 
L 3481 2753 
L 3481 2222 
L 1259 2222 
L 1259 531 
L 3634 531 
L 3634 0 
L 628 0 
L 628 4666 
z
" id="DejaVuSans-45" transform="scale(0.015625)"/>
       <path d="M 3597 1894 
L 3597 1613 
L 953 1613 
Q 991 1019 1311 708 
Q 1631 397 2203 397 
Q 2534 397 2845 478 
Q 3156 559 3463 722 
L 3463 178 
Q 3153 47 2828 -22 
Q 2503 -91 2169 -91 
Q 1331 -91 842 396 
Q 353 884 353 1716 
Q 353 2575 817 3079 
Q 1281 3584 2069 3584 
Q 2775 3584 3186 3129 
Q 3597 2675 3597 1894 
z
M 3022 2063 
Q 3016 2534 2758 2815 
Q 2500 3097 2075 3097 
Q 1594 3097 1305 2825 
Q 1016 2553 972 2059 
L 3022 2063 
z
" id="DejaVuSans-65" transform="scale(0.015625)"/>
       <path d="M 2631 2963 
Q 2534 3019 2420 3045 
Q 2306 3072 2169 3072 
Q 1681 3072 1420 2755 
Q 1159 2438 1159 1844 
L 1159 0 
L 581 0 
L 581 3500 
L 1159 3500 
L 1159 2956 
Q 1341 3275 1631 3429 
Q 1922 3584 2338 3584 
Q 2397 3584 2469 3576 
Q 2541 3569 2628 3553 
L 2631 2963 
z
" id="DejaVuSans-72" transform="scale(0.015625)"/>
       <path d="M 2906 1791 
Q 2906 2416 2648 2759 
Q 2391 3103 1925 3103 
Q 1463 3103 1205 2759 
Q 947 2416 947 1791 
Q 947 1169 1205 825 
Q 1463 481 1925 481 
Q 2391 481 2648 825 
Q 2906 1169 2906 1791 
z
M 3481 434 
Q 3481 -459 3084 -895 
Q 2688 -1331 1869 -1331 
Q 1566 -1331 1297 -1286 
Q 1028 -1241 775 -1147 
L 775 -588 
Q 1028 -725 1275 -790 
Q 1522 -856 1778 -856 
Q 2344 -856 2625 -561 
Q 2906 -266 2906 331 
L 2906 616 
Q 2728 306 2450 153 
Q 2172 0 1784 0 
Q 1141 0 747 490 
Q 353 981 353 1791 
Q 353 2603 747 3093 
Q 1141 3584 1784 3584 
Q 2172 3584 2450 3431 
Q 2728 3278 2906 2969 
L 2906 3500 
L 3481 3500 
L 3481 434 
z
" id="DejaVuSans-67" transform="scale(0.015625)"/>
       <path d="M 2059 -325 
Q 1816 -950 1584 -1140 
Q 1353 -1331 966 -1331 
L 506 -1331 
L 506 -850 
L 844 -850 
Q 1081 -850 1212 -737 
Q 1344 -625 1503 -206 
L 1606 56 
L 191 3500 
L 800 3500 
L 1894 763 
L 2988 3500 
L 3597 3500 
L 2059 -325 
z
" id="DejaVuSans-79" transform="scale(0.015625)"/>
       <path d="M 550 4863 
L 1875 4863 
L 1875 4416 
L 1125 4416 
L 1125 -397 
L 1875 -397 
L 1875 -844 
L 550 -844 
L 550 4863 
z
" id="DejaVuSans-5b" transform="scale(0.015625)"/>
       <path d="M 1831 0 
L 50 4666 
L 709 4666 
L 2188 738 
L 3669 4666 
L 4325 4666 
L 2547 0 
L 1831 0 
z
" id="DejaVuSans-56" transform="scale(0.015625)"/>
       <path d="M 1947 4863 
L 1947 -844 
L 622 -844 
L 622 -397 
L 1369 -397 
L 1369 4416 
L 622 4416 
L 622 4863 
L 1947 4863 
z
" id="DejaVuSans-5d" transform="scale(0.015625)"/>
      </defs>
      <use xlink:href="#DejaVuSans-52"/>
      <use x="64.982422" xlink:href="#DejaVuSans-6f"/>
      <use x="126.164062" xlink:href="#DejaVuSans-74"/>
      <use x="165.373047" xlink:href="#DejaVuSans-61"/>
      <use x="226.652344" xlink:href="#DejaVuSans-74"/>
      <use x="265.861328" xlink:href="#DejaVuSans-69"/>
      <use x="293.644531" xlink:href="#DejaVuSans-6f"/>
      <use x="354.826172" xlink:href="#DejaVuSans-6e"/>
      <use x="418.205078" xlink:href="#DejaVuSans-61"/>
      <use x="479.484375" xlink:href="#DejaVuSans-6c"/>
      <use x="507.267578" xlink:href="#DejaVuSans-20"/>
      <use x="539.054688" xlink:href="#DejaVuSans-45"/>
      <use x="602.238281" xlink:href="#DejaVuSans-6e"/>
      <use x="665.617188" xlink:href="#DejaVuSans-65"/>
      <use x="727.140625" xlink:href="#DejaVuSans-72"/>
      <use x="766.503906" xlink:href="#DejaVuSans-67"/>
      <use x="829.980469" xlink:href="#DejaVuSans-79"/>
      <use x="889.160156" xlink:href="#DejaVuSans-20"/>
      <use x="920.947266" xlink:href="#DejaVuSans-5b"/>
      <use x="959.960938" xlink:href="#DejaVuSans-65"/>
      <use x="1021.484375" xlink:href="#DejaVuSans-56"/>
      <use x="1089.892578" xlink:href="#DejaVuSans-5d"/>
     </g>
    </g>
   </g>
   <g id="matplotlib.axis_2">
    <g id="ytick_1">
     <g id="line2d_4">
      <defs>
       <path d="M 0 0 
L -5 0 
" id="m9294655f5d" style="stroke:#000000;stroke-width:0.8;"/>
      </defs>
      <g>
       <use style="stroke:#000000;stroke-width:0.8;" x="65.17" xlink:href="#m9294655f5d" y="87.77469"/>
      </g>
     </g>
     <g id="text_5">
      <!-- $\mathdefault{10^{-1}}$ -->
      <g transform="translate(33.17 91.573909)scale(0.1 -0.1)">
       <defs>
        <path d="M 794 531 
L 1825 531 
L 1825 4091 
L 703 3866 
L 703 4441 
L 1819 4666 
L 2450 4666 
L 2450 531 
L 3481 531 
L 3481 0 
L 794 0 
L 794 531 
z
" id="DejaVuSans-31" transform="scale(0.015625)"/>
        <path d="M 678 2272 
L 4684 2272 
L 4684 1741 
L 678 1741 
L 678 2272 
z
" id="DejaVuSans-2212" transform="scale(0.015625)"/>
       </defs>
       <use transform="translate(0 0.684375)" xlink:href="#DejaVuSans-31"/>
       <use transform="translate(63.623047 0.684375)" xlink:href="#DejaVuSans-30"/>
       <use transform="translate(128.203125 38.965625)scale(0.7)" xlink:href="#DejaVuSans-2212"/>
       <use transform="translate(186.855469 38.965625)scale(0.7)" xlink:href="#DejaVuSans-31"/>
      </g>
     </g>
    </g>
    <g id="ytick_2">
     <g id="line2d_5">
      <g>
       <use style="stroke:#000000;stroke-width:0.8;" x="65.17" xlink:href="#m9294655f5d" y="10.999219"/>
      </g>
     </g>
     <g id="text_6">
      <!-- $\mathdefault{10^{0}}$ -->
      <g transform="translate(39.07 14.798437)scale(0.1 -0.1)">
       <use transform="translate(0 0.765625)" xlink:href="#DejaVuSans-31"/>
       <use transform="translate(63.623047 0.765625)" xlink:href="#DejaVuSans-30"/>
       <use transform="translate(128.203125 39.046875)scale(0.7)" xlink:href="#DejaVuSans-30"/>
      </g>
     </g>
    </g>
    <g id="ytick_3">
     <g id="line2d_6">
      <defs>
       <path d="M 0 0 
L -2 0 
" id="mc813eecae8" style="stroke:#000000;stroke-width:0.6;"/>
      </defs>
      <g>
       <use style="stroke:#000000;stroke-width:0.6;" x="65.17" xlink:href="#mc813eecae8" y="141.438441"/>
      </g>
     </g>
    </g>
    <g id="ytick_4">
     <g id="line2d_7">
      <g>
       <use style="stroke:#000000;stroke-width:0.6;" x="65.17" xlink:href="#mc813eecae8" y="127.918952"/>
      </g>
     </g>
    </g>
    <g id="ytick_5">
     <g id="line2d_8">
      <g>
       <use style="stroke:#000000;stroke-width:0.6;" x="65.17" xlink:href="#mc813eecae8" y="118.326721"/>
      </g>
     </g>
    </g>
    <g id="ytick_6">
     <g id="line2d_9">
      <g>
       <use style="stroke:#000000;stroke-width:0.6;" x="65.17" xlink:href="#mc813eecae8" y="110.88641"/>
      </g>
     </g>
    </g>
    <g id="ytick_7">
     <g id="line2d_10">
      <g>
       <use style="stroke:#000000;stroke-width:0.6;" x="65.17" xlink:href="#mc813eecae8" y="104.807232"/>
      </g>
     </g>
    </g>
    <g id="ytick_8">
     <g id="line2d_11">
      <g>
       <use style="stroke:#000000;stroke-width:0.6;" x="65.17" xlink:href="#mc813eecae8" y="99.667361"/>
      </g>
     </g>
    </g>
    <g id="ytick_9">
     <g id="line2d_12">
      <g>
       <use style="stroke:#000000;stroke-width:0.6;" x="65.17" xlink:href="#mc813eecae8" y="95.215002"/>
      </g>
     </g>
    </g>
    <g id="ytick_10">
     <g id="line2d_13">
      <g>
       <use style="stroke:#000000;stroke-width:0.6;" x="65.17" xlink:href="#mc813eecae8" y="91.287743"/>
      </g>
     </g>
    </g>
    <g id="ytick_11">
     <g id="line2d_14">
      <g>
       <use style="stroke:#000000;stroke-width:0.6;" x="65.17" xlink:href="#mc813eecae8" y="64.66297"/>
      </g>
     </g>
    </g>
    <g id="ytick_12">
     <g id="line2d_15">
      <g>
       <use style="stroke:#000000;stroke-width:0.6;" x="65.17" xlink:href="#mc813eecae8" y="51.143481"/>
      </g>
     </g>
    </g>
    <g id="ytick_13">
     <g id="line2d_16">
      <g>
       <use style="stroke:#000000;stroke-width:0.6;" x="65.17" xlink:href="#mc813eecae8" y="41.55125"/>
      </g>
     </g>
    </g>
    <g id="ytick_14">
     <g id="line2d_17">
      <g>
       <use style="stroke:#000000;stroke-width:0.6;" x="65.17" xlink:href="#mc813eecae8" y="34.110938"/>
      </g>
     </g>
    </g>
    <g id="ytick_15">
     <g id="line2d_18">
      <g>
       <use style="stroke:#000000;stroke-width:0.6;" x="65.17" xlink:href="#mc813eecae8" y="28.031761"/>
      </g>
     </g>
    </g>
    <g id="ytick_16">
     <g id="line2d_19">
      <g>
       <use style="stroke:#000000;stroke-width:0.6;" x="65.17" xlink:href="#mc813eecae8" y="22.89189"/>
      </g>
     </g>
    </g>
    <g id="ytick_17">
     <g id="line2d_20">
      <g>
       <use style="stroke:#000000;stroke-width:0.6;" x="65.17" xlink:href="#mc813eecae8" y="18.439531"/>
      </g>
     </g>
    </g>
    <g id="ytick_18">
     <g id="line2d_21">
      <g>
       <use style="stroke:#000000;stroke-width:0.6;" x="65.17" xlink:href="#mc813eecae8" y="14.512272"/>
      </g>
     </g>
    </g>
    <g id="text_7">
     <!-- $\mathdefault{\mathrm{\frac{ n_{dv'N'}}{(2N'+1)g^{N'}_{as}}}}$ [a.u.] -->
     <g transform="translate(19.68 120.909859)rotate(-90)scale(0.13 -0.13)">
      <defs>
       <path d="M 2906 2969 
L 2906 4863 
L 3481 4863 
L 3481 0 
L 2906 0 
L 2906 525 
Q 2725 213 2448 61 
Q 2172 -91 1784 -91 
Q 1150 -91 751 415 
Q 353 922 353 1747 
Q 353 2572 751 3078 
Q 1150 3584 1784 3584 
Q 2172 3584 2448 3432 
Q 2725 3281 2906 2969 
z
M 947 1747 
Q 947 1113 1208 752 
Q 1469 391 1925 391 
Q 2381 391 2643 752 
Q 2906 1113 2906 1747 
Q 2906 2381 2643 2742 
Q 2381 3103 1925 3103 
Q 1469 3103 1208 2742 
Q 947 2381 947 1747 
z
" id="DejaVuSans-64" transform="scale(0.015625)"/>
       <path d="M 191 3500 
L 800 3500 
L 1894 563 
L 2988 3500 
L 3597 3500 
L 2284 0 
L 1503 0 
L 191 3500 
z
" id="DejaVuSans-76" transform="scale(0.015625)"/>
       <path d="M 225 347 
Q 184 359 184 409 
L 966 3316 
Q 1003 3434 1093 3506 
Q 1184 3578 1300 3578 
Q 1450 3578 1564 3479 
Q 1678 3381 1678 3231 
Q 1678 3166 1644 3084 
L 488 319 
Q 466 275 428 275 
Q 394 275 320 306 
Q 247 338 225 347 
z
" id="Cmsy10-30" transform="scale(0.015625)"/>
       <path d="M 628 4666 
L 1478 4666 
L 3547 763 
L 3547 4666 
L 4159 4666 
L 4159 0 
L 3309 0 
L 1241 3903 
L 1241 0 
L 628 0 
L 628 4666 
z
" id="DejaVuSans-4e" transform="scale(0.015625)"/>
       <path d="M 1984 4856 
Q 1566 4138 1362 3434 
Q 1159 2731 1159 2009 
Q 1159 1288 1364 580 
Q 1569 -128 1984 -844 
L 1484 -844 
Q 1016 -109 783 600 
Q 550 1309 550 2009 
Q 550 2706 781 3412 
Q 1013 4119 1484 4856 
L 1984 4856 
z
" id="DejaVuSans-28" transform="scale(0.015625)"/>
       <path d="M 2944 4013 
L 2944 2272 
L 4684 2272 
L 4684 1741 
L 2944 1741 
L 2944 0 
L 2419 0 
L 2419 1741 
L 678 1741 
L 678 2272 
L 2419 2272 
L 2419 4013 
L 2944 4013 
z
" id="DejaVuSans-2b" transform="scale(0.015625)"/>
       <path d="M 513 4856 
L 1013 4856 
Q 1481 4119 1714 3412 
Q 1947 2706 1947 2009 
Q 1947 1309 1714 600 
Q 1481 -109 1013 -844 
L 513 -844 
Q 928 -128 1133 580 
Q 1338 1288 1338 2009 
Q 1338 2731 1133 3434 
Q 928 4138 513 4856 
z
" id="DejaVuSans-29" transform="scale(0.015625)"/>
       <path d="M 2834 3397 
L 2834 2853 
Q 2591 2978 2328 3040 
Q 2066 3103 1784 3103 
Q 1356 3103 1142 2972 
Q 928 2841 928 2578 
Q 928 2378 1081 2264 
Q 1234 2150 1697 2047 
L 1894 2003 
Q 2506 1872 2764 1633 
Q 3022 1394 3022 966 
Q 3022 478 2636 193 
Q 2250 -91 1575 -91 
Q 1294 -91 989 -36 
Q 684 19 347 128 
L 347 722 
Q 666 556 975 473 
Q 1284 391 1588 391 
Q 1994 391 2212 530 
Q 2431 669 2431 922 
Q 2431 1156 2273 1281 
Q 2116 1406 1581 1522 
L 1381 1569 
Q 847 1681 609 1914 
Q 372 2147 372 2553 
Q 372 3047 722 3315 
Q 1072 3584 1716 3584 
Q 2034 3584 2315 3537 
Q 2597 3491 2834 3397 
z
" id="DejaVuSans-73" transform="scale(0.015625)"/>
       <path d="M 544 1381 
L 544 3500 
L 1119 3500 
L 1119 1403 
Q 1119 906 1312 657 
Q 1506 409 1894 409 
Q 2359 409 2629 706 
Q 2900 1003 2900 1516 
L 2900 3500 
L 3475 3500 
L 3475 0 
L 2900 0 
L 2900 538 
Q 2691 219 2414 64 
Q 2138 -91 1772 -91 
Q 1169 -91 856 284 
Q 544 659 544 1381 
z
M 1991 3584 
L 1991 3584 
z
" id="DejaVuSans-75" transform="scale(0.015625)"/>
      </defs>
      <use transform="translate(117 56.8)scale(0.7)" xlink:href="#DejaVuSans-6e"/>
      <use transform="translate(162.035156 45.315625)scale(0.49)" xlink:href="#DejaVuSans-64"/>
      <use transform="translate(193.138672 45.315625)scale(0.49)" xlink:href="#DejaVuSans-76"/>
      <use transform="translate(222.605664 64.073438)scale(0.343)" xlink:href="#Cmsy10-30"/>
      <use transform="translate(233.374658 45.315625)scale(0.49)" xlink:href="#DejaVuSans-4e"/>
      <use transform="translate(270.4979 64.073438)scale(0.343)" xlink:href="#Cmsy10-30"/>
      <use transform="translate(0 -51.361625)scale(0.7)" xlink:href="#DejaVuSans-28"/>
      <use transform="translate(27.30957 -51.361625)scale(0.7)" xlink:href="#DejaVuSans-32"/>
      <use transform="translate(71.845703 -51.361625)scale(0.7)" xlink:href="#DejaVuSans-4e"/>
      <use transform="translate(124.878906 -24.56475)scale(0.49)" xlink:href="#Cmsy10-30"/>
      <use transform="translate(153.900879 -51.361625)scale(0.7)" xlink:href="#DejaVuSans-2b"/>
      <use transform="translate(226.190918 -51.361625)scale(0.7)" xlink:href="#DejaVuSans-31"/>
      <use transform="translate(270.727051 -51.361625)scale(0.7)" xlink:href="#DejaVuSans-29"/>
      <use transform="translate(298.036621 -51.361625)scale(0.7)" xlink:href="#DejaVuSans-67"/>
      <use transform="translate(343.140137 -24.56475)scale(0.49)" xlink:href="#DejaVuSans-4e"/>
      <use transform="translate(380.263379 -5.806937)scale(0.343)" xlink:href="#Cmsy10-30"/>
      <use transform="translate(343.140137 -70.50225)scale(0.49)" xlink:href="#DejaVuSans-61"/>
      <use transform="translate(373.166992 -70.50225)scale(0.49)" xlink:href="#DejaVuSans-73"/>
      <use transform="translate(413.109863 0.822031)" xlink:href="#DejaVuSans-20"/>
      <use transform="translate(444.896973 0.822031)" xlink:href="#DejaVuSans-5b"/>
      <use transform="translate(483.910645 0.822031)" xlink:href="#DejaVuSans-61"/>
      <use transform="translate(545.189941 0.822031)" xlink:href="#DejaVuSans-2e"/>
      <use transform="translate(576.977051 0.822031)" xlink:href="#DejaVuSans-75"/>
      <use transform="translate(640.355957 0.822031)" xlink:href="#DejaVuSans-2e"/>
      <use transform="translate(672.143066 0.822031)" xlink:href="#DejaVuSans-5d"/>
      <path d="M 0 19.618906 
L 0 25.868906 
L 400.609863 25.868906 
L 400.609863 19.618906 
L 0 19.618906 
z
"/>
     </g>
    </g>
   </g>
   <g id="LineCollection_1">
    <path clip-path="url(#pdc58710559)" d="M 73.81982 12.127534 
L 73.81982 9.907838 
" style="fill:none;stroke:#1f77b4;stroke-width:0.5;"/>
    <path clip-path="url(#pdc58710559)" d="M 78.440854 19.567432 
L 78.440854 16.768831 
" style="fill:none;stroke:#1f77b4;stroke-width:0.5;"/>
    <path clip-path="url(#pdc58710559)" d="M 94.42559 31.762794 
L 94.42559 25.451298 
" style="fill:none;stroke:#1f77b4;stroke-width:0.5;"/>
    <path clip-path="url(#pdc58710559)" d="M 105.663369 38.651868 
L 105.663369 36.298401 
" style="fill:none;stroke:#1f77b4;stroke-width:0.5;"/>
    <path clip-path="url(#pdc58710559)" d="M 134.180026 56.882198 
L 134.180026 54.225464 
" style="fill:none;stroke:#1f77b4;stroke-width:0.5;"/>
    <path clip-path="url(#pdc58710559)" d="M 169.941982 80.815881 
L 169.941982 76.605683 
" style="fill:none;stroke:#1f77b4;stroke-width:0.5;"/>
    <path clip-path="url(#pdc58710559)" d="M 211.725988 102.364949 
L 211.725988 100.730123 
" style="fill:none;stroke:#1f77b4;stroke-width:0.5;"/>
   </g>
   <g id="LineCollection_2">
    <path clip-path="url(#pdc58710559)" d="M 73.69856 19.147861 
L 73.69856 17.600931 
" style="fill:none;stroke:#ff7f0e;stroke-width:0.5;"/>
    <path clip-path="url(#pdc58710559)" d="M 84.599871 24.892942 
L 84.599871 21.035532 
" style="fill:none;stroke:#ff7f0e;stroke-width:0.5;"/>
    <path clip-path="url(#pdc58710559)" d="M 130.784735 72.311957 
L 130.784735 70.82243 
" style="fill:none;stroke:#ff7f0e;stroke-width:0.5;"/>
    <path clip-path="url(#pdc58710559)" d="M 164.485263 92.909333 
L 164.485263 90.093085 
" style="fill:none;stroke:#ff7f0e;stroke-width:0.5;"/>
   </g>
   <g id="LineCollection_3">
    <path clip-path="url(#pdc58710559)" d="M 73.5773 15.606735 
L 73.5773 14.255124 
" style="fill:none;stroke:#2ca02c;stroke-width:0.5;"/>
    <path clip-path="url(#pdc58710559)" d="M 83.872308 38.669836 
L 83.872308 36.818362 
" style="fill:none;stroke:#2ca02c;stroke-width:0.5;"/>
    <path clip-path="url(#pdc58710559)" d="M 92.000382 50.414798 
L 92.000382 46.801276 
" style="fill:none;stroke:#2ca02c;stroke-width:0.5;"/>
    <path clip-path="url(#pdc58710559)" d="M 127.389444 81.489742 
L 127.389444 78.993405 
" style="fill:none;stroke:#2ca02c;stroke-width:0.5;"/>
   </g>
   <g id="line2d_22">
    <defs>
     <path d="M 4 0 
L -4 -0 
" id="m28388e8508" style="stroke:#1f77b4;stroke-width:0.5;"/>
    </defs>
    <g clip-path="url(#pdc58710559)">
     <use style="fill:#1f77b4;stroke:#1f77b4;stroke-width:0.5;" x="73.81982" xlink:href="#m28388e8508" y="12.127534"/>
     <use style="fill:#1f77b4;stroke:#1f77b4;stroke-width:0.5;" x="78.440854" xlink:href="#m28388e8508" y="19.567432"/>
     <use style="fill:#1f77b4;stroke:#1f77b4;stroke-width:0.5;" x="94.42559" xlink:href="#m28388e8508" y="31.762794"/>
     <use style="fill:#1f77b4;stroke:#1f77b4;stroke-width:0.5;" x="105.663369" xlink:href="#m28388e8508" y="38.651868"/>
     <use style="fill:#1f77b4;stroke:#1f77b4;stroke-width:0.5;" x="134.180026" xlink:href="#m28388e8508" y="56.882198"/>
     <use style="fill:#1f77b4;stroke:#1f77b4;stroke-width:0.5;" x="169.941982" xlink:href="#m28388e8508" y="80.815881"/>
     <use style="fill:#1f77b4;stroke:#1f77b4;stroke-width:0.5;" x="211.725988" xlink:href="#m28388e8508" y="102.364949"/>
    </g>
   </g>
   <g id="line2d_23">
    <g clip-path="url(#pdc58710559)">
     <use style="fill:#1f77b4;stroke:#1f77b4;stroke-width:0.5;" x="73.81982" xlink:href="#m28388e8508" y="9.907838"/>
     <use style="fill:#1f77b4;stroke:#1f77b4;stroke-width:0.5;" x="78.440854" xlink:href="#m28388e8508" y="16.768831"/>
     <use style="fill:#1f77b4;stroke:#1f77b4;stroke-width:0.5;" x="94.42559" xlink:href="#m28388e8508" y="25.451298"/>
     <use style="fill:#1f77b4;stroke:#1f77b4;stroke-width:0.5;" x="105.663369" xlink:href="#m28388e8508" y="36.298401"/>
     <use style="fill:#1f77b4;stroke:#1f77b4;stroke-width:0.5;" x="134.180026" xlink:href="#m28388e8508" y="54.225464"/>
     <use style="fill:#1f77b4;stroke:#1f77b4;stroke-width:0.5;" x="169.941982" xlink:href="#m28388e8508" y="76.605683"/>
     <use style="fill:#1f77b4;stroke:#1f77b4;stroke-width:0.5;" x="211.725988" xlink:href="#m28388e8508" y="100.730123"/>
    </g>
   </g>
   <g id="line2d_24">
    <path clip-path="url(#pdc58710559)" d="M 73.81982 11.526248 
L 78.440854 16.726332 
L 85.327433 23.307682 
L 94.42559 30.558459 
L 105.663369 38.26542 
L 118.950826 46.582732 
L 134.180026 55.726027 
L 151.225049 65.807077 
L 169.941982 76.827797 
L 190.168924 88.724256 
L 211.725988 101.3999 
" style="fill:none;stroke:#1f77b4;stroke-dasharray:1.5,2.475;stroke-dashoffset:0;stroke-width:1.5;"/>
   </g>
   <g id="line2d_25">
    <defs>
     <path d="M 4 0 
L -4 -0 
" id="mac1d0d4182" style="stroke:#ff7f0e;stroke-width:0.5;"/>
    </defs>
    <g clip-path="url(#pdc58710559)">
     <use style="fill:#ff7f0e;stroke:#ff7f0e;stroke-width:0.5;" x="73.69856" xlink:href="#mac1d0d4182" y="19.147861"/>
     <use style="fill:#ff7f0e;stroke:#ff7f0e;stroke-width:0.5;" x="84.599871" xlink:href="#mac1d0d4182" y="24.892942"/>
     <use style="fill:#ff7f0e;stroke:#ff7f0e;stroke-width:0.5;" x="130.784735" xlink:href="#mac1d0d4182" y="72.311957"/>
     <use style="fill:#ff7f0e;stroke:#ff7f0e;stroke-width:0.5;" x="164.485263" xlink:href="#mac1d0d4182" y="92.909333"/>
    </g>
   </g>
   <g id="line2d_26">
    <g clip-path="url(#pdc58710559)">
     <use style="fill:#ff7f0e;stroke:#ff7f0e;stroke-width:0.5;" x="73.69856" xlink:href="#mac1d0d4182" y="17.600931"/>
     <use style="fill:#ff7f0e;stroke:#ff7f0e;stroke-width:0.5;" x="84.599871" xlink:href="#mac1d0d4182" y="21.035532"/>
     <use style="fill:#ff7f0e;stroke:#ff7f0e;stroke-width:0.5;" x="130.784735" xlink:href="#mac1d0d4182" y="70.82243"/>
     <use style="fill:#ff7f0e;stroke:#ff7f0e;stroke-width:0.5;" x="164.485263" xlink:href="#mac1d0d4182" y="90.093085"/>
    </g>
   </g>
   <g id="line2d_27">
    <path clip-path="url(#pdc58710559)" d="M 73.69856 14.684926 
L 78.077073 22.966063 
L 84.599871 33.343629 
L 93.212986 44.023351 
L 103.844463 53.985762 
L 116.404357 63.361309 
L 130.784735 72.805473 
L 146.859674 82.828456 
L 164.485263 93.639421 
L 183.499602 105.251901 
L 203.722801 117.590481 
" style="fill:none;stroke:#ff7f0e;stroke-dasharray:1.5,2.475;stroke-dashoffset:0;stroke-width:1.5;"/>
   </g>
   <g id="line2d_28">
    <defs>
     <path d="M 4 0 
L -4 -0 
" id="maa334e90e1" style="stroke:#2ca02c;stroke-width:0.5;"/>
    </defs>
    <g clip-path="url(#pdc58710559)">
     <use style="fill:#2ca02c;stroke:#2ca02c;stroke-width:0.5;" x="73.5773" xlink:href="#maa334e90e1" y="15.606735"/>
     <use style="fill:#2ca02c;stroke:#2ca02c;stroke-width:0.5;" x="83.872308" xlink:href="#maa334e90e1" y="38.669836"/>
     <use style="fill:#2ca02c;stroke:#2ca02c;stroke-width:0.5;" x="92.000382" xlink:href="#maa334e90e1" y="50.414798"/>
     <use style="fill:#2ca02c;stroke:#2ca02c;stroke-width:0.5;" x="127.389444" xlink:href="#maa334e90e1" y="81.489742"/>
    </g>
   </g>
   <g id="line2d_29">
    <g clip-path="url(#pdc58710559)">
     <use style="fill:#2ca02c;stroke:#2ca02c;stroke-width:0.5;" x="73.5773" xlink:href="#maa334e90e1" y="14.255124"/>
     <use style="fill:#2ca02c;stroke:#2ca02c;stroke-width:0.5;" x="83.872308" xlink:href="#maa334e90e1" y="36.818362"/>
     <use style="fill:#2ca02c;stroke:#2ca02c;stroke-width:0.5;" x="92.000382" xlink:href="#maa334e90e1" y="46.801276"/>
     <use style="fill:#2ca02c;stroke:#2ca02c;stroke-width:0.5;" x="127.389444" xlink:href="#maa334e90e1" y="78.993405"/>
    </g>
   </g>
   <g id="line2d_30">
    <path clip-path="url(#pdc58710559)" d="M 73.5773 17.628343 
L 77.713292 25.774855 
L 83.872308 36.016093 
L 92.000382 46.597622 
L 102.025557 56.486344 
L 113.857888 65.763497 
L 127.389444 75.053369 
L 142.494299 84.863178 
L 159.028545 95.40827 
L 176.830279 106.705671 
L 195.719614 118.679204 
" style="fill:none;stroke:#2ca02c;stroke-dasharray:1.5,2.475;stroke-dashoffset:0;stroke-width:1.5;"/>
   </g>
   <g id="line2d_31"/>
   <g id="line2d_32">
    <defs>
     <path d="M -2 2 
L 2 2 
L 2 -2 
L -2 -2 
z
" id="m2660e4a1d2" style="stroke:#1f77b4;stroke-linejoin:miter;stroke-width:0.5;"/>
    </defs>
    <g clip-path="url(#pdc58710559)">
     <use style="fill:#1f77b4;stroke:#1f77b4;stroke-linejoin:miter;stroke-width:0.5;" x="73.81982" xlink:href="#m2660e4a1d2" y="10.999219"/>
     <use style="fill:#1f77b4;stroke:#1f77b4;stroke-linejoin:miter;stroke-width:0.5;" x="78.440854" xlink:href="#m2660e4a1d2" y="18.138778"/>
     <use style="fill:#1f77b4;stroke:#1f77b4;stroke-linejoin:miter;stroke-width:0.5;" x="94.42559" xlink:href="#m2660e4a1d2" y="28.457931"/>
     <use style="fill:#1f77b4;stroke:#1f77b4;stroke-linejoin:miter;stroke-width:0.5;" x="105.663369" xlink:href="#m2660e4a1d2" y="37.454374"/>
     <use style="fill:#1f77b4;stroke:#1f77b4;stroke-linejoin:miter;stroke-width:0.5;" x="134.180026" xlink:href="#m2660e4a1d2" y="55.527377"/>
     <use style="fill:#1f77b4;stroke:#1f77b4;stroke-linejoin:miter;stroke-width:0.5;" x="169.941982" xlink:href="#m2660e4a1d2" y="78.644374"/>
     <use style="fill:#1f77b4;stroke:#1f77b4;stroke-linejoin:miter;stroke-width:0.5;" x="211.725988" xlink:href="#m2660e4a1d2" y="101.537517"/>
    </g>
   </g>
   <g id="line2d_33">
    <defs>
     <path d="M 0 2 
C 0.530406 2 1.03916 1.789267 1.414214 1.414214 
C 1.789267 1.03916 2 0.530406 2 0 
C 2 -0.530406 1.789267 -1.03916 1.414214 -1.414214 
C 1.03916 -1.789267 0.530406 -2 0 -2 
C -0.530406 -2 -1.03916 -1.789267 -1.414214 -1.414214 
C -1.789267 -1.03916 -2 -0.530406 -2 0 
C -2 0.530406 -1.789267 1.03916 -1.414214 1.414214 
C -1.03916 1.789267 -0.530406 2 0 2 
z
" id="m6527887b3c" style="stroke:#ff7f0e;stroke-width:0.5;"/>
    </defs>
    <g clip-path="url(#pdc58710559)">
     <use style="fill:#ff7f0e;stroke:#ff7f0e;stroke-width:0.5;" x="73.69856" xlink:href="#m6527887b3c" y="18.365425"/>
     <use style="fill:#ff7f0e;stroke:#ff7f0e;stroke-width:0.5;" x="84.599871" xlink:href="#m6527887b3c" y="22.908486"/>
     <use style="fill:#ff7f0e;stroke:#ff7f0e;stroke-width:0.5;" x="130.784735" xlink:href="#m6527887b3c" y="71.558876"/>
     <use style="fill:#ff7f0e;stroke:#ff7f0e;stroke-width:0.5;" x="164.485263" xlink:href="#m6527887b3c" y="91.471485"/>
    </g>
   </g>
   <g id="line2d_34">
    <defs>
     <path d="M 0 2.828427 
L 1.697056 0 
L 0 -2.828427 
L -1.697056 0 
z
" id="m595e434134" style="stroke:#2ca02c;stroke-linejoin:miter;stroke-width:0.5;"/>
    </defs>
    <g clip-path="url(#pdc58710559)">
     <use style="fill:#2ca02c;stroke:#2ca02c;stroke-linejoin:miter;stroke-width:0.5;" x="73.5773" xlink:href="#m595e434134" y="14.924082"/>
     <use style="fill:#2ca02c;stroke:#2ca02c;stroke-linejoin:miter;stroke-width:0.5;" x="83.872308" xlink:href="#m595e434134" y="37.73125"/>
     <use style="fill:#2ca02c;stroke:#2ca02c;stroke-linejoin:miter;stroke-width:0.5;" x="92.000382" xlink:href="#m595e434134" y="48.55911"/>
     <use style="fill:#2ca02c;stroke:#2ca02c;stroke-linejoin:miter;stroke-width:0.5;" x="127.389444" xlink:href="#m595e434134" y="80.218217"/>
    </g>
   </g>
   <g id="patch_3">
    <path d="M 65.17 141.438441 
L 65.17 7.821276 
" style="fill:none;stroke:#000000;stroke-linecap:square;stroke-linejoin:miter;stroke-width:0.8;"/>
   </g>
   <g id="patch_4">
    <path d="M 229.758031 141.438441 
L 229.758031 7.821276 
" style="fill:none;stroke:#000000;stroke-linecap:square;stroke-linejoin:miter;stroke-width:0.8;"/>
   </g>
   <g id="patch_5">
    <path d="M 65.17 141.438441 
L 229.758031 141.438441 
" style="fill:none;stroke:#000000;stroke-linecap:square;stroke-linejoin:miter;stroke-width:0.8;"/>
   </g>
   <g id="patch_6">
    <path d="M 65.17 7.821276 
L 229.758031 7.821276 
" style="fill:none;stroke:#000000;stroke-linecap:square;stroke-linejoin:miter;stroke-width:0.8;"/>
   </g>
   <g id="text_8">
    <!-- N'=11 -->
    <g transform="translate(194.821005 92.111391)scale(0.09 -0.09)">
     <defs>
      <path d="M 1147 4666 
L 1147 2931 
L 616 2931 
L 616 4666 
L 1147 4666 
z
" id="DejaVuSans-27" transform="scale(0.015625)"/>
      <path d="M 678 2906 
L 4684 2906 
L 4684 2381 
L 678 2381 
L 678 2906 
z
M 678 1631 
L 4684 1631 
L 4684 1100 
L 678 1100 
L 678 1631 
z
" id="DejaVuSans-3d" transform="scale(0.015625)"/>
     </defs>
     <use xlink:href="#DejaVuSans-4e"/>
     <use x="74.804688" xlink:href="#DejaVuSans-27"/>
     <use x="102.294922" xlink:href="#DejaVuSans-3d"/>
     <use x="186.083984" xlink:href="#DejaVuSans-31"/>
     <use x="249.707031" xlink:href="#DejaVuSans-31"/>
    </g>
   </g>
   <g id="legend_1">
    <g id="patch_7">
     <path d="M 158.841 51.184401 
L 225.208031 51.184401 
Q 226.508031 51.184401 226.508031 49.884401 
L 226.508031 12.371276 
Q 226.508031 11.071276 225.208031 11.071276 
L 158.841 11.071276 
Q 157.541 11.071276 157.541 12.371276 
L 157.541 49.884401 
Q 157.541 51.184401 158.841 51.184401 
z
" style="fill:#ffffff;opacity:0.8;stroke:#cccccc;stroke-linejoin:miter;"/>
    </g>
    <g id="LineCollection_4">
     <path d="M 166.641 19.58526 
L 166.641 13.08526 
" style="fill:none;stroke:#1f77b4;stroke-width:0.5;"/>
    </g>
    <g id="line2d_35">
     <g>
      <use style="fill:#1f77b4;stroke:#1f77b4;stroke-width:0.5;" x="166.641" xlink:href="#m28388e8508" y="19.58526"/>
     </g>
    </g>
    <g id="line2d_36">
     <g>
      <use style="fill:#1f77b4;stroke:#1f77b4;stroke-width:0.5;" x="166.641" xlink:href="#m28388e8508" y="13.08526"/>
     </g>
    </g>
    <g id="line2d_37"/>
    <g id="line2d_38">
     <g>
      <use style="fill:#1f77b4;stroke:#1f77b4;stroke-linejoin:miter;stroke-width:0.5;" x="166.641" xlink:href="#m2660e4a1d2" y="16.33526"/>
     </g>
    </g>
    <g id="text_9">
     <!-- (v'-v'') = (0-0) -->
     <g transform="translate(178.341 18.61026)scale(0.065 -0.065)">
      <defs>
       <path d="M 313 2009 
L 1997 2009 
L 1997 1497 
L 313 1497 
L 313 2009 
z
" id="DejaVuSans-2d" transform="scale(0.015625)"/>
      </defs>
      <use xlink:href="#DejaVuSans-28"/>
      <use x="39.013672" xlink:href="#DejaVuSans-76"/>
      <use x="98.193359" xlink:href="#DejaVuSans-27"/>
      <use x="125.683594" xlink:href="#DejaVuSans-2d"/>
      <use x="159.142578" xlink:href="#DejaVuSans-76"/>
      <use x="218.322266" xlink:href="#DejaVuSans-27"/>
      <use x="245.8125" xlink:href="#DejaVuSans-27"/>
      <use x="273.302734" xlink:href="#DejaVuSans-29"/>
      <use x="312.316406" xlink:href="#DejaVuSans-20"/>
      <use x="344.103516" xlink:href="#DejaVuSans-3d"/>
      <use x="427.892578" xlink:href="#DejaVuSans-20"/>
      <use x="459.679688" xlink:href="#DejaVuSans-28"/>
      <use x="498.693359" xlink:href="#DejaVuSans-30"/>
      <use x="562.316406" xlink:href="#DejaVuSans-2d"/>
      <use x="598.400391" xlink:href="#DejaVuSans-30"/>
      <use x="662.023438" xlink:href="#DejaVuSans-29"/>
     </g>
    </g>
    <g id="LineCollection_5">
     <path d="M 166.641 29.126041 
L 166.641 22.626041 
" style="fill:none;stroke:#ff7f0e;stroke-width:0.5;"/>
    </g>
    <g id="line2d_39">
     <g>
      <use style="fill:#ff7f0e;stroke:#ff7f0e;stroke-width:0.5;" x="166.641" xlink:href="#mac1d0d4182" y="29.126041"/>
     </g>
    </g>
    <g id="line2d_40">
     <g>
      <use style="fill:#ff7f0e;stroke:#ff7f0e;stroke-width:0.5;" x="166.641" xlink:href="#mac1d0d4182" y="22.626041"/>
     </g>
    </g>
    <g id="line2d_41"/>
    <g id="line2d_42">
     <g>
      <use style="fill:#ff7f0e;stroke:#ff7f0e;stroke-width:0.5;" x="166.641" xlink:href="#m6527887b3c" y="25.876041"/>
     </g>
    </g>
    <g id="text_10">
     <!-- (v'-v'') = (1-1) -->
     <g transform="translate(178.341 28.151041)scale(0.065 -0.065)">
      <use xlink:href="#DejaVuSans-28"/>
      <use x="39.013672" xlink:href="#DejaVuSans-76"/>
      <use x="98.193359" xlink:href="#DejaVuSans-27"/>
      <use x="125.683594" xlink:href="#DejaVuSans-2d"/>
      <use x="159.142578" xlink:href="#DejaVuSans-76"/>
      <use x="218.322266" xlink:href="#DejaVuSans-27"/>
      <use x="245.8125" xlink:href="#DejaVuSans-27"/>
      <use x="273.302734" xlink:href="#DejaVuSans-29"/>
      <use x="312.316406" xlink:href="#DejaVuSans-20"/>
      <use x="344.103516" xlink:href="#DejaVuSans-3d"/>
      <use x="427.892578" xlink:href="#DejaVuSans-20"/>
      <use x="459.679688" xlink:href="#DejaVuSans-28"/>
      <use x="498.693359" xlink:href="#DejaVuSans-31"/>
      <use x="562.316406" xlink:href="#DejaVuSans-2d"/>
      <use x="598.400391" xlink:href="#DejaVuSans-31"/>
      <use x="662.023438" xlink:href="#DejaVuSans-29"/>
     </g>
    </g>
    <g id="LineCollection_6">
     <path d="M 166.641 38.666823 
L 166.641 32.166823 
" style="fill:none;stroke:#2ca02c;stroke-width:0.5;"/>
    </g>
    <g id="line2d_43">
     <g>
      <use style="fill:#2ca02c;stroke:#2ca02c;stroke-width:0.5;" x="166.641" xlink:href="#maa334e90e1" y="38.666823"/>
     </g>
    </g>
    <g id="line2d_44">
     <g>
      <use style="fill:#2ca02c;stroke:#2ca02c;stroke-width:0.5;" x="166.641" xlink:href="#maa334e90e1" y="32.166823"/>
     </g>
    </g>
    <g id="line2d_45"/>
    <g id="line2d_46">
     <g>
      <use style="fill:#2ca02c;stroke:#2ca02c;stroke-linejoin:miter;stroke-width:0.5;" x="166.641" xlink:href="#m595e434134" y="35.416823"/>
     </g>
    </g>
    <g id="text_11">
     <!-- (v'-v'') = (2-2) -->
     <g transform="translate(178.341 37.691823)scale(0.065 -0.065)">
      <use xlink:href="#DejaVuSans-28"/>
      <use x="39.013672" xlink:href="#DejaVuSans-76"/>
      <use x="98.193359" xlink:href="#DejaVuSans-27"/>
      <use x="125.683594" xlink:href="#DejaVuSans-2d"/>
      <use x="159.142578" xlink:href="#DejaVuSans-76"/>
      <use x="218.322266" xlink:href="#DejaVuSans-27"/>
      <use x="245.8125" xlink:href="#DejaVuSans-27"/>
      <use x="273.302734" xlink:href="#DejaVuSans-29"/>
      <use x="312.316406" xlink:href="#DejaVuSans-20"/>
      <use x="344.103516" xlink:href="#DejaVuSans-3d"/>
      <use x="427.892578" xlink:href="#DejaVuSans-20"/>
      <use x="459.679688" xlink:href="#DejaVuSans-28"/>
      <use x="498.693359" xlink:href="#DejaVuSans-32"/>
      <use x="562.316406" xlink:href="#DejaVuSans-2d"/>
      <use x="598.400391" xlink:href="#DejaVuSans-32"/>
      <use x="662.023438" xlink:href="#DejaVuSans-29"/>
     </g>
    </g>
    <g id="line2d_47">
     <path d="M 160.141 44.957604 
L 173.141 44.957604 
" style="fill:none;stroke:#000000;stroke-dasharray:1.5,2.475;stroke-dashoffset:0;stroke-width:1.5;"/>
    </g>
    <g id="line2d_48"/>
    <g id="text_12">
     <!-- fitted -->
     <g transform="translate(178.341 47.232604)scale(0.065 -0.065)">
      <defs>
       <path d="M 2375 4863 
L 2375 4384 
L 1825 4384 
Q 1516 4384 1395 4259 
Q 1275 4134 1275 3809 
L 1275 3500 
L 2222 3500 
L 2222 3053 
L 1275 3053 
L 1275 0 
L 697 0 
L 697 3053 
L 147 3053 
L 147 3500 
L 697 3500 
L 697 3744 
Q 697 4328 969 4595 
Q 1241 4863 1831 4863 
L 2375 4863 
z
" id="DejaVuSans-66" transform="scale(0.015625)"/>
      </defs>
      <use xlink:href="#DejaVuSans-66"/>
      <use x="35.205078" xlink:href="#DejaVuSans-69"/>
      <use x="62.988281" xlink:href="#DejaVuSans-74"/>
      <use x="102.197266" xlink:href="#DejaVuSans-74"/>
      <use x="141.40625" xlink:href="#DejaVuSans-65"/>
      <use x="202.929688" xlink:href="#DejaVuSans-64"/>
     </g>
    </g>
   </g>
  </g>
 </g>
 <defs>
  <clipPath id="pdc58710559">
   <rect height="133.617165" width="164.588031" x="65.17" y="7.821276"/>
  </clipPath>
 </defs>
</svg>
