<?xml version="1.0" encoding="utf-8" standalone="no"?>
<!DOCTYPE svg PUBLIC "-//W3C//DTD SVG 1.1//EN"
  "http://www.w3.org/Graphics/SVG/1.1/DTD/svg11.dtd">
<svg xmlns:xlink="http://www.w3.org/1999/xlink" width="244.909594pt" height="182.528061pt" viewBox="0 0 244.909594 182.528061" xmlns="http://www.w3.org/2000/svg" version="1.1">
 <metadata>
  <rdf:RDF xmlns:dc="http://purl.org/dc/elements/1.1/" xmlns:cc="http://creativecommons.org/ns#" xmlns:rdf="http://www.w3.org/1999/02/22-rdf-syntax-ns#">
   <cc:Work>
    <dc:type rdf:resource="http://purl.org/dc/dcmitype/StillImage"/>
    <dc:date>2022-09-02T22:17:36.982301</dc:date>
    <dc:format>image/svg+xml</dc:format>
    <dc:creator>
     <cc:Agent>
      <dc:title>Matplotlib v3.5.2, https://matplotlib.org/</dc:title>
     </cc:Agent>
    </dc:creator>
   </cc:Work>
  </rdf:RDF>
 </metadata>
 <defs>
  <style type="text/css">*{stroke-linejoin: round; stroke-linecap: butt}</style>
 </defs>
 <g id="figure_1">
  <g id="patch_1">
   <path d="M 0 182.528061 
L 244.909594 182.528061 
L 244.909594 0 
L 0 0 
z
" style="fill: #ffffff"/>
  </g>
  <g id="axes_1">
   <g id="patch_2">
    <path d="M 65.17 143.471811 
L 229.758031 143.471811 
L 229.758031 7.2 
L 65.17 7.2 
z
" style="fill: #ffffff"/>
   </g>
   <g id="matplotlib.axis_1">
    <g id="xtick_1">
     <g id="line2d_1">
      <defs>
       <path id="mc4163c16f8" d="M 0 0 
L 0 5 
" style="stroke: #000000; stroke-width: 0.8"/>
      </defs>
      <g>
       <use xlink:href="#mc4163c16f8" x="69.184342" y="143.471811" style="stroke: #000000; stroke-width: 0.8"/>
      </g>
     </g>
     <g id="text_1">
      <!-- 0.0 -->
      <g transform="translate(61.23278 159.570249)scale(0.1 -0.1)">
       <defs>
        <path id="DejaVuSans-30" d="M 2034 4250 
Q 1547 4250 1301 3770 
Q 1056 3291 1056 2328 
Q 1056 1369 1301 889 
Q 1547 409 2034 409 
Q 2525 409 2770 889 
Q 3016 1369 3016 2328 
Q 3016 3291 2770 3770 
Q 2525 4250 2034 4250 
z
M 2034 4750 
Q 2819 4750 3233 4129 
Q 3647 3509 3647 2328 
Q 3647 1150 3233 529 
Q 2819 -91 2034 -91 
Q 1250 -91 836 529 
Q 422 1150 422 2328 
Q 422 3509 836 4129 
Q 1250 4750 2034 4750 
z
" transform="scale(0.015625)"/>
        <path id="DejaVuSans-2e" d="M 684 794 
L 1344 794 
L 1344 0 
L 684 0 
L 684 794 
z
" transform="scale(0.015625)"/>
       </defs>
       <use xlink:href="#DejaVuSans-30"/>
       <use xlink:href="#DejaVuSans-2e" x="63.623047"/>
       <use xlink:href="#DejaVuSans-30" x="95.410156"/>
      </g>
     </g>
    </g>
    <g id="xtick_2">
     <g id="line2d_2">
      <g>
       <use xlink:href="#mc4163c16f8" x="109.327765" y="143.471811" style="stroke: #000000; stroke-width: 0.8"/>
      </g>
     </g>
     <g id="text_2">
      <!-- 0.1 -->
      <g transform="translate(101.376202 159.570249)scale(0.1 -0.1)">
       <defs>
        <path id="DejaVuSans-31" d="M 794 531 
L 1825 531 
L 1825 4091 
L 703 3866 
L 703 4441 
L 1819 4666 
L 2450 4666 
L 2450 531 
L 3481 531 
L 3481 0 
L 794 0 
L 794 531 
z
" transform="scale(0.015625)"/>
       </defs>
       <use xlink:href="#DejaVuSans-30"/>
       <use xlink:href="#DejaVuSans-2e" x="63.623047"/>
       <use xlink:href="#DejaVuSans-31" x="95.410156"/>
      </g>
     </g>
    </g>
    <g id="xtick_3">
     <g id="line2d_3">
      <g>
       <use xlink:href="#mc4163c16f8" x="149.471187" y="143.471811" style="stroke: #000000; stroke-width: 0.8"/>
      </g>
     </g>
     <g id="text_3">
      <!-- 0.2 -->
      <g transform="translate(141.519624 159.570249)scale(0.1 -0.1)">
       <defs>
        <path id="DejaVuSans-32" d="M 1228 531 
L 3431 531 
L 3431 0 
L 469 0 
L 469 531 
Q 828 903 1448 1529 
Q 2069 2156 2228 2338 
Q 2531 2678 2651 2914 
Q 2772 3150 2772 3378 
Q 2772 3750 2511 3984 
Q 2250 4219 1831 4219 
Q 1534 4219 1204 4116 
Q 875 4013 500 3803 
L 500 4441 
Q 881 4594 1212 4672 
Q 1544 4750 1819 4750 
Q 2544 4750 2975 4387 
Q 3406 4025 3406 3419 
Q 3406 3131 3298 2873 
Q 3191 2616 2906 2266 
Q 2828 2175 2409 1742 
Q 1991 1309 1228 531 
z
" transform="scale(0.015625)"/>
       </defs>
       <use xlink:href="#DejaVuSans-30"/>
       <use xlink:href="#DejaVuSans-2e" x="63.623047"/>
       <use xlink:href="#DejaVuSans-32" x="95.410156"/>
      </g>
     </g>
    </g>
    <g id="xtick_4">
     <g id="line2d_4">
      <g>
       <use xlink:href="#mc4163c16f8" x="189.614609" y="143.471811" style="stroke: #000000; stroke-width: 0.8"/>
      </g>
     </g>
     <g id="text_4">
      <!-- 0.3 -->
      <g transform="translate(181.663047 159.570249)scale(0.1 -0.1)">
       <defs>
        <path id="DejaVuSans-33" d="M 2597 2516 
Q 3050 2419 3304 2112 
Q 3559 1806 3559 1356 
Q 3559 666 3084 287 
Q 2609 -91 1734 -91 
Q 1441 -91 1130 -33 
Q 819 25 488 141 
L 488 750 
Q 750 597 1062 519 
Q 1375 441 1716 441 
Q 2309 441 2620 675 
Q 2931 909 2931 1356 
Q 2931 1769 2642 2001 
Q 2353 2234 1838 2234 
L 1294 2234 
L 1294 2753 
L 1863 2753 
Q 2328 2753 2575 2939 
Q 2822 3125 2822 3475 
Q 2822 3834 2567 4026 
Q 2313 4219 1838 4219 
Q 1578 4219 1281 4162 
Q 984 4106 628 3988 
L 628 4550 
Q 988 4650 1302 4700 
Q 1616 4750 1894 4750 
Q 2613 4750 3031 4423 
Q 3450 4097 3450 3541 
Q 3450 3153 3228 2886 
Q 3006 2619 2597 2516 
z
" transform="scale(0.015625)"/>
       </defs>
       <use xlink:href="#DejaVuSans-30"/>
       <use xlink:href="#DejaVuSans-2e" x="63.623047"/>
       <use xlink:href="#DejaVuSans-33" x="95.410156"/>
      </g>
     </g>
    </g>
    <g id="xtick_5">
     <g id="line2d_5">
      <g>
       <use xlink:href="#mc4163c16f8" x="229.758031" y="143.471811" style="stroke: #000000; stroke-width: 0.8"/>
      </g>
     </g>
     <g id="text_5">
      <!-- 0.4 -->
      <g transform="translate(221.806469 159.570249)scale(0.1 -0.1)">
       <defs>
        <path id="DejaVuSans-34" d="M 2419 4116 
L 825 1625 
L 2419 1625 
L 2419 4116 
z
M 2253 4666 
L 3047 4666 
L 3047 1625 
L 3713 1625 
L 3713 1100 
L 3047 1100 
L 3047 0 
L 2419 0 
L 2419 1100 
L 313 1100 
L 313 1709 
L 2253 4666 
z
" transform="scale(0.015625)"/>
       </defs>
       <use xlink:href="#DejaVuSans-30"/>
       <use xlink:href="#DejaVuSans-2e" x="63.623047"/>
       <use xlink:href="#DejaVuSans-34" x="95.410156"/>
      </g>
     </g>
    </g>
    <g id="text_6">
     <!-- Rotational Energy [eV] -->
     <g transform="translate(91.017922 173.248374)scale(0.1 -0.1)">
      <defs>
       <path id="DejaVuSans-52" d="M 2841 2188 
Q 3044 2119 3236 1894 
Q 3428 1669 3622 1275 
L 4263 0 
L 3584 0 
L 2988 1197 
Q 2756 1666 2539 1819 
Q 2322 1972 1947 1972 
L 1259 1972 
L 1259 0 
L 628 0 
L 628 4666 
L 2053 4666 
Q 2853 4666 3247 4331 
Q 3641 3997 3641 3322 
Q 3641 2881 3436 2590 
Q 3231 2300 2841 2188 
z
M 1259 4147 
L 1259 2491 
L 2053 2491 
Q 2509 2491 2742 2702 
Q 2975 2913 2975 3322 
Q 2975 3731 2742 3939 
Q 2509 4147 2053 4147 
L 1259 4147 
z
" transform="scale(0.015625)"/>
       <path id="DejaVuSans-6f" d="M 1959 3097 
Q 1497 3097 1228 2736 
Q 959 2375 959 1747 
Q 959 1119 1226 758 
Q 1494 397 1959 397 
Q 2419 397 2687 759 
Q 2956 1122 2956 1747 
Q 2956 2369 2687 2733 
Q 2419 3097 1959 3097 
z
M 1959 3584 
Q 2709 3584 3137 3096 
Q 3566 2609 3566 1747 
Q 3566 888 3137 398 
Q 2709 -91 1959 -91 
Q 1206 -91 779 398 
Q 353 888 353 1747 
Q 353 2609 779 3096 
Q 1206 3584 1959 3584 
z
" transform="scale(0.015625)"/>
       <path id="DejaVuSans-74" d="M 1172 4494 
L 1172 3500 
L 2356 3500 
L 2356 3053 
L 1172 3053 
L 1172 1153 
Q 1172 725 1289 603 
Q 1406 481 1766 481 
L 2356 481 
L 2356 0 
L 1766 0 
Q 1100 0 847 248 
Q 594 497 594 1153 
L 594 3053 
L 172 3053 
L 172 3500 
L 594 3500 
L 594 4494 
L 1172 4494 
z
" transform="scale(0.015625)"/>
       <path id="DejaVuSans-61" d="M 2194 1759 
Q 1497 1759 1228 1600 
Q 959 1441 959 1056 
Q 959 750 1161 570 
Q 1363 391 1709 391 
Q 2188 391 2477 730 
Q 2766 1069 2766 1631 
L 2766 1759 
L 2194 1759 
z
M 3341 1997 
L 3341 0 
L 2766 0 
L 2766 531 
Q 2569 213 2275 61 
Q 1981 -91 1556 -91 
Q 1019 -91 701 211 
Q 384 513 384 1019 
Q 384 1609 779 1909 
Q 1175 2209 1959 2209 
L 2766 2209 
L 2766 2266 
Q 2766 2663 2505 2880 
Q 2244 3097 1772 3097 
Q 1472 3097 1187 3025 
Q 903 2953 641 2809 
L 641 3341 
Q 956 3463 1253 3523 
Q 1550 3584 1831 3584 
Q 2591 3584 2966 3190 
Q 3341 2797 3341 1997 
z
" transform="scale(0.015625)"/>
       <path id="DejaVuSans-69" d="M 603 3500 
L 1178 3500 
L 1178 0 
L 603 0 
L 603 3500 
z
M 603 4863 
L 1178 4863 
L 1178 4134 
L 603 4134 
L 603 4863 
z
" transform="scale(0.015625)"/>
       <path id="DejaVuSans-6e" d="M 3513 2113 
L 3513 0 
L 2938 0 
L 2938 2094 
Q 2938 2591 2744 2837 
Q 2550 3084 2163 3084 
Q 1697 3084 1428 2787 
Q 1159 2491 1159 1978 
L 1159 0 
L 581 0 
L 581 3500 
L 1159 3500 
L 1159 2956 
Q 1366 3272 1645 3428 
Q 1925 3584 2291 3584 
Q 2894 3584 3203 3211 
Q 3513 2838 3513 2113 
z
" transform="scale(0.015625)"/>
       <path id="DejaVuSans-6c" d="M 603 4863 
L 1178 4863 
L 1178 0 
L 603 0 
L 603 4863 
z
" transform="scale(0.015625)"/>
       <path id="DejaVuSans-20" transform="scale(0.015625)"/>
       <path id="DejaVuSans-45" d="M 628 4666 
L 3578 4666 
L 3578 4134 
L 1259 4134 
L 1259 2753 
L 3481 2753 
L 3481 2222 
L 1259 2222 
L 1259 531 
L 3634 531 
L 3634 0 
L 628 0 
L 628 4666 
z
" transform="scale(0.015625)"/>
       <path id="DejaVuSans-65" d="M 3597 1894 
L 3597 1613 
L 953 1613 
Q 991 1019 1311 708 
Q 1631 397 2203 397 
Q 2534 397 2845 478 
Q 3156 559 3463 722 
L 3463 178 
Q 3153 47 2828 -22 
Q 2503 -91 2169 -91 
Q 1331 -91 842 396 
Q 353 884 353 1716 
Q 353 2575 817 3079 
Q 1281 3584 2069 3584 
Q 2775 3584 3186 3129 
Q 3597 2675 3597 1894 
z
M 3022 2063 
Q 3016 2534 2758 2815 
Q 2500 3097 2075 3097 
Q 1594 3097 1305 2825 
Q 1016 2553 972 2059 
L 3022 2063 
z
" transform="scale(0.015625)"/>
       <path id="DejaVuSans-72" d="M 2631 2963 
Q 2534 3019 2420 3045 
Q 2306 3072 2169 3072 
Q 1681 3072 1420 2755 
Q 1159 2438 1159 1844 
L 1159 0 
L 581 0 
L 581 3500 
L 1159 3500 
L 1159 2956 
Q 1341 3275 1631 3429 
Q 1922 3584 2338 3584 
Q 2397 3584 2469 3576 
Q 2541 3569 2628 3553 
L 2631 2963 
z
" transform="scale(0.015625)"/>
       <path id="DejaVuSans-67" d="M 2906 1791 
Q 2906 2416 2648 2759 
Q 2391 3103 1925 3103 
Q 1463 3103 1205 2759 
Q 947 2416 947 1791 
Q 947 1169 1205 825 
Q 1463 481 1925 481 
Q 2391 481 2648 825 
Q 2906 1169 2906 1791 
z
M 3481 434 
Q 3481 -459 3084 -895 
Q 2688 -1331 1869 -1331 
Q 1566 -1331 1297 -1286 
Q 1028 -1241 775 -1147 
L 775 -588 
Q 1028 -725 1275 -790 
Q 1522 -856 1778 -856 
Q 2344 -856 2625 -561 
Q 2906 -266 2906 331 
L 2906 616 
Q 2728 306 2450 153 
Q 2172 0 1784 0 
Q 1141 0 747 490 
Q 353 981 353 1791 
Q 353 2603 747 3093 
Q 1141 3584 1784 3584 
Q 2172 3584 2450 3431 
Q 2728 3278 2906 2969 
L 2906 3500 
L 3481 3500 
L 3481 434 
z
" transform="scale(0.015625)"/>
       <path id="DejaVuSans-79" d="M 2059 -325 
Q 1816 -950 1584 -1140 
Q 1353 -1331 966 -1331 
L 506 -1331 
L 506 -850 
L 844 -850 
Q 1081 -850 1212 -737 
Q 1344 -625 1503 -206 
L 1606 56 
L 191 3500 
L 800 3500 
L 1894 763 
L 2988 3500 
L 3597 3500 
L 2059 -325 
z
" transform="scale(0.015625)"/>
       <path id="DejaVuSans-5b" d="M 550 4863 
L 1875 4863 
L 1875 4416 
L 1125 4416 
L 1125 -397 
L 1875 -397 
L 1875 -844 
L 550 -844 
L 550 4863 
z
" transform="scale(0.015625)"/>
       <path id="DejaVuSans-56" d="M 1831 0 
L 50 4666 
L 709 4666 
L 2188 738 
L 3669 4666 
L 4325 4666 
L 2547 0 
L 1831 0 
z
" transform="scale(0.015625)"/>
       <path id="DejaVuSans-5d" d="M 1947 4863 
L 1947 -844 
L 622 -844 
L 622 -397 
L 1369 -397 
L 1369 4416 
L 622 4416 
L 622 4863 
L 1947 4863 
z
" transform="scale(0.015625)"/>
      </defs>
      <use xlink:href="#DejaVuSans-52"/>
      <use xlink:href="#DejaVuSans-6f" x="64.982422"/>
      <use xlink:href="#DejaVuSans-74" x="126.164062"/>
      <use xlink:href="#DejaVuSans-61" x="165.373047"/>
      <use xlink:href="#DejaVuSans-74" x="226.652344"/>
      <use xlink:href="#DejaVuSans-69" x="265.861328"/>
      <use xlink:href="#DejaVuSans-6f" x="293.644531"/>
      <use xlink:href="#DejaVuSans-6e" x="354.826172"/>
      <use xlink:href="#DejaVuSans-61" x="418.205078"/>
      <use xlink:href="#DejaVuSans-6c" x="479.484375"/>
      <use xlink:href="#DejaVuSans-20" x="507.267578"/>
      <use xlink:href="#DejaVuSans-45" x="539.054688"/>
      <use xlink:href="#DejaVuSans-6e" x="602.238281"/>
      <use xlink:href="#DejaVuSans-65" x="665.617188"/>
      <use xlink:href="#DejaVuSans-72" x="727.140625"/>
      <use xlink:href="#DejaVuSans-67" x="766.503906"/>
      <use xlink:href="#DejaVuSans-79" x="829.980469"/>
      <use xlink:href="#DejaVuSans-20" x="889.160156"/>
      <use xlink:href="#DejaVuSans-5b" x="920.947266"/>
      <use xlink:href="#DejaVuSans-65" x="959.960938"/>
      <use xlink:href="#DejaVuSans-56" x="1021.484375"/>
      <use xlink:href="#DejaVuSans-5d" x="1089.892578"/>
     </g>
    </g>
   </g>
   <g id="matplotlib.axis_2">
    <g id="ytick_1">
     <g id="line2d_6">
      <defs>
       <path id="m506b49ee66" d="M 0 0 
L -5 0 
" style="stroke: #000000; stroke-width: 0.8"/>
      </defs>
      <g>
       <use xlink:href="#m506b49ee66" x="65.17" y="89.904991" style="stroke: #000000; stroke-width: 0.8"/>
      </g>
     </g>
     <g id="text_7">
      <!-- $\mathdefault{10^{-1}}$ -->
      <g transform="translate(33.17 93.70421)scale(0.1 -0.1)">
       <defs>
        <path id="DejaVuSans-2212" d="M 678 2272 
L 4684 2272 
L 4684 1741 
L 678 1741 
L 678 2272 
z
" transform="scale(0.015625)"/>
       </defs>
       <use xlink:href="#DejaVuSans-31" transform="translate(0 0.684375)"/>
       <use xlink:href="#DejaVuSans-30" transform="translate(63.623047 0.684375)"/>
       <use xlink:href="#DejaVuSans-2212" transform="translate(128.203125 38.965625)scale(0.7)"/>
       <use xlink:href="#DejaVuSans-31" transform="translate(186.855469 38.965625)scale(0.7)"/>
      </g>
     </g>
    </g>
    <g id="ytick_2">
     <g id="line2d_7">
      <g>
       <use xlink:href="#m506b49ee66" x="65.17" y="13.268197" style="stroke: #000000; stroke-width: 0.8"/>
      </g>
     </g>
     <g id="text_8">
      <!-- $\mathdefault{10^{0}}$ -->
      <g transform="translate(39.07 17.067416)scale(0.1 -0.1)">
       <use xlink:href="#DejaVuSans-31" transform="translate(0 0.765625)"/>
       <use xlink:href="#DejaVuSans-30" transform="translate(63.623047 0.765625)"/>
       <use xlink:href="#DejaVuSans-30" transform="translate(128.203125 39.046875)scale(0.7)"/>
      </g>
     </g>
    </g>
    <g id="ytick_3">
     <g id="line2d_8">
      <defs>
       <path id="ma974408807" d="M 0 0 
L -2 0 
" style="stroke: #000000; stroke-width: 0.6"/>
      </defs>
      <g>
       <use xlink:href="#ma974408807" x="65.17" y="143.471811" style="stroke: #000000; stroke-width: 0.6"/>
      </g>
     </g>
    </g>
    <g id="ytick_4">
     <g id="line2d_9">
      <g>
       <use xlink:href="#ma974408807" x="65.17" y="129.976741" style="stroke: #000000; stroke-width: 0.6"/>
      </g>
     </g>
    </g>
    <g id="ytick_5">
     <g id="line2d_10">
      <g>
       <use xlink:href="#ma974408807" x="65.17" y="120.401837" style="stroke: #000000; stroke-width: 0.6"/>
      </g>
     </g>
    </g>
    <g id="ytick_6">
     <g id="line2d_11">
      <g>
       <use xlink:href="#ma974408807" x="65.17" y="112.974965" style="stroke: #000000; stroke-width: 0.6"/>
      </g>
     </g>
    </g>
    <g id="ytick_7">
     <g id="line2d_12">
      <g>
       <use xlink:href="#ma974408807" x="65.17" y="106.906768" style="stroke: #000000; stroke-width: 0.6"/>
      </g>
     </g>
    </g>
    <g id="ytick_8">
     <g id="line2d_13">
      <g>
       <use xlink:href="#ma974408807" x="65.17" y="101.77618" style="stroke: #000000; stroke-width: 0.6"/>
      </g>
     </g>
    </g>
    <g id="ytick_9">
     <g id="line2d_14">
      <g>
       <use xlink:href="#ma974408807" x="65.17" y="97.331864" style="stroke: #000000; stroke-width: 0.6"/>
      </g>
     </g>
    </g>
    <g id="ytick_10">
     <g id="line2d_15">
      <g>
       <use xlink:href="#ma974408807" x="65.17" y="93.411698" style="stroke: #000000; stroke-width: 0.6"/>
      </g>
     </g>
    </g>
    <g id="ytick_11">
     <g id="line2d_16">
      <g>
       <use xlink:href="#ma974408807" x="65.17" y="66.835017" style="stroke: #000000; stroke-width: 0.6"/>
      </g>
     </g>
    </g>
    <g id="ytick_12">
     <g id="line2d_17">
      <g>
       <use xlink:href="#ma974408807" x="65.17" y="53.339948" style="stroke: #000000; stroke-width: 0.6"/>
      </g>
     </g>
    </g>
    <g id="ytick_13">
     <g id="line2d_18">
      <g>
       <use xlink:href="#ma974408807" x="65.17" y="43.765043" style="stroke: #000000; stroke-width: 0.6"/>
      </g>
     </g>
    </g>
    <g id="ytick_14">
     <g id="line2d_19">
      <g>
       <use xlink:href="#ma974408807" x="65.17" y="36.338171" style="stroke: #000000; stroke-width: 0.6"/>
      </g>
     </g>
    </g>
    <g id="ytick_15">
     <g id="line2d_20">
      <g>
       <use xlink:href="#ma974408807" x="65.17" y="30.269974" style="stroke: #000000; stroke-width: 0.6"/>
      </g>
     </g>
    </g>
    <g id="ytick_16">
     <g id="line2d_21">
      <g>
       <use xlink:href="#ma974408807" x="65.17" y="25.139386" style="stroke: #000000; stroke-width: 0.6"/>
      </g>
     </g>
    </g>
    <g id="ytick_17">
     <g id="line2d_22">
      <g>
       <use xlink:href="#ma974408807" x="65.17" y="20.69507" style="stroke: #000000; stroke-width: 0.6"/>
      </g>
     </g>
    </g>
    <g id="ytick_18">
     <g id="line2d_23">
      <g>
       <use xlink:href="#ma974408807" x="65.17" y="16.774904" style="stroke: #000000; stroke-width: 0.6"/>
      </g>
     </g>
    </g>
    <g id="text_9">
     <!-- $\mathdefault{\mathrm{\frac{ n_{dv'N'}}{(2N'+1)g^{N'}_{as}}}}$ [a.u.] -->
     <g transform="translate(19.68 121.615906)rotate(-90)scale(0.13 -0.13)">
      <defs>
       <path id="DejaVuSans-64" d="M 2906 2969 
L 2906 4863 
L 3481 4863 
L 3481 0 
L 2906 0 
L 2906 525 
Q 2725 213 2448 61 
Q 2172 -91 1784 -91 
Q 1150 -91 751 415 
Q 353 922 353 1747 
Q 353 2572 751 3078 
Q 1150 3584 1784 3584 
Q 2172 3584 2448 3432 
Q 2725 3281 2906 2969 
z
M 947 1747 
Q 947 1113 1208 752 
Q 1469 391 1925 391 
Q 2381 391 2643 752 
Q 2906 1113 2906 1747 
Q 2906 2381 2643 2742 
Q 2381 3103 1925 3103 
Q 1469 3103 1208 2742 
Q 947 2381 947 1747 
z
" transform="scale(0.015625)"/>
       <path id="DejaVuSans-76" d="M 191 3500 
L 800 3500 
L 1894 563 
L 2988 3500 
L 3597 3500 
L 2284 0 
L 1503 0 
L 191 3500 
z
" transform="scale(0.015625)"/>
       <path id="Cmsy10-30" d="M 225 347 
Q 184 359 184 409 
L 966 3316 
Q 1003 3434 1093 3506 
Q 1184 3578 1300 3578 
Q 1450 3578 1564 3479 
Q 1678 3381 1678 3231 
Q 1678 3166 1644 3084 
L 488 319 
Q 466 275 428 275 
Q 394 275 320 306 
Q 247 338 225 347 
z
" transform="scale(0.015625)"/>
       <path id="DejaVuSans-4e" d="M 628 4666 
L 1478 4666 
L 3547 763 
L 3547 4666 
L 4159 4666 
L 4159 0 
L 3309 0 
L 1241 3903 
L 1241 0 
L 628 0 
L 628 4666 
z
" transform="scale(0.015625)"/>
       <path id="DejaVuSans-28" d="M 1984 4856 
Q 1566 4138 1362 3434 
Q 1159 2731 1159 2009 
Q 1159 1288 1364 580 
Q 1569 -128 1984 -844 
L 1484 -844 
Q 1016 -109 783 600 
Q 550 1309 550 2009 
Q 550 2706 781 3412 
Q 1013 4119 1484 4856 
L 1984 4856 
z
" transform="scale(0.015625)"/>
       <path id="DejaVuSans-2b" d="M 2944 4013 
L 2944 2272 
L 4684 2272 
L 4684 1741 
L 2944 1741 
L 2944 0 
L 2419 0 
L 2419 1741 
L 678 1741 
L 678 2272 
L 2419 2272 
L 2419 4013 
L 2944 4013 
z
" transform="scale(0.015625)"/>
       <path id="DejaVuSans-29" d="M 513 4856 
L 1013 4856 
Q 1481 4119 1714 3412 
Q 1947 2706 1947 2009 
Q 1947 1309 1714 600 
Q 1481 -109 1013 -844 
L 513 -844 
Q 928 -128 1133 580 
Q 1338 1288 1338 2009 
Q 1338 2731 1133 3434 
Q 928 4138 513 4856 
z
" transform="scale(0.015625)"/>
       <path id="DejaVuSans-73" d="M 2834 3397 
L 2834 2853 
Q 2591 2978 2328 3040 
Q 2066 3103 1784 3103 
Q 1356 3103 1142 2972 
Q 928 2841 928 2578 
Q 928 2378 1081 2264 
Q 1234 2150 1697 2047 
L 1894 2003 
Q 2506 1872 2764 1633 
Q 3022 1394 3022 966 
Q 3022 478 2636 193 
Q 2250 -91 1575 -91 
Q 1294 -91 989 -36 
Q 684 19 347 128 
L 347 722 
Q 666 556 975 473 
Q 1284 391 1588 391 
Q 1994 391 2212 530 
Q 2431 669 2431 922 
Q 2431 1156 2273 1281 
Q 2116 1406 1581 1522 
L 1381 1569 
Q 847 1681 609 1914 
Q 372 2147 372 2553 
Q 372 3047 722 3315 
Q 1072 3584 1716 3584 
Q 2034 3584 2315 3537 
Q 2597 3491 2834 3397 
z
" transform="scale(0.015625)"/>
       <path id="DejaVuSans-75" d="M 544 1381 
L 544 3500 
L 1119 3500 
L 1119 1403 
Q 1119 906 1312 657 
Q 1506 409 1894 409 
Q 2359 409 2629 706 
Q 2900 1003 2900 1516 
L 2900 3500 
L 3475 3500 
L 3475 0 
L 2900 0 
L 2900 538 
Q 2691 219 2414 64 
Q 2138 -91 1772 -91 
Q 1169 -91 856 284 
Q 544 659 544 1381 
z
M 1991 3584 
L 1991 3584 
z
" transform="scale(0.015625)"/>
      </defs>
      <use xlink:href="#DejaVuSans-6e" transform="translate(117 56.8)scale(0.7)"/>
      <use xlink:href="#DejaVuSans-64" transform="translate(162.035156 45.315625)scale(0.49)"/>
      <use xlink:href="#DejaVuSans-76" transform="translate(193.138672 45.315625)scale(0.49)"/>
      <use xlink:href="#Cmsy10-30" transform="translate(222.605664 64.073438)scale(0.343)"/>
      <use xlink:href="#DejaVuSans-4e" transform="translate(233.374658 45.315625)scale(0.49)"/>
      <use xlink:href="#Cmsy10-30" transform="translate(270.4979 64.073438)scale(0.343)"/>
      <use xlink:href="#DejaVuSans-28" transform="translate(0 -51.361625)scale(0.7)"/>
      <use xlink:href="#DejaVuSans-32" transform="translate(27.30957 -51.361625)scale(0.7)"/>
      <use xlink:href="#DejaVuSans-4e" transform="translate(71.845703 -51.361625)scale(0.7)"/>
      <use xlink:href="#Cmsy10-30" transform="translate(124.878906 -24.56475)scale(0.49)"/>
      <use xlink:href="#DejaVuSans-2b" transform="translate(153.900879 -51.361625)scale(0.7)"/>
      <use xlink:href="#DejaVuSans-31" transform="translate(226.190918 -51.361625)scale(0.7)"/>
      <use xlink:href="#DejaVuSans-29" transform="translate(270.727051 -51.361625)scale(0.7)"/>
      <use xlink:href="#DejaVuSans-67" transform="translate(298.036621 -51.361625)scale(0.7)"/>
      <use xlink:href="#DejaVuSans-4e" transform="translate(343.140137 -24.56475)scale(0.49)"/>
      <use xlink:href="#Cmsy10-30" transform="translate(380.263379 -5.806937)scale(0.343)"/>
      <use xlink:href="#DejaVuSans-61" transform="translate(343.140137 -70.50225)scale(0.49)"/>
      <use xlink:href="#DejaVuSans-73" transform="translate(373.166992 -70.50225)scale(0.49)"/>
      <use xlink:href="#DejaVuSans-20" transform="translate(413.109863 0.822031)"/>
      <use xlink:href="#DejaVuSans-5b" transform="translate(444.896973 0.822031)"/>
      <use xlink:href="#DejaVuSans-61" transform="translate(483.910645 0.822031)"/>
      <use xlink:href="#DejaVuSans-2e" transform="translate(545.189941 0.822031)"/>
      <use xlink:href="#DejaVuSans-75" transform="translate(576.977051 0.822031)"/>
      <use xlink:href="#DejaVuSans-2e" transform="translate(640.355957 0.822031)"/>
      <use xlink:href="#DejaVuSans-5d" transform="translate(672.143066 0.822031)"/>
      <path d="M 0 19.618906 
L 0 25.868906 
L 400.609863 25.868906 
L 400.609863 19.618906 
L 0 19.618906 
z
"/>
     </g>
    </g>
   </g>
   <g id="LineCollection_1">
    <path d="M 73.632295 16.219873 
L 73.632295 10.557098 
" clip-path="url(#p7842c8dff4)" style="fill: none; stroke: #1f77b4; stroke-width: 0.5"/>
    <path d="M 83.942564 30.440889 
L 83.942564 23.205899 
" clip-path="url(#p7842c8dff4)" style="fill: none; stroke: #1f77b4; stroke-width: 0.5"/>
    <path d="M 99.951263 35.406642 
L 99.951263 33.093622 
" clip-path="url(#p7842c8dff4)" style="fill: none; stroke: #1f77b4; stroke-width: 0.5"/>
    <path d="M 110.015701 45.342135 
L 110.015701 37.313395 
" clip-path="url(#p7842c8dff4)" style="fill: none; stroke: #1f77b4; stroke-width: 0.5"/>
    <path d="M 121.400854 48.781365 
L 121.400854 46.55308 
" clip-path="url(#p7842c8dff4)" style="fill: none; stroke: #1f77b4; stroke-width: 0.5"/>
    <path d="M 147.94015 59.656583 
L 147.94015 56.670476 
" clip-path="url(#p7842c8dff4)" style="fill: none; stroke: #1f77b4; stroke-width: 0.5"/>
    <path d="M 214.414859 101.272812 
L 214.414859 93.471845 
" clip-path="url(#p7842c8dff4)" style="fill: none; stroke: #1f77b4; stroke-width: 0.5"/>
   </g>
   <g id="line2d_24">
    <defs>
     <path id="m63d934ff17" d="M 4 0 
L -4 -0 
" style="stroke: #1f77b4; stroke-width: 0.5"/>
    </defs>
    <g clip-path="url(#p7842c8dff4)">
     <use xlink:href="#m63d934ff17" x="73.632295" y="16.219873" style="fill: #1f77b4; stroke: #1f77b4; stroke-width: 0.5"/>
     <use xlink:href="#m63d934ff17" x="83.942564" y="30.440889" style="fill: #1f77b4; stroke: #1f77b4; stroke-width: 0.5"/>
     <use xlink:href="#m63d934ff17" x="99.951263" y="35.406642" style="fill: #1f77b4; stroke: #1f77b4; stroke-width: 0.5"/>
     <use xlink:href="#m63d934ff17" x="110.015701" y="45.342135" style="fill: #1f77b4; stroke: #1f77b4; stroke-width: 0.5"/>
     <use xlink:href="#m63d934ff17" x="121.400854" y="48.781365" style="fill: #1f77b4; stroke: #1f77b4; stroke-width: 0.5"/>
     <use xlink:href="#m63d934ff17" x="147.94015" y="59.656583" style="fill: #1f77b4; stroke: #1f77b4; stroke-width: 0.5"/>
     <use xlink:href="#m63d934ff17" x="214.414859" y="101.272812" style="fill: #1f77b4; stroke: #1f77b4; stroke-width: 0.5"/>
    </g>
   </g>
   <g id="line2d_25">
    <g clip-path="url(#p7842c8dff4)">
     <use xlink:href="#m63d934ff17" x="73.632295" y="10.557098" style="fill: #1f77b4; stroke: #1f77b4; stroke-width: 0.5"/>
     <use xlink:href="#m63d934ff17" x="83.942564" y="23.205899" style="fill: #1f77b4; stroke: #1f77b4; stroke-width: 0.5"/>
     <use xlink:href="#m63d934ff17" x="99.951263" y="33.093622" style="fill: #1f77b4; stroke: #1f77b4; stroke-width: 0.5"/>
     <use xlink:href="#m63d934ff17" x="110.015701" y="37.313395" style="fill: #1f77b4; stroke: #1f77b4; stroke-width: 0.5"/>
     <use xlink:href="#m63d934ff17" x="121.400854" y="46.55308" style="fill: #1f77b4; stroke: #1f77b4; stroke-width: 0.5"/>
     <use xlink:href="#m63d934ff17" x="147.94015" y="56.670476" style="fill: #1f77b4; stroke: #1f77b4; stroke-width: 0.5"/>
     <use xlink:href="#m63d934ff17" x="214.414859" y="93.471845" style="fill: #1f77b4; stroke: #1f77b4; stroke-width: 0.5"/>
    </g>
   </g>
   <g id="line2d_26">
    <path d="M 70.668944 11.019216 
L 73.632295 14.29757 
L 78.062688 18.615955 
L 83.942564 23.522757 
L 91.248511 28.742693 
L 99.951263 34.226579 
L 110.015701 40.070892 
L 121.400854 46.401985 
L 134.059896 53.307594 
L 147.94015 60.824122 
L 162.983084 68.950302 
L 179.124314 77.663397 
L 196.293603 86.929621 
L 214.414859 96.709152 
" clip-path="url(#p7842c8dff4)" style="fill: none; stroke-dasharray: 1.5,2.475; stroke-dashoffset: 0; stroke: #1f77b4; stroke-width: 1.5"/>
   </g>
   <g id="LineCollection_2">
    <path d="M 73.467452 21.474552 
L 73.467452 16.530361 
" clip-path="url(#p7842c8dff4)" style="fill: none; stroke: #ff7f0e; stroke-width: 0.5"/>
    <path d="M 77.733002 22.352564 
L 77.733002 18.061345 
" clip-path="url(#p7842c8dff4)" style="fill: none; stroke: #ff7f0e; stroke-width: 0.5"/>
    <path d="M 83.393087 31.643051 
L 83.393087 27.270645 
" clip-path="url(#p7842c8dff4)" style="fill: none; stroke: #ff7f0e; stroke-width: 0.5"/>
    <path d="M 90.424296 45.89111 
L 90.424296 41.48191 
" clip-path="url(#p7842c8dff4)" style="fill: none; stroke: #ff7f0e; stroke-width: 0.5"/>
    <path d="M 98.797362 51.27574 
L 98.797362 47.233014 
" clip-path="url(#p7842c8dff4)" style="fill: none; stroke: #ff7f0e; stroke-width: 0.5"/>
    <path d="M 144.918029 73.687289 
L 144.918029 69.072824 
" clip-path="url(#p7842c8dff4)" style="fill: none; stroke: #ff7f0e; stroke-width: 0.5"/>
    <path d="M 208.645356 122.270912 
L 208.645356 116.266079 
" clip-path="url(#p7842c8dff4)" style="fill: none; stroke: #ff7f0e; stroke-width: 0.5"/>
   </g>
   <g id="line2d_27">
    <defs>
     <path id="m0110343a60" d="M 4 0 
L -4 -0 
" style="stroke: #ff7f0e; stroke-width: 0.5"/>
    </defs>
    <g clip-path="url(#p7842c8dff4)">
     <use xlink:href="#m0110343a60" x="73.467452" y="21.474552" style="fill: #ff7f0e; stroke: #ff7f0e; stroke-width: 0.5"/>
     <use xlink:href="#m0110343a60" x="77.733002" y="22.352564" style="fill: #ff7f0e; stroke: #ff7f0e; stroke-width: 0.5"/>
     <use xlink:href="#m0110343a60" x="83.393087" y="31.643051" style="fill: #ff7f0e; stroke: #ff7f0e; stroke-width: 0.5"/>
     <use xlink:href="#m0110343a60" x="90.424296" y="45.89111" style="fill: #ff7f0e; stroke: #ff7f0e; stroke-width: 0.5"/>
     <use xlink:href="#m0110343a60" x="98.797362" y="51.27574" style="fill: #ff7f0e; stroke: #ff7f0e; stroke-width: 0.5"/>
     <use xlink:href="#m0110343a60" x="144.918029" y="73.687289" style="fill: #ff7f0e; stroke: #ff7f0e; stroke-width: 0.5"/>
     <use xlink:href="#m0110343a60" x="208.645356" y="122.270912" style="fill: #ff7f0e; stroke: #ff7f0e; stroke-width: 0.5"/>
    </g>
   </g>
   <g id="line2d_28">
    <g clip-path="url(#p7842c8dff4)">
     <use xlink:href="#m0110343a60" x="73.467452" y="16.530361" style="fill: #ff7f0e; stroke: #ff7f0e; stroke-width: 0.5"/>
     <use xlink:href="#m0110343a60" x="77.733002" y="18.061345" style="fill: #ff7f0e; stroke: #ff7f0e; stroke-width: 0.5"/>
     <use xlink:href="#m0110343a60" x="83.393087" y="27.270645" style="fill: #ff7f0e; stroke: #ff7f0e; stroke-width: 0.5"/>
     <use xlink:href="#m0110343a60" x="90.424296" y="41.48191" style="fill: #ff7f0e; stroke: #ff7f0e; stroke-width: 0.5"/>
     <use xlink:href="#m0110343a60" x="98.797362" y="47.233014" style="fill: #ff7f0e; stroke: #ff7f0e; stroke-width: 0.5"/>
     <use xlink:href="#m0110343a60" x="144.918029" y="69.072824" style="fill: #ff7f0e; stroke: #ff7f0e; stroke-width: 0.5"/>
     <use xlink:href="#m0110343a60" x="208.645356" y="116.266079" style="fill: #ff7f0e; stroke: #ff7f0e; stroke-width: 0.5"/>
    </g>
   </g>
   <g id="line2d_29">
    <path d="M 70.613996 8.848316 
L 73.467452 14.908657 
L 77.733002 22.944267 
L 83.393087 31.816672 
L 90.424296 40.452909 
L 98.797362 48.305743 
L 108.477167 55.483106 
L 119.422738 62.43257 
L 131.587252 69.573251 
L 144.918029 77.152979 
L 159.356539 85.272924 
L 174.838397 93.950797 
L 191.293367 103.165843 
L 208.645356 112.881098 
" clip-path="url(#p7842c8dff4)" style="fill: none; stroke-dasharray: 1.5,2.475; stroke-dashoffset: 0; stroke: #ff7f0e; stroke-width: 1.5"/>
   </g>
   <g id="LineCollection_3">
    <path d="M 73.302609 21.786386 
L 73.302609 15.933498 
" clip-path="url(#p7842c8dff4)" style="fill: none; stroke: #2ca02c; stroke-width: 0.5"/>
    <path d="M 82.843611 39.157486 
L 82.843611 33.635807 
" clip-path="url(#p7842c8dff4)" style="fill: none; stroke: #2ca02c; stroke-width: 0.5"/>
    <path d="M 117.444623 69.841112 
L 117.444623 66.118924 
" clip-path="url(#p7842c8dff4)" style="fill: none; stroke: #2ca02c; stroke-width: 0.5"/>
   </g>
   <g id="line2d_30">
    <defs>
     <path id="mf190fce859" d="M 4 0 
L -4 -0 
" style="stroke: #2ca02c; stroke-width: 0.5"/>
    </defs>
    <g clip-path="url(#p7842c8dff4)">
     <use xlink:href="#mf190fce859" x="73.302609" y="21.786386" style="fill: #2ca02c; stroke: #2ca02c; stroke-width: 0.5"/>
     <use xlink:href="#mf190fce859" x="82.843611" y="39.157486" style="fill: #2ca02c; stroke: #2ca02c; stroke-width: 0.5"/>
     <use xlink:href="#mf190fce859" x="117.444623" y="69.841112" style="fill: #2ca02c; stroke: #2ca02c; stroke-width: 0.5"/>
    </g>
   </g>
   <g id="line2d_31">
    <g clip-path="url(#p7842c8dff4)">
     <use xlink:href="#mf190fce859" x="73.302609" y="15.933498" style="fill: #2ca02c; stroke: #2ca02c; stroke-width: 0.5"/>
     <use xlink:href="#mf190fce859" x="82.843611" y="33.635807" style="fill: #2ca02c; stroke: #2ca02c; stroke-width: 0.5"/>
     <use xlink:href="#mf190fce859" x="117.444623" y="66.118924" style="fill: #2ca02c; stroke: #2ca02c; stroke-width: 0.5"/>
    </g>
   </g>
   <g id="line2d_32">
    <path d="M 70.559049 13.765375 
L 73.302609 19.819431 
L 77.403316 27.846919 
L 82.843611 36.711142 
L 89.600081 45.340456 
L 97.643461 53.186847 
L 106.938633 60.355521 
L 117.444623 67.291265 
L 129.114608 74.411469 
L 141.895908 81.963001 
L 155.729994 90.046198 
L 170.552481 98.677726 
L 186.293131 107.835502 
L 202.875853 117.480999 
" clip-path="url(#p7842c8dff4)" style="fill: none; stroke-dasharray: 1.5,2.475; stroke-dashoffset: 0; stroke: #2ca02c; stroke-width: 1.5"/>
   </g>
   <g id="LineCollection_4">
    <path d="M 73.137766 27.261448 
L 73.137766 20.963202 
" clip-path="url(#p7842c8dff4)" style="fill: none; stroke: #d62728; stroke-width: 0.5"/>
    <path d="M 82.294134 44.566789 
L 82.294134 34.972317 
" clip-path="url(#p7842c8dff4)" style="fill: none; stroke: #d62728; stroke-width: 0.5"/>
   </g>
   <g id="line2d_33">
    <defs>
     <path id="mbdc3700580" d="M 4 0 
L -4 -0 
" style="stroke: #d62728; stroke-width: 0.5"/>
    </defs>
    <g clip-path="url(#p7842c8dff4)">
     <use xlink:href="#mbdc3700580" x="73.137766" y="27.261448" style="fill: #d62728; stroke: #d62728; stroke-width: 0.5"/>
     <use xlink:href="#mbdc3700580" x="82.294134" y="44.566789" style="fill: #d62728; stroke: #d62728; stroke-width: 0.5"/>
    </g>
   </g>
   <g id="line2d_34">
    <g clip-path="url(#p7842c8dff4)">
     <use xlink:href="#mbdc3700580" x="73.137766" y="20.963202" style="fill: #d62728; stroke: #d62728; stroke-width: 0.5"/>
     <use xlink:href="#mbdc3700580" x="82.294134" y="34.972317" style="fill: #d62728; stroke: #d62728; stroke-width: 0.5"/>
    </g>
   </g>
   <g id="line2d_35">
    <path d="M 70.504101 17.488568 
L 73.137766 23.535828 
L 77.07363 31.554532 
L 82.294134 40.409897 
L 88.775867 49.031708 
L 96.489561 56.87112 
L 105.400098 64.0304 
L 115.466508 70.951325 
L 126.641963 78.049412 
L 138.873788 85.57048 
L 152.10345 93.613967 
L 166.266564 102.195405 
L 181.292895 111.291281 
L 197.10635 120.861378 
" clip-path="url(#p7842c8dff4)" style="fill: none; stroke-dasharray: 1.5,2.475; stroke-dashoffset: 0; stroke: #d62728; stroke-width: 1.5"/>
   </g>
   <g id="line2d_36"/>
   <g id="line2d_37">
    <defs>
     <path id="m99d1472273" d="M -2 2 
L 2 2 
L 2 -2 
L -2 -2 
z
" style="stroke: #1f77b4; stroke-width: 0.5; stroke-linejoin: miter"/>
    </defs>
    <g clip-path="url(#p7842c8dff4)">
     <use xlink:href="#m99d1472273" x="73.632295" y="13.268197" style="fill: #1f77b4; stroke: #1f77b4; stroke-width: 0.5; stroke-linejoin: miter"/>
     <use xlink:href="#m99d1472273" x="83.942564" y="26.627189" style="fill: #1f77b4; stroke: #1f77b4; stroke-width: 0.5; stroke-linejoin: miter"/>
     <use xlink:href="#m99d1472273" x="99.951263" y="34.230043" style="fill: #1f77b4; stroke: #1f77b4; stroke-width: 0.5; stroke-linejoin: miter"/>
     <use xlink:href="#m99d1472273" x="110.015701" y="41.086256" style="fill: #1f77b4; stroke: #1f77b4; stroke-width: 0.5; stroke-linejoin: miter"/>
     <use xlink:href="#m99d1472273" x="121.400854" y="47.648578" style="fill: #1f77b4; stroke: #1f77b4; stroke-width: 0.5; stroke-linejoin: miter"/>
     <use xlink:href="#m99d1472273" x="147.94015" y="58.130052" style="fill: #1f77b4; stroke: #1f77b4; stroke-width: 0.5; stroke-linejoin: miter"/>
     <use xlink:href="#m99d1472273" x="214.414859" y="97.144297" style="fill: #1f77b4; stroke: #1f77b4; stroke-width: 0.5; stroke-linejoin: miter"/>
    </g>
   </g>
   <g id="line2d_38">
    <defs>
     <path id="m3d23aec99c" d="M 0 2 
C 0.530406 2 1.03916 1.789267 1.414214 1.414214 
C 1.789267 1.03916 2 0.530406 2 0 
C 2 -0.530406 1.789267 -1.03916 1.414214 -1.414214 
C 1.03916 -1.789267 0.530406 -2 0 -2 
C -0.530406 -2 -1.03916 -1.789267 -1.414214 -1.414214 
C -1.789267 -1.03916 -2 -0.530406 -2 0 
C -2 0.530406 -1.789267 1.03916 -1.414214 1.414214 
C -1.03916 1.789267 -0.530406 2 0 2 
z
" style="stroke: #ff7f0e; stroke-width: 0.5"/>
    </defs>
    <g clip-path="url(#p7842c8dff4)">
     <use xlink:href="#m3d23aec99c" x="73.467452" y="18.910733" style="fill: #ff7f0e; stroke: #ff7f0e; stroke-width: 0.5"/>
     <use xlink:href="#m3d23aec99c" x="77.733002" y="20.137843" style="fill: #ff7f0e; stroke: #ff7f0e; stroke-width: 0.5"/>
     <use xlink:href="#m3d23aec99c" x="83.393087" y="29.385099" style="fill: #ff7f0e; stroke: #ff7f0e; stroke-width: 0.5"/>
     <use xlink:href="#m3d23aec99c" x="90.424296" y="43.613549" style="fill: #ff7f0e; stroke: #ff7f0e; stroke-width: 0.5"/>
     <use xlink:href="#m3d23aec99c" x="98.797362" y="49.193033" style="fill: #ff7f0e; stroke: #ff7f0e; stroke-width: 0.5"/>
     <use xlink:href="#m3d23aec99c" x="144.918029" y="71.30015" style="fill: #ff7f0e; stroke: #ff7f0e; stroke-width: 0.5"/>
     <use xlink:href="#m3d23aec99c" x="208.645356" y="119.133257" style="fill: #ff7f0e; stroke: #ff7f0e; stroke-width: 0.5"/>
    </g>
   </g>
   <g id="line2d_39">
    <defs>
     <path id="m7f53c57916" d="M 0 2.828427 
L 1.697056 0 
L 0 -2.828427 
L -1.697056 0 
z
" style="stroke: #2ca02c; stroke-width: 0.5; stroke-linejoin: miter"/>
    </defs>
    <g clip-path="url(#p7842c8dff4)">
     <use xlink:href="#m7f53c57916" x="73.302609" y="18.731452" style="fill: #2ca02c; stroke: #2ca02c; stroke-width: 0.5; stroke-linejoin: miter"/>
     <use xlink:href="#m7f53c57916" x="82.843611" y="36.282271" style="fill: #2ca02c; stroke: #2ca02c; stroke-width: 0.5; stroke-linejoin: miter"/>
     <use xlink:href="#m7f53c57916" x="117.444623" y="67.928012" style="fill: #2ca02c; stroke: #2ca02c; stroke-width: 0.5; stroke-linejoin: miter"/>
    </g>
   </g>
   <g id="line2d_40">
    <defs>
     <path id="m458562889d" d="M -2 2 
L 2 -2 
M -2 -2 
L 2 2 
" style="stroke: #d62728; stroke-width: 0.5"/>
    </defs>
    <g clip-path="url(#p7842c8dff4)">
     <use xlink:href="#m458562889d" x="73.137766" y="23.963567" style="fill: #d62728; stroke: #d62728; stroke-width: 0.5"/>
     <use xlink:href="#m458562889d" x="82.294134" y="39.425019" style="fill: #d62728; stroke: #d62728; stroke-width: 0.5"/>
    </g>
   </g>
   <g id="patch_3">
    <path d="M 65.17 143.471811 
L 65.17 7.2 
" style="fill: none; stroke: #000000; stroke-width: 0.8; stroke-linejoin: miter; stroke-linecap: square"/>
   </g>
   <g id="patch_4">
    <path d="M 229.758031 143.471811 
L 229.758031 7.2 
" style="fill: none; stroke: #000000; stroke-width: 0.8; stroke-linejoin: miter; stroke-linecap: square"/>
   </g>
   <g id="patch_5">
    <path d="M 65.17 143.471811 
L 229.758031 143.471811 
" style="fill: none; stroke: #000000; stroke-width: 0.8; stroke-linejoin: miter; stroke-linecap: square"/>
   </g>
   <g id="patch_6">
    <path d="M 65.17 7.2 
L 229.758031 7.2 
" style="fill: none; stroke: #000000; stroke-width: 0.8; stroke-linejoin: miter; stroke-linecap: square"/>
   </g>
   <g id="text_10">
    <!-- N'=14 -->
    <g transform="translate(197.40978 86.781991)scale(0.09 -0.09)">
     <defs>
      <path id="DejaVuSans-27" d="M 1147 4666 
L 1147 2931 
L 616 2931 
L 616 4666 
L 1147 4666 
z
" transform="scale(0.015625)"/>
      <path id="DejaVuSans-3d" d="M 678 2906 
L 4684 2906 
L 4684 2381 
L 678 2381 
L 678 2906 
z
M 678 1631 
L 4684 1631 
L 4684 1100 
L 678 1100 
L 678 1631 
z
" transform="scale(0.015625)"/>
     </defs>
     <use xlink:href="#DejaVuSans-4e"/>
     <use xlink:href="#DejaVuSans-27" x="74.804688"/>
     <use xlink:href="#DejaVuSans-3d" x="102.294922"/>
     <use xlink:href="#DejaVuSans-31" x="186.083984"/>
     <use xlink:href="#DejaVuSans-34" x="249.707031"/>
    </g>
   </g>
   <g id="legend_1">
    <g id="patch_7">
     <path d="M 158.841 60.103906 
L 225.208031 60.103906 
Q 226.508031 60.103906 226.508031 58.803906 
L 226.508031 11.75 
Q 226.508031 10.45 225.208031 10.45 
L 158.841 10.45 
Q 157.541 10.45 157.541 11.75 
L 157.541 58.803906 
Q 157.541 60.103906 158.841 60.103906 
z
" style="fill: #ffffff; opacity: 0.8; stroke: #cccccc; stroke-linejoin: miter"/>
    </g>
    <g id="LineCollection_5">
     <path d="M 166.641 18.963984 
L 166.641 12.463984 
" style="fill: none; stroke: #1f77b4; stroke-width: 0.5"/>
    </g>
    <g id="line2d_41">
     <g>
      <use xlink:href="#m63d934ff17" x="166.641" y="18.963984" style="fill: #1f77b4; stroke: #1f77b4; stroke-width: 0.5"/>
     </g>
    </g>
    <g id="line2d_42">
     <g>
      <use xlink:href="#m63d934ff17" x="166.641" y="12.463984" style="fill: #1f77b4; stroke: #1f77b4; stroke-width: 0.5"/>
     </g>
    </g>
    <g id="line2d_43"/>
    <g id="line2d_44">
     <g>
      <use xlink:href="#m99d1472273" x="166.641" y="15.713984" style="fill: #1f77b4; stroke: #1f77b4; stroke-width: 0.5; stroke-linejoin: miter"/>
     </g>
    </g>
    <g id="text_11">
     <!-- (v'-v'') = (0-0) -->
     <g transform="translate(178.341 17.988984)scale(0.065 -0.065)">
      <defs>
       <path id="DejaVuSans-2d" d="M 313 2009 
L 1997 2009 
L 1997 1497 
L 313 1497 
L 313 2009 
z
" transform="scale(0.015625)"/>
      </defs>
      <use xlink:href="#DejaVuSans-28"/>
      <use xlink:href="#DejaVuSans-76" x="39.013672"/>
      <use xlink:href="#DejaVuSans-27" x="98.193359"/>
      <use xlink:href="#DejaVuSans-2d" x="125.683594"/>
      <use xlink:href="#DejaVuSans-76" x="159.142578"/>
      <use xlink:href="#DejaVuSans-27" x="218.322266"/>
      <use xlink:href="#DejaVuSans-27" x="245.8125"/>
      <use xlink:href="#DejaVuSans-29" x="273.302734"/>
      <use xlink:href="#DejaVuSans-20" x="312.316406"/>
      <use xlink:href="#DejaVuSans-3d" x="344.103516"/>
      <use xlink:href="#DejaVuSans-20" x="427.892578"/>
      <use xlink:href="#DejaVuSans-28" x="459.679688"/>
      <use xlink:href="#DejaVuSans-30" x="498.693359"/>
      <use xlink:href="#DejaVuSans-2d" x="562.316406"/>
      <use xlink:href="#DejaVuSans-30" x="598.400391"/>
      <use xlink:href="#DejaVuSans-29" x="662.023438"/>
     </g>
    </g>
    <g id="LineCollection_6">
     <path d="M 166.641 28.504766 
L 166.641 22.004766 
" style="fill: none; stroke: #ff7f0e; stroke-width: 0.5"/>
    </g>
    <g id="line2d_45">
     <g>
      <use xlink:href="#m0110343a60" x="166.641" y="28.504766" style="fill: #ff7f0e; stroke: #ff7f0e; stroke-width: 0.5"/>
     </g>
    </g>
    <g id="line2d_46">
     <g>
      <use xlink:href="#m0110343a60" x="166.641" y="22.004766" style="fill: #ff7f0e; stroke: #ff7f0e; stroke-width: 0.5"/>
     </g>
    </g>
    <g id="line2d_47"/>
    <g id="line2d_48">
     <g>
      <use xlink:href="#m3d23aec99c" x="166.641" y="25.254766" style="fill: #ff7f0e; stroke: #ff7f0e; stroke-width: 0.5"/>
     </g>
    </g>
    <g id="text_12">
     <!-- (v'-v'') = (1-1) -->
     <g transform="translate(178.341 27.529766)scale(0.065 -0.065)">
      <use xlink:href="#DejaVuSans-28"/>
      <use xlink:href="#DejaVuSans-76" x="39.013672"/>
      <use xlink:href="#DejaVuSans-27" x="98.193359"/>
      <use xlink:href="#DejaVuSans-2d" x="125.683594"/>
      <use xlink:href="#DejaVuSans-76" x="159.142578"/>
      <use xlink:href="#DejaVuSans-27" x="218.322266"/>
      <use xlink:href="#DejaVuSans-27" x="245.8125"/>
      <use xlink:href="#DejaVuSans-29" x="273.302734"/>
      <use xlink:href="#DejaVuSans-20" x="312.316406"/>
      <use xlink:href="#DejaVuSans-3d" x="344.103516"/>
      <use xlink:href="#DejaVuSans-20" x="427.892578"/>
      <use xlink:href="#DejaVuSans-28" x="459.679688"/>
      <use xlink:href="#DejaVuSans-31" x="498.693359"/>
      <use xlink:href="#DejaVuSans-2d" x="562.316406"/>
      <use xlink:href="#DejaVuSans-31" x="598.400391"/>
      <use xlink:href="#DejaVuSans-29" x="662.023438"/>
     </g>
    </g>
    <g id="LineCollection_7">
     <path d="M 166.641 38.045547 
L 166.641 31.545547 
" style="fill: none; stroke: #2ca02c; stroke-width: 0.5"/>
    </g>
    <g id="line2d_49">
     <g>
      <use xlink:href="#mf190fce859" x="166.641" y="38.045547" style="fill: #2ca02c; stroke: #2ca02c; stroke-width: 0.5"/>
     </g>
    </g>
    <g id="line2d_50">
     <g>
      <use xlink:href="#mf190fce859" x="166.641" y="31.545547" style="fill: #2ca02c; stroke: #2ca02c; stroke-width: 0.5"/>
     </g>
    </g>
    <g id="line2d_51"/>
    <g id="line2d_52">
     <g>
      <use xlink:href="#m7f53c57916" x="166.641" y="34.795547" style="fill: #2ca02c; stroke: #2ca02c; stroke-width: 0.5; stroke-linejoin: miter"/>
     </g>
    </g>
    <g id="text_13">
     <!-- (v'-v'') = (2-2) -->
     <g transform="translate(178.341 37.070547)scale(0.065 -0.065)">
      <use xlink:href="#DejaVuSans-28"/>
      <use xlink:href="#DejaVuSans-76" x="39.013672"/>
      <use xlink:href="#DejaVuSans-27" x="98.193359"/>
      <use xlink:href="#DejaVuSans-2d" x="125.683594"/>
      <use xlink:href="#DejaVuSans-76" x="159.142578"/>
      <use xlink:href="#DejaVuSans-27" x="218.322266"/>
      <use xlink:href="#DejaVuSans-27" x="245.8125"/>
      <use xlink:href="#DejaVuSans-29" x="273.302734"/>
      <use xlink:href="#DejaVuSans-20" x="312.316406"/>
      <use xlink:href="#DejaVuSans-3d" x="344.103516"/>
      <use xlink:href="#DejaVuSans-20" x="427.892578"/>
      <use xlink:href="#DejaVuSans-28" x="459.679688"/>
      <use xlink:href="#DejaVuSans-32" x="498.693359"/>
      <use xlink:href="#DejaVuSans-2d" x="562.316406"/>
      <use xlink:href="#DejaVuSans-32" x="598.400391"/>
      <use xlink:href="#DejaVuSans-29" x="662.023438"/>
     </g>
    </g>
    <g id="LineCollection_8">
     <path d="M 166.641 47.586328 
L 166.641 41.086328 
" style="fill: none; stroke: #d62728; stroke-width: 0.5"/>
    </g>
    <g id="line2d_53">
     <g>
      <use xlink:href="#mbdc3700580" x="166.641" y="47.586328" style="fill: #d62728; stroke: #d62728; stroke-width: 0.5"/>
     </g>
    </g>
    <g id="line2d_54">
     <g>
      <use xlink:href="#mbdc3700580" x="166.641" y="41.086328" style="fill: #d62728; stroke: #d62728; stroke-width: 0.5"/>
     </g>
    </g>
    <g id="line2d_55"/>
    <g id="line2d_56">
     <g>
      <use xlink:href="#m458562889d" x="166.641" y="44.336328" style="fill: #d62728; stroke: #d62728; stroke-width: 0.5"/>
     </g>
    </g>
    <g id="text_14">
     <!-- (v'-v'') = (3-3) -->
     <g transform="translate(178.341 46.611328)scale(0.065 -0.065)">
      <use xlink:href="#DejaVuSans-28"/>
      <use xlink:href="#DejaVuSans-76" x="39.013672"/>
      <use xlink:href="#DejaVuSans-27" x="98.193359"/>
      <use xlink:href="#DejaVuSans-2d" x="125.683594"/>
      <use xlink:href="#DejaVuSans-76" x="159.142578"/>
      <use xlink:href="#DejaVuSans-27" x="218.322266"/>
      <use xlink:href="#DejaVuSans-27" x="245.8125"/>
      <use xlink:href="#DejaVuSans-29" x="273.302734"/>
      <use xlink:href="#DejaVuSans-20" x="312.316406"/>
      <use xlink:href="#DejaVuSans-3d" x="344.103516"/>
      <use xlink:href="#DejaVuSans-20" x="427.892578"/>
      <use xlink:href="#DejaVuSans-28" x="459.679688"/>
      <use xlink:href="#DejaVuSans-33" x="498.693359"/>
      <use xlink:href="#DejaVuSans-2d" x="562.316406"/>
      <use xlink:href="#DejaVuSans-33" x="598.400391"/>
      <use xlink:href="#DejaVuSans-29" x="662.023438"/>
     </g>
    </g>
    <g id="line2d_57">
     <path d="M 160.141 53.877109 
L 166.641 53.877109 
L 173.141 53.877109 
" style="fill: none; stroke-dasharray: 1.5,2.475; stroke-dashoffset: 0; stroke: #000000; stroke-width: 1.5"/>
    </g>
    <g id="text_15">
     <!-- fitted -->
     <g transform="translate(178.341 56.152109)scale(0.065 -0.065)">
      <defs>
       <path id="DejaVuSans-66" d="M 2375 4863 
L 2375 4384 
L 1825 4384 
Q 1516 4384 1395 4259 
Q 1275 4134 1275 3809 
L 1275 3500 
L 2222 3500 
L 2222 3053 
L 1275 3053 
L 1275 0 
L 697 0 
L 697 3053 
L 147 3053 
L 147 3500 
L 697 3500 
L 697 3744 
Q 697 4328 969 4595 
Q 1241 4863 1831 4863 
L 2375 4863 
z
" transform="scale(0.015625)"/>
      </defs>
      <use xlink:href="#DejaVuSans-66"/>
      <use xlink:href="#DejaVuSans-69" x="35.205078"/>
      <use xlink:href="#DejaVuSans-74" x="62.988281"/>
      <use xlink:href="#DejaVuSans-74" x="102.197266"/>
      <use xlink:href="#DejaVuSans-65" x="141.40625"/>
      <use xlink:href="#DejaVuSans-64" x="202.929688"/>
     </g>
    </g>
   </g>
  </g>
 </g>
 <defs>
  <clipPath id="p7842c8dff4">
   <rect x="65.17" y="7.2" width="164.588031" height="136.271811"/>
  </clipPath>
 </defs>
</svg>
