<?xml version="1.0" encoding="utf-8" standalone="no"?>
<!DOCTYPE svg PUBLIC "-//W3C//DTD SVG 1.1//EN"
  "http://www.w3.org/Graphics/SVG/1.1/DTD/svg11.dtd">
<svg xmlns:xlink="http://www.w3.org/1999/xlink" width="247.570844pt" height="182.528061pt" viewBox="0 0 247.570844 182.528061" xmlns="http://www.w3.org/2000/svg" version="1.1">
 <metadata>
  <rdf:RDF xmlns:dc="http://purl.org/dc/elements/1.1/" xmlns:cc="http://creativecommons.org/ns#" xmlns:rdf="http://www.w3.org/1999/02/22-rdf-syntax-ns#">
   <cc:Work>
    <dc:type rdf:resource="http://purl.org/dc/dcmitype/StillImage"/>
    <dc:date>2022-09-02T22:17:41.823733</dc:date>
    <dc:format>image/svg+xml</dc:format>
    <dc:creator>
     <cc:Agent>
      <dc:title>Matplotlib v3.5.2, https://matplotlib.org/</dc:title>
     </cc:Agent>
    </dc:creator>
   </cc:Work>
  </rdf:RDF>
 </metadata>
 <defs>
  <style type="text/css">*{stroke-linejoin: round; stroke-linecap: butt}</style>
 </defs>
 <g id="figure_1">
  <g id="patch_1">
   <path d="M 0 182.528061 
L 247.570844 182.528061 
L 247.570844 0 
L 0 0 
z
" style="fill: #ffffff"/>
  </g>
  <g id="axes_1">
   <g id="patch_2">
    <path d="M 64.65 143.471811 
L 229.238031 143.471811 
L 229.238031 7.2 
L 64.65 7.2 
z
" style="fill: #ffffff"/>
   </g>
   <g id="PolyCollection_1">
    <path d="M 72.487525 13.394173 
L 72.487525 16.096946 
L 74.789657 19.754734 
L 79.371952 26.362484 
L 86.190472 34.609307 
L 95.179311 43.054814 
L 106.250594 50.908003 
L 119.294477 58.29732 
L 134.179146 65.742512 
L 150.750819 73.629245 
L 168.833747 82.102041 
L 188.230211 91.153099 
L 208.72052 100.705578 
L 208.72052 98.002805 
L 208.72052 98.002805 
L 188.230211 88.450326 
L 168.833747 79.399268 
L 150.750819 70.926472 
L 134.179146 63.03974 
L 119.294477 55.594547 
L 106.250594 48.20523 
L 95.179311 40.352041 
L 86.190472 31.906534 
L 79.371952 23.659711 
L 74.789657 17.051961 
L 72.487525 13.394173 
z
" clip-path="url(#p2bef97d50b)" style="fill: #808080; fill-opacity: 0.5"/>
   </g>
   <g id="PolyCollection_2">
    <path d="M 72.487525 34.177226 
L 72.487525 42.058894 
L 74.67064 44.346081 
L 79.0149 48.432746 
L 85.476369 53.59678 
L 93.989139 59.273682 
L 104.465336 65.288031 
L 116.795115 71.747704 
L 130.846664 78.80521 
L 146.4662 86.529988 
L 163.477973 94.903799 
L 181.684264 103.854525 
L 200.865384 113.281799 
L 200.865384 105.400131 
L 200.865384 105.400131 
L 181.684264 95.972856 
L 163.477973 87.022131 
L 146.4662 78.64832 
L 130.846664 70.923542 
L 116.795115 63.866035 
L 104.465336 57.406363 
L 93.989139 51.392013 
L 85.476369 45.715111 
L 79.0149 40.551077 
L 74.67064 36.464413 
L 72.487525 34.177226 
z
" clip-path="url(#p2bef97d50b)" style="fill: #808080; fill-opacity: 0.5"/>
   </g>
   <g id="PolyCollection_3">
    <path d="M 72.487525 53.747544 
L 72.487525 66.505909 
L 74.551623 68.792883 
L 78.657849 72.878097 
L 84.762266 78.038246 
L 92.798967 83.707747 
L 102.680078 89.70927 
L 114.295754 96.147318 
L 127.514182 103.17009 
L 142.18158 110.842362 
L 158.122198 119.140927 
L 175.138317 127.988184 
L 193.010248 137.277638 
L 193.010248 124.519273 
L 193.010248 124.519273 
L 175.138317 115.229818 
L 158.122198 106.382562 
L 142.18158 98.083997 
L 127.514182 90.411724 
L 114.295754 83.388953 
L 102.680078 76.950905 
L 92.798967 70.949382 
L 84.762266 65.279881 
L 78.657849 60.119732 
L 74.551623 56.034518 
L 72.487525 53.747544 
z
" clip-path="url(#p2bef97d50b)" style="fill: #808080; fill-opacity: 0.5"/>
   </g>
   <g id="PolyCollection_4"/>
   <g id="matplotlib.axis_1">
    <g id="xtick_1">
     <g id="line2d_1">
      <defs>
       <path id="m1dbfbd474f" d="M 0 0 
L 0 5 
" style="stroke: #000000; stroke-width: 0.8"/>
      </defs>
      <g>
       <use xlink:href="#m1dbfbd474f" x="72.487525" y="143.471811" style="stroke: #000000; stroke-width: 0.8"/>
      </g>
     </g>
     <g id="text_1">
      <!-- 0.00 -->
      <g transform="translate(61.354713 159.570249)scale(0.1 -0.1)">
       <defs>
        <path id="DejaVuSans-30" d="M 2034 4250 
Q 1547 4250 1301 3770 
Q 1056 3291 1056 2328 
Q 1056 1369 1301 889 
Q 1547 409 2034 409 
Q 2525 409 2770 889 
Q 3016 1369 3016 2328 
Q 3016 3291 2770 3770 
Q 2525 4250 2034 4250 
z
M 2034 4750 
Q 2819 4750 3233 4129 
Q 3647 3509 3647 2328 
Q 3647 1150 3233 529 
Q 2819 -91 2034 -91 
Q 1250 -91 836 529 
Q 422 1150 422 2328 
Q 422 3509 836 4129 
Q 1250 4750 2034 4750 
z
" transform="scale(0.015625)"/>
        <path id="DejaVuSans-2e" d="M 684 794 
L 1344 794 
L 1344 0 
L 684 0 
L 684 794 
z
" transform="scale(0.015625)"/>
       </defs>
       <use xlink:href="#DejaVuSans-30"/>
       <use xlink:href="#DejaVuSans-2e" x="63.623047"/>
       <use xlink:href="#DejaVuSans-30" x="95.410156"/>
       <use xlink:href="#DejaVuSans-30" x="159.033203"/>
      </g>
     </g>
    </g>
    <g id="xtick_2">
     <g id="line2d_2">
      <g>
       <use xlink:href="#m1dbfbd474f" x="111.675152" y="143.471811" style="stroke: #000000; stroke-width: 0.8"/>
      </g>
     </g>
     <g id="text_2">
      <!-- 0.25 -->
      <g transform="translate(100.542339 159.570249)scale(0.1 -0.1)">
       <defs>
        <path id="DejaVuSans-32" d="M 1228 531 
L 3431 531 
L 3431 0 
L 469 0 
L 469 531 
Q 828 903 1448 1529 
Q 2069 2156 2228 2338 
Q 2531 2678 2651 2914 
Q 2772 3150 2772 3378 
Q 2772 3750 2511 3984 
Q 2250 4219 1831 4219 
Q 1534 4219 1204 4116 
Q 875 4013 500 3803 
L 500 4441 
Q 881 4594 1212 4672 
Q 1544 4750 1819 4750 
Q 2544 4750 2975 4387 
Q 3406 4025 3406 3419 
Q 3406 3131 3298 2873 
Q 3191 2616 2906 2266 
Q 2828 2175 2409 1742 
Q 1991 1309 1228 531 
z
" transform="scale(0.015625)"/>
        <path id="DejaVuSans-35" d="M 691 4666 
L 3169 4666 
L 3169 4134 
L 1269 4134 
L 1269 2991 
Q 1406 3038 1543 3061 
Q 1681 3084 1819 3084 
Q 2600 3084 3056 2656 
Q 3513 2228 3513 1497 
Q 3513 744 3044 326 
Q 2575 -91 1722 -91 
Q 1428 -91 1123 -41 
Q 819 9 494 109 
L 494 744 
Q 775 591 1075 516 
Q 1375 441 1709 441 
Q 2250 441 2565 725 
Q 2881 1009 2881 1497 
Q 2881 1984 2565 2268 
Q 2250 2553 1709 2553 
Q 1456 2553 1204 2497 
Q 953 2441 691 2322 
L 691 4666 
z
" transform="scale(0.015625)"/>
       </defs>
       <use xlink:href="#DejaVuSans-30"/>
       <use xlink:href="#DejaVuSans-2e" x="63.623047"/>
       <use xlink:href="#DejaVuSans-32" x="95.410156"/>
       <use xlink:href="#DejaVuSans-35" x="159.033203"/>
      </g>
     </g>
    </g>
    <g id="xtick_3">
     <g id="line2d_3">
      <g>
       <use xlink:href="#m1dbfbd474f" x="150.862778" y="143.471811" style="stroke: #000000; stroke-width: 0.8"/>
      </g>
     </g>
     <g id="text_3">
      <!-- 0.50 -->
      <g transform="translate(139.729966 159.570249)scale(0.1 -0.1)">
       <use xlink:href="#DejaVuSans-30"/>
       <use xlink:href="#DejaVuSans-2e" x="63.623047"/>
       <use xlink:href="#DejaVuSans-35" x="95.410156"/>
       <use xlink:href="#DejaVuSans-30" x="159.033203"/>
      </g>
     </g>
    </g>
    <g id="xtick_4">
     <g id="line2d_4">
      <g>
       <use xlink:href="#m1dbfbd474f" x="190.050405" y="143.471811" style="stroke: #000000; stroke-width: 0.8"/>
      </g>
     </g>
     <g id="text_4">
      <!-- 0.75 -->
      <g transform="translate(178.917592 159.570249)scale(0.1 -0.1)">
       <defs>
        <path id="DejaVuSans-37" d="M 525 4666 
L 3525 4666 
L 3525 4397 
L 1831 0 
L 1172 0 
L 2766 4134 
L 525 4134 
L 525 4666 
z
" transform="scale(0.015625)"/>
       </defs>
       <use xlink:href="#DejaVuSans-30"/>
       <use xlink:href="#DejaVuSans-2e" x="63.623047"/>
       <use xlink:href="#DejaVuSans-37" x="95.410156"/>
       <use xlink:href="#DejaVuSans-35" x="159.033203"/>
      </g>
     </g>
    </g>
    <g id="xtick_5">
     <g id="line2d_5">
      <g>
       <use xlink:href="#m1dbfbd474f" x="229.238031" y="143.471811" style="stroke: #000000; stroke-width: 0.8"/>
      </g>
     </g>
     <g id="text_5">
      <!-- 1.00 -->
      <g transform="translate(218.105219 159.570249)scale(0.1 -0.1)">
       <defs>
        <path id="DejaVuSans-31" d="M 794 531 
L 1825 531 
L 1825 4091 
L 703 3866 
L 703 4441 
L 1819 4666 
L 2450 4666 
L 2450 531 
L 3481 531 
L 3481 0 
L 794 0 
L 794 531 
z
" transform="scale(0.015625)"/>
       </defs>
       <use xlink:href="#DejaVuSans-31"/>
       <use xlink:href="#DejaVuSans-2e" x="63.623047"/>
       <use xlink:href="#DejaVuSans-30" x="95.410156"/>
       <use xlink:href="#DejaVuSans-30" x="159.033203"/>
      </g>
     </g>
    </g>
    <g id="text_6">
     <!-- Rotational Energy [eV] -->
     <g transform="translate(90.497922 173.248374)scale(0.1 -0.1)">
      <defs>
       <path id="DejaVuSans-52" d="M 2841 2188 
Q 3044 2119 3236 1894 
Q 3428 1669 3622 1275 
L 4263 0 
L 3584 0 
L 2988 1197 
Q 2756 1666 2539 1819 
Q 2322 1972 1947 1972 
L 1259 1972 
L 1259 0 
L 628 0 
L 628 4666 
L 2053 4666 
Q 2853 4666 3247 4331 
Q 3641 3997 3641 3322 
Q 3641 2881 3436 2590 
Q 3231 2300 2841 2188 
z
M 1259 4147 
L 1259 2491 
L 2053 2491 
Q 2509 2491 2742 2702 
Q 2975 2913 2975 3322 
Q 2975 3731 2742 3939 
Q 2509 4147 2053 4147 
L 1259 4147 
z
" transform="scale(0.015625)"/>
       <path id="DejaVuSans-6f" d="M 1959 3097 
Q 1497 3097 1228 2736 
Q 959 2375 959 1747 
Q 959 1119 1226 758 
Q 1494 397 1959 397 
Q 2419 397 2687 759 
Q 2956 1122 2956 1747 
Q 2956 2369 2687 2733 
Q 2419 3097 1959 3097 
z
M 1959 3584 
Q 2709 3584 3137 3096 
Q 3566 2609 3566 1747 
Q 3566 888 3137 398 
Q 2709 -91 1959 -91 
Q 1206 -91 779 398 
Q 353 888 353 1747 
Q 353 2609 779 3096 
Q 1206 3584 1959 3584 
z
" transform="scale(0.015625)"/>
       <path id="DejaVuSans-74" d="M 1172 4494 
L 1172 3500 
L 2356 3500 
L 2356 3053 
L 1172 3053 
L 1172 1153 
Q 1172 725 1289 603 
Q 1406 481 1766 481 
L 2356 481 
L 2356 0 
L 1766 0 
Q 1100 0 847 248 
Q 594 497 594 1153 
L 594 3053 
L 172 3053 
L 172 3500 
L 594 3500 
L 594 4494 
L 1172 4494 
z
" transform="scale(0.015625)"/>
       <path id="DejaVuSans-61" d="M 2194 1759 
Q 1497 1759 1228 1600 
Q 959 1441 959 1056 
Q 959 750 1161 570 
Q 1363 391 1709 391 
Q 2188 391 2477 730 
Q 2766 1069 2766 1631 
L 2766 1759 
L 2194 1759 
z
M 3341 1997 
L 3341 0 
L 2766 0 
L 2766 531 
Q 2569 213 2275 61 
Q 1981 -91 1556 -91 
Q 1019 -91 701 211 
Q 384 513 384 1019 
Q 384 1609 779 1909 
Q 1175 2209 1959 2209 
L 2766 2209 
L 2766 2266 
Q 2766 2663 2505 2880 
Q 2244 3097 1772 3097 
Q 1472 3097 1187 3025 
Q 903 2953 641 2809 
L 641 3341 
Q 956 3463 1253 3523 
Q 1550 3584 1831 3584 
Q 2591 3584 2966 3190 
Q 3341 2797 3341 1997 
z
" transform="scale(0.015625)"/>
       <path id="DejaVuSans-69" d="M 603 3500 
L 1178 3500 
L 1178 0 
L 603 0 
L 603 3500 
z
M 603 4863 
L 1178 4863 
L 1178 4134 
L 603 4134 
L 603 4863 
z
" transform="scale(0.015625)"/>
       <path id="DejaVuSans-6e" d="M 3513 2113 
L 3513 0 
L 2938 0 
L 2938 2094 
Q 2938 2591 2744 2837 
Q 2550 3084 2163 3084 
Q 1697 3084 1428 2787 
Q 1159 2491 1159 1978 
L 1159 0 
L 581 0 
L 581 3500 
L 1159 3500 
L 1159 2956 
Q 1366 3272 1645 3428 
Q 1925 3584 2291 3584 
Q 2894 3584 3203 3211 
Q 3513 2838 3513 2113 
z
" transform="scale(0.015625)"/>
       <path id="DejaVuSans-6c" d="M 603 4863 
L 1178 4863 
L 1178 0 
L 603 0 
L 603 4863 
z
" transform="scale(0.015625)"/>
       <path id="DejaVuSans-20" transform="scale(0.015625)"/>
       <path id="DejaVuSans-45" d="M 628 4666 
L 3578 4666 
L 3578 4134 
L 1259 4134 
L 1259 2753 
L 3481 2753 
L 3481 2222 
L 1259 2222 
L 1259 531 
L 3634 531 
L 3634 0 
L 628 0 
L 628 4666 
z
" transform="scale(0.015625)"/>
       <path id="DejaVuSans-65" d="M 3597 1894 
L 3597 1613 
L 953 1613 
Q 991 1019 1311 708 
Q 1631 397 2203 397 
Q 2534 397 2845 478 
Q 3156 559 3463 722 
L 3463 178 
Q 3153 47 2828 -22 
Q 2503 -91 2169 -91 
Q 1331 -91 842 396 
Q 353 884 353 1716 
Q 353 2575 817 3079 
Q 1281 3584 2069 3584 
Q 2775 3584 3186 3129 
Q 3597 2675 3597 1894 
z
M 3022 2063 
Q 3016 2534 2758 2815 
Q 2500 3097 2075 3097 
Q 1594 3097 1305 2825 
Q 1016 2553 972 2059 
L 3022 2063 
z
" transform="scale(0.015625)"/>
       <path id="DejaVuSans-72" d="M 2631 2963 
Q 2534 3019 2420 3045 
Q 2306 3072 2169 3072 
Q 1681 3072 1420 2755 
Q 1159 2438 1159 1844 
L 1159 0 
L 581 0 
L 581 3500 
L 1159 3500 
L 1159 2956 
Q 1341 3275 1631 3429 
Q 1922 3584 2338 3584 
Q 2397 3584 2469 3576 
Q 2541 3569 2628 3553 
L 2631 2963 
z
" transform="scale(0.015625)"/>
       <path id="DejaVuSans-67" d="M 2906 1791 
Q 2906 2416 2648 2759 
Q 2391 3103 1925 3103 
Q 1463 3103 1205 2759 
Q 947 2416 947 1791 
Q 947 1169 1205 825 
Q 1463 481 1925 481 
Q 2391 481 2648 825 
Q 2906 1169 2906 1791 
z
M 3481 434 
Q 3481 -459 3084 -895 
Q 2688 -1331 1869 -1331 
Q 1566 -1331 1297 -1286 
Q 1028 -1241 775 -1147 
L 775 -588 
Q 1028 -725 1275 -790 
Q 1522 -856 1778 -856 
Q 2344 -856 2625 -561 
Q 2906 -266 2906 331 
L 2906 616 
Q 2728 306 2450 153 
Q 2172 0 1784 0 
Q 1141 0 747 490 
Q 353 981 353 1791 
Q 353 2603 747 3093 
Q 1141 3584 1784 3584 
Q 2172 3584 2450 3431 
Q 2728 3278 2906 2969 
L 2906 3500 
L 3481 3500 
L 3481 434 
z
" transform="scale(0.015625)"/>
       <path id="DejaVuSans-79" d="M 2059 -325 
Q 1816 -950 1584 -1140 
Q 1353 -1331 966 -1331 
L 506 -1331 
L 506 -850 
L 844 -850 
Q 1081 -850 1212 -737 
Q 1344 -625 1503 -206 
L 1606 56 
L 191 3500 
L 800 3500 
L 1894 763 
L 2988 3500 
L 3597 3500 
L 2059 -325 
z
" transform="scale(0.015625)"/>
       <path id="DejaVuSans-5b" d="M 550 4863 
L 1875 4863 
L 1875 4416 
L 1125 4416 
L 1125 -397 
L 1875 -397 
L 1875 -844 
L 550 -844 
L 550 4863 
z
" transform="scale(0.015625)"/>
       <path id="DejaVuSans-56" d="M 1831 0 
L 50 4666 
L 709 4666 
L 2188 738 
L 3669 4666 
L 4325 4666 
L 2547 0 
L 1831 0 
z
" transform="scale(0.015625)"/>
       <path id="DejaVuSans-5d" d="M 1947 4863 
L 1947 -844 
L 622 -844 
L 622 -397 
L 1369 -397 
L 1369 4416 
L 622 4416 
L 622 4863 
L 1947 4863 
z
" transform="scale(0.015625)"/>
      </defs>
      <use xlink:href="#DejaVuSans-52"/>
      <use xlink:href="#DejaVuSans-6f" x="64.982422"/>
      <use xlink:href="#DejaVuSans-74" x="126.164062"/>
      <use xlink:href="#DejaVuSans-61" x="165.373047"/>
      <use xlink:href="#DejaVuSans-74" x="226.652344"/>
      <use xlink:href="#DejaVuSans-69" x="265.861328"/>
      <use xlink:href="#DejaVuSans-6f" x="293.644531"/>
      <use xlink:href="#DejaVuSans-6e" x="354.826172"/>
      <use xlink:href="#DejaVuSans-61" x="418.205078"/>
      <use xlink:href="#DejaVuSans-6c" x="479.484375"/>
      <use xlink:href="#DejaVuSans-20" x="507.267578"/>
      <use xlink:href="#DejaVuSans-45" x="539.054688"/>
      <use xlink:href="#DejaVuSans-6e" x="602.238281"/>
      <use xlink:href="#DejaVuSans-65" x="665.617188"/>
      <use xlink:href="#DejaVuSans-72" x="727.140625"/>
      <use xlink:href="#DejaVuSans-67" x="766.503906"/>
      <use xlink:href="#DejaVuSans-79" x="829.980469"/>
      <use xlink:href="#DejaVuSans-20" x="889.160156"/>
      <use xlink:href="#DejaVuSans-5b" x="920.947266"/>
      <use xlink:href="#DejaVuSans-65" x="959.960938"/>
      <use xlink:href="#DejaVuSans-56" x="1021.484375"/>
      <use xlink:href="#DejaVuSans-5d" x="1089.892578"/>
     </g>
    </g>
   </g>
   <g id="matplotlib.axis_2">
    <g id="ytick_1">
     <g id="line2d_6">
      <defs>
       <path id="m4f4e190798" d="M 0 0 
L -5 0 
" style="stroke: #000000; stroke-width: 0.8"/>
      </defs>
      <g>
       <use xlink:href="#m4f4e190798" x="64.65" y="135.439503" style="stroke: #000000; stroke-width: 0.8"/>
      </g>
     </g>
     <g id="text_7">
      <!-- $\mathdefault{10^{-2}}$ -->
      <g transform="translate(32.65 139.238722)scale(0.1 -0.1)">
       <defs>
        <path id="DejaVuSans-2212" d="M 678 2272 
L 4684 2272 
L 4684 1741 
L 678 1741 
L 678 2272 
z
" transform="scale(0.015625)"/>
       </defs>
       <use xlink:href="#DejaVuSans-31" transform="translate(0 0.765625)"/>
       <use xlink:href="#DejaVuSans-30" transform="translate(63.623047 0.765625)"/>
       <use xlink:href="#DejaVuSans-2212" transform="translate(128.203125 39.046875)scale(0.7)"/>
       <use xlink:href="#DejaVuSans-32" transform="translate(186.855469 39.046875)scale(0.7)"/>
      </g>
     </g>
    </g>
    <g id="ytick_2">
     <g id="line2d_7">
      <g>
       <use xlink:href="#m4f4e190798" x="64.65" y="75.017671" style="stroke: #000000; stroke-width: 0.8"/>
      </g>
     </g>
     <g id="text_8">
      <!-- $\mathdefault{10^{-1}}$ -->
      <g transform="translate(32.65 78.81689)scale(0.1 -0.1)">
       <use xlink:href="#DejaVuSans-31" transform="translate(0 0.684375)"/>
       <use xlink:href="#DejaVuSans-30" transform="translate(63.623047 0.684375)"/>
       <use xlink:href="#DejaVuSans-2212" transform="translate(128.203125 38.965625)scale(0.7)"/>
       <use xlink:href="#DejaVuSans-31" transform="translate(186.855469 38.965625)scale(0.7)"/>
      </g>
     </g>
    </g>
    <g id="ytick_3">
     <g id="line2d_8">
      <g>
       <use xlink:href="#m4f4e190798" x="64.65" y="14.595839" style="stroke: #000000; stroke-width: 0.8"/>
      </g>
     </g>
     <g id="text_9">
      <!-- $\mathdefault{10^{0}}$ -->
      <g transform="translate(38.55 18.395058)scale(0.1 -0.1)">
       <use xlink:href="#DejaVuSans-31" transform="translate(0 0.765625)"/>
       <use xlink:href="#DejaVuSans-30" transform="translate(63.623047 0.765625)"/>
       <use xlink:href="#DejaVuSans-30" transform="translate(128.203125 39.046875)scale(0.7)"/>
      </g>
     </g>
    </g>
    <g id="ytick_4">
     <g id="line2d_9">
      <defs>
       <path id="m06f44d6c3c" d="M 0 0 
L -2 0 
" style="stroke: #000000; stroke-width: 0.6"/>
      </defs>
      <g>
       <use xlink:href="#m06f44d6c3c" x="64.65" y="141.294983" style="stroke: #000000; stroke-width: 0.6"/>
      </g>
     </g>
    </g>
    <g id="ytick_5">
     <g id="line2d_10">
      <g>
       <use xlink:href="#m06f44d6c3c" x="64.65" y="138.204254" style="stroke: #000000; stroke-width: 0.6"/>
      </g>
     </g>
    </g>
    <g id="ytick_6">
     <g id="line2d_11">
      <g>
       <use xlink:href="#m06f44d6c3c" x="64.65" y="117.250719" style="stroke: #000000; stroke-width: 0.6"/>
      </g>
     </g>
    </g>
    <g id="ytick_7">
     <g id="line2d_12">
      <g>
       <use xlink:href="#m06f44d6c3c" x="64.65" y="106.610963" style="stroke: #000000; stroke-width: 0.6"/>
      </g>
     </g>
    </g>
    <g id="ytick_8">
     <g id="line2d_13">
      <g>
       <use xlink:href="#m06f44d6c3c" x="64.65" y="99.061935" style="stroke: #000000; stroke-width: 0.6"/>
      </g>
     </g>
    </g>
    <g id="ytick_9">
     <g id="line2d_14">
      <g>
       <use xlink:href="#m06f44d6c3c" x="64.65" y="93.206455" style="stroke: #000000; stroke-width: 0.6"/>
      </g>
     </g>
    </g>
    <g id="ytick_10">
     <g id="line2d_15">
      <g>
       <use xlink:href="#m06f44d6c3c" x="64.65" y="88.422179" style="stroke: #000000; stroke-width: 0.6"/>
      </g>
     </g>
    </g>
    <g id="ytick_11">
     <g id="line2d_16">
      <g>
       <use xlink:href="#m06f44d6c3c" x="64.65" y="84.377131" style="stroke: #000000; stroke-width: 0.6"/>
      </g>
     </g>
    </g>
    <g id="ytick_12">
     <g id="line2d_17">
      <g>
       <use xlink:href="#m06f44d6c3c" x="64.65" y="80.873151" style="stroke: #000000; stroke-width: 0.6"/>
      </g>
     </g>
    </g>
    <g id="ytick_13">
     <g id="line2d_18">
      <g>
       <use xlink:href="#m06f44d6c3c" x="64.65" y="77.782422" style="stroke: #000000; stroke-width: 0.6"/>
      </g>
     </g>
    </g>
    <g id="ytick_14">
     <g id="line2d_19">
      <g>
       <use xlink:href="#m06f44d6c3c" x="64.65" y="56.828887" style="stroke: #000000; stroke-width: 0.6"/>
      </g>
     </g>
    </g>
    <g id="ytick_15">
     <g id="line2d_20">
      <g>
       <use xlink:href="#m06f44d6c3c" x="64.65" y="46.189131" style="stroke: #000000; stroke-width: 0.6"/>
      </g>
     </g>
    </g>
    <g id="ytick_16">
     <g id="line2d_21">
      <g>
       <use xlink:href="#m06f44d6c3c" x="64.65" y="38.640103" style="stroke: #000000; stroke-width: 0.6"/>
      </g>
     </g>
    </g>
    <g id="ytick_17">
     <g id="line2d_22">
      <g>
       <use xlink:href="#m06f44d6c3c" x="64.65" y="32.784623" style="stroke: #000000; stroke-width: 0.6"/>
      </g>
     </g>
    </g>
    <g id="ytick_18">
     <g id="line2d_23">
      <g>
       <use xlink:href="#m06f44d6c3c" x="64.65" y="28.000347" style="stroke: #000000; stroke-width: 0.6"/>
      </g>
     </g>
    </g>
    <g id="ytick_19">
     <g id="line2d_24">
      <g>
       <use xlink:href="#m06f44d6c3c" x="64.65" y="23.955299" style="stroke: #000000; stroke-width: 0.6"/>
      </g>
     </g>
    </g>
    <g id="ytick_20">
     <g id="line2d_25">
      <g>
       <use xlink:href="#m06f44d6c3c" x="64.65" y="20.451319" style="stroke: #000000; stroke-width: 0.6"/>
      </g>
     </g>
    </g>
    <g id="ytick_21">
     <g id="line2d_26">
      <g>
       <use xlink:href="#m06f44d6c3c" x="64.65" y="17.36059" style="stroke: #000000; stroke-width: 0.6"/>
      </g>
     </g>
    </g>
    <g id="text_10">
     <!-- $\mathdefault{\mathrm{\frac{n_{XvN}}{(2N+1)g_{as}^{N}}}}}$ [a.u.] -->
     <g transform="translate(19.55 120.575906)rotate(-90)scale(0.13 -0.13)">
      <defs>
       <path id="DejaVuSans-58" d="M 403 4666 
L 1081 4666 
L 2241 2931 
L 3406 4666 
L 4084 4666 
L 2584 2425 
L 4184 0 
L 3506 0 
L 2194 1984 
L 872 0 
L 191 0 
L 1856 2491 
L 403 4666 
z
" transform="scale(0.015625)"/>
       <path id="DejaVuSans-76" d="M 191 3500 
L 800 3500 
L 1894 563 
L 2988 3500 
L 3597 3500 
L 2284 0 
L 1503 0 
L 191 3500 
z
" transform="scale(0.015625)"/>
       <path id="DejaVuSans-4e" d="M 628 4666 
L 1478 4666 
L 3547 763 
L 3547 4666 
L 4159 4666 
L 4159 0 
L 3309 0 
L 1241 3903 
L 1241 0 
L 628 0 
L 628 4666 
z
" transform="scale(0.015625)"/>
       <path id="DejaVuSans-28" d="M 1984 4856 
Q 1566 4138 1362 3434 
Q 1159 2731 1159 2009 
Q 1159 1288 1364 580 
Q 1569 -128 1984 -844 
L 1484 -844 
Q 1016 -109 783 600 
Q 550 1309 550 2009 
Q 550 2706 781 3412 
Q 1013 4119 1484 4856 
L 1984 4856 
z
" transform="scale(0.015625)"/>
       <path id="DejaVuSans-2b" d="M 2944 4013 
L 2944 2272 
L 4684 2272 
L 4684 1741 
L 2944 1741 
L 2944 0 
L 2419 0 
L 2419 1741 
L 678 1741 
L 678 2272 
L 2419 2272 
L 2419 4013 
L 2944 4013 
z
" transform="scale(0.015625)"/>
       <path id="DejaVuSans-29" d="M 513 4856 
L 1013 4856 
Q 1481 4119 1714 3412 
Q 1947 2706 1947 2009 
Q 1947 1309 1714 600 
Q 1481 -109 1013 -844 
L 513 -844 
Q 928 -128 1133 580 
Q 1338 1288 1338 2009 
Q 1338 2731 1133 3434 
Q 928 4138 513 4856 
z
" transform="scale(0.015625)"/>
       <path id="DejaVuSans-73" d="M 2834 3397 
L 2834 2853 
Q 2591 2978 2328 3040 
Q 2066 3103 1784 3103 
Q 1356 3103 1142 2972 
Q 928 2841 928 2578 
Q 928 2378 1081 2264 
Q 1234 2150 1697 2047 
L 1894 2003 
Q 2506 1872 2764 1633 
Q 3022 1394 3022 966 
Q 3022 478 2636 193 
Q 2250 -91 1575 -91 
Q 1294 -91 989 -36 
Q 684 19 347 128 
L 347 722 
Q 666 556 975 473 
Q 1284 391 1588 391 
Q 1994 391 2212 530 
Q 2431 669 2431 922 
Q 2431 1156 2273 1281 
Q 2116 1406 1581 1522 
L 1381 1569 
Q 847 1681 609 1914 
Q 372 2147 372 2553 
Q 372 3047 722 3315 
Q 1072 3584 1716 3584 
Q 2034 3584 2315 3537 
Q 2597 3491 2834 3397 
z
" transform="scale(0.015625)"/>
       <path id="DejaVuSans-75" d="M 544 1381 
L 544 3500 
L 1119 3500 
L 1119 1403 
Q 1119 906 1312 657 
Q 1506 409 1894 409 
Q 2359 409 2629 706 
Q 2900 1003 2900 1516 
L 2900 3500 
L 3475 3500 
L 3475 0 
L 2900 0 
L 2900 538 
Q 2691 219 2414 64 
Q 2138 -91 1772 -91 
Q 1169 -91 856 284 
Q 544 659 544 1381 
z
M 1991 3584 
L 1991 3584 
z
" transform="scale(0.015625)"/>
      </defs>
      <use xlink:href="#DejaVuSans-6e" transform="translate(119 55.8)scale(0.7)"/>
      <use xlink:href="#DejaVuSans-58" transform="translate(164.035156 44.315625)scale(0.49)"/>
      <use xlink:href="#DejaVuSans-76" transform="translate(197.603027 44.315625)scale(0.49)"/>
      <use xlink:href="#DejaVuSans-4e" transform="translate(226.601074 44.315625)scale(0.49)"/>
      <use xlink:href="#DejaVuSans-28" transform="translate(0 -49.455312)scale(0.7)"/>
      <use xlink:href="#DejaVuSans-32" transform="translate(27.30957 -49.455312)scale(0.7)"/>
      <use xlink:href="#DejaVuSans-4e" transform="translate(71.845703 -49.455312)scale(0.7)"/>
      <use xlink:href="#DejaVuSans-2b" transform="translate(137.84668 -49.455312)scale(0.7)"/>
      <use xlink:href="#DejaVuSans-31" transform="translate(210.136719 -49.455312)scale(0.7)"/>
      <use xlink:href="#DejaVuSans-29" transform="translate(254.672852 -49.455312)scale(0.7)"/>
      <use xlink:href="#DejaVuSans-67" transform="translate(281.982422 -49.455312)scale(0.7)"/>
      <use xlink:href="#DejaVuSans-4e" transform="translate(327.085938 -22.658437)scale(0.49)"/>
      <use xlink:href="#DejaVuSans-61" transform="translate(327.085938 -68.595937)scale(0.49)"/>
      <use xlink:href="#DejaVuSans-73" transform="translate(357.112793 -68.595937)scale(0.49)"/>
      <use xlink:href="#DejaVuSans-20" transform="translate(397.055664 0.51875)"/>
      <use xlink:href="#DejaVuSans-5b" transform="translate(428.842773 0.51875)"/>
      <use xlink:href="#DejaVuSans-61" transform="translate(467.856445 0.51875)"/>
      <use xlink:href="#DejaVuSans-2e" transform="translate(529.135742 0.51875)"/>
      <use xlink:href="#DejaVuSans-75" transform="translate(560.922852 0.51875)"/>
      <use xlink:href="#DejaVuSans-2e" transform="translate(624.301758 0.51875)"/>
      <use xlink:href="#DejaVuSans-5d" transform="translate(656.088867 0.51875)"/>
      <path d="M 0 19.315625 
L 0 25.565625 
L 384.555664 25.565625 
L 384.555664 19.315625 
L 0 19.315625 
z
"/>
     </g>
    </g>
   </g>
   <g id="line2d_27">
    <path d="M 72.487525 14.595839 
L 74.789657 18.253627 
L 79.371952 24.861377 
L 86.190472 33.1082 
L 95.179311 41.553707 
L 106.250594 49.406896 
L 119.294477 56.796213 
L 134.179146 64.241405 
L 150.750819 72.128138 
L 168.833747 80.600934 
L 188.230211 89.651992 
L 208.72052 99.204471 
" clip-path="url(#p2bef97d50b)" style="fill: none; stroke-dasharray: 5.12,1.28,0.8,1.28; stroke-dashoffset: 0; stroke: #000000; stroke-width: 0.8"/>
    <defs>
     <path id="m6a281364b3" d="M 0 2 
C 0.530406 2 1.03916 1.789267 1.414214 1.414214 
C 1.789267 1.03916 2 0.530406 2 0 
C 2 -0.530406 1.789267 -1.03916 1.414214 -1.414214 
C 1.03916 -1.789267 0.530406 -2 0 -2 
C -0.530406 -2 -1.03916 -1.789267 -1.414214 -1.414214 
C -1.789267 -1.03916 -2 -0.530406 -2 0 
C -2 0.530406 -1.789267 1.03916 -1.414214 1.414214 
C -1.03916 1.789267 -0.530406 2 0 2 
z
" style="stroke: #000000; stroke-width: 0.5"/>
    </defs>
    <g clip-path="url(#p2bef97d50b)">
     <use xlink:href="#m6a281364b3" x="72.487525" y="14.595839" style="stroke: #000000; stroke-width: 0.5"/>
     <use xlink:href="#m6a281364b3" x="74.789657" y="18.253627" style="stroke: #000000; stroke-width: 0.5"/>
     <use xlink:href="#m6a281364b3" x="79.371952" y="24.861377" style="stroke: #000000; stroke-width: 0.5"/>
     <use xlink:href="#m6a281364b3" x="86.190472" y="33.1082" style="stroke: #000000; stroke-width: 0.5"/>
     <use xlink:href="#m6a281364b3" x="95.179311" y="41.553707" style="stroke: #000000; stroke-width: 0.5"/>
     <use xlink:href="#m6a281364b3" x="106.250594" y="49.406896" style="stroke: #000000; stroke-width: 0.5"/>
     <use xlink:href="#m6a281364b3" x="119.294477" y="56.796213" style="stroke: #000000; stroke-width: 0.5"/>
     <use xlink:href="#m6a281364b3" x="134.179146" y="64.241405" style="stroke: #000000; stroke-width: 0.5"/>
     <use xlink:href="#m6a281364b3" x="150.750819" y="72.128138" style="stroke: #000000; stroke-width: 0.5"/>
     <use xlink:href="#m6a281364b3" x="168.833747" y="80.600934" style="stroke: #000000; stroke-width: 0.5"/>
     <use xlink:href="#m6a281364b3" x="188.230211" y="89.651992" style="stroke: #000000; stroke-width: 0.5"/>
     <use xlink:href="#m6a281364b3" x="208.72052" y="99.204471" style="stroke: #000000; stroke-width: 0.5"/>
    </g>
   </g>
   <g id="line2d_28">
    <path d="M 72.487525 37.681453 
L 74.67064 39.96864 
L 79.0149 44.055305 
L 85.476369 49.219339 
L 93.989139 54.896241 
L 104.465336 60.910591 
L 116.795115 67.370263 
L 130.846664 74.42777 
L 146.4662 82.152547 
L 163.477973 90.526358 
L 181.684264 99.477084 
L 200.865384 108.904359 
" clip-path="url(#p2bef97d50b)" style="fill: none; stroke-dasharray: 5.12,1.28,0.8,1.28; stroke-dashoffset: 0; stroke: #000000; stroke-width: 0.8"/>
    <defs>
     <path id="mb25d17ecd9" d="M 0 2 
C 0.530406 2 1.03916 1.789267 1.414214 1.414214 
C 1.789267 1.03916 2 0.530406 2 0 
C 2 -0.530406 1.789267 -1.03916 1.414214 -1.414214 
C 1.03916 -1.789267 0.530406 -2 0 -2 
C -0.530406 -2 -1.03916 -1.789267 -1.414214 -1.414214 
C -1.789267 -1.03916 -2 -0.530406 -2 0 
C -2 0.530406 -1.789267 1.03916 -1.414214 1.414214 
C -1.03916 1.789267 -0.530406 2 0 2 
z
" style="stroke: #000000"/>
    </defs>
    <g clip-path="url(#p2bef97d50b)">
     <use xlink:href="#mb25d17ecd9" x="72.487525" y="37.681453" style="fill: #ffffff; stroke: #000000"/>
     <use xlink:href="#mb25d17ecd9" x="74.67064" y="39.96864" style="fill: #ffffff; stroke: #000000"/>
     <use xlink:href="#mb25d17ecd9" x="79.0149" y="44.055305" style="fill: #ffffff; stroke: #000000"/>
     <use xlink:href="#mb25d17ecd9" x="85.476369" y="49.219339" style="fill: #ffffff; stroke: #000000"/>
     <use xlink:href="#mb25d17ecd9" x="93.989139" y="54.896241" style="fill: #ffffff; stroke: #000000"/>
     <use xlink:href="#mb25d17ecd9" x="104.465336" y="60.910591" style="fill: #ffffff; stroke: #000000"/>
     <use xlink:href="#mb25d17ecd9" x="116.795115" y="67.370263" style="fill: #ffffff; stroke: #000000"/>
     <use xlink:href="#mb25d17ecd9" x="130.846664" y="74.42777" style="fill: #ffffff; stroke: #000000"/>
     <use xlink:href="#mb25d17ecd9" x="146.4662" y="82.152547" style="fill: #ffffff; stroke: #000000"/>
     <use xlink:href="#mb25d17ecd9" x="163.477973" y="90.526358" style="fill: #ffffff; stroke: #000000"/>
     <use xlink:href="#mb25d17ecd9" x="181.684264" y="99.477084" style="fill: #ffffff; stroke: #000000"/>
     <use xlink:href="#mb25d17ecd9" x="200.865384" y="108.904359" style="fill: #ffffff; stroke: #000000"/>
    </g>
   </g>
   <g id="line2d_29">
    <path d="M 72.487525 59.419974 
L 74.551623 61.706949 
L 78.657849 65.792163 
L 84.762266 70.952312 
L 92.798967 76.621812 
L 102.680078 82.623335 
L 114.295754 89.061384 
L 127.514182 96.084155 
L 142.18158 103.756427 
L 158.122198 112.054993 
L 175.138317 120.902249 
L 193.010248 130.191703 
" clip-path="url(#p2bef97d50b)" style="fill: none; stroke-dasharray: 5.12,1.28,0.8,1.28; stroke-dashoffset: 0; stroke: #000000; stroke-width: 0.8"/>
    <defs>
     <path id="mc835a5b0a2" d="M -2 2 
L 2 -2 
M -2 -2 
L 2 2 
" style="stroke: #000000"/>
    </defs>
    <g clip-path="url(#p2bef97d50b)">
     <use xlink:href="#mc835a5b0a2" x="72.487525" y="59.419974" style="stroke: #000000"/>
     <use xlink:href="#mc835a5b0a2" x="74.551623" y="61.706949" style="stroke: #000000"/>
     <use xlink:href="#mc835a5b0a2" x="78.657849" y="65.792163" style="stroke: #000000"/>
     <use xlink:href="#mc835a5b0a2" x="84.762266" y="70.952312" style="stroke: #000000"/>
     <use xlink:href="#mc835a5b0a2" x="92.798967" y="76.621812" style="stroke: #000000"/>
     <use xlink:href="#mc835a5b0a2" x="102.680078" y="82.623335" style="stroke: #000000"/>
     <use xlink:href="#mc835a5b0a2" x="114.295754" y="89.061384" style="stroke: #000000"/>
     <use xlink:href="#mc835a5b0a2" x="127.514182" y="96.084155" style="stroke: #000000"/>
     <use xlink:href="#mc835a5b0a2" x="142.18158" y="103.756427" style="stroke: #000000"/>
     <use xlink:href="#mc835a5b0a2" x="158.122198" y="112.054993" style="stroke: #000000"/>
     <use xlink:href="#mc835a5b0a2" x="175.138317" y="120.902249" style="stroke: #000000"/>
     <use xlink:href="#mc835a5b0a2" x="193.010248" y="130.191703" style="stroke: #000000"/>
    </g>
   </g>
   <g id="patch_3">
    <path d="M 64.65 143.471811 
L 64.65 7.2 
" style="fill: none; stroke: #000000; stroke-width: 0.8; stroke-linejoin: miter; stroke-linecap: square"/>
   </g>
   <g id="patch_4">
    <path d="M 229.238031 143.471811 
L 229.238031 7.2 
" style="fill: none; stroke: #000000; stroke-width: 0.8; stroke-linejoin: miter; stroke-linecap: square"/>
   </g>
   <g id="patch_5">
    <path d="M 64.65 143.471811 
L 229.238031 143.471811 
" style="fill: none; stroke: #000000; stroke-width: 0.8; stroke-linejoin: miter; stroke-linecap: square"/>
   </g>
   <g id="patch_6">
    <path d="M 64.65 7.2 
L 229.238031 7.2 
" style="fill: none; stroke: #000000; stroke-width: 0.8; stroke-linejoin: miter; stroke-linecap: square"/>
   </g>
   <g id="text_11">
    <!-- N=0 -->
    <g transform="translate(75.622535 15.94182)scale(0.09 -0.09)">
     <defs>
      <path id="DejaVuSans-3d" d="M 678 2906 
L 4684 2906 
L 4684 2381 
L 678 2381 
L 678 2906 
z
M 678 1631 
L 4684 1631 
L 4684 1100 
L 678 1100 
L 678 1631 
z
" transform="scale(0.015625)"/>
     </defs>
     <use xlink:href="#DejaVuSans-4e"/>
     <use xlink:href="#DejaVuSans-3d" x="74.804688"/>
     <use xlink:href="#DejaVuSans-30" x="158.59375"/>
    </g>
   </g>
   <g id="text_12">
    <!-- N=11 -->
    <g transform="translate(202.668498 89.506423)scale(0.09 -0.09)">
     <use xlink:href="#DejaVuSans-4e"/>
     <use xlink:href="#DejaVuSans-3d" x="74.804688"/>
     <use xlink:href="#DejaVuSans-31" x="158.59375"/>
     <use xlink:href="#DejaVuSans-31" x="222.216797"/>
    </g>
   </g>
   <g id="legend_1">
    <g id="patch_7">
     <path d="M 166.033344 73.9125 
L 222.238031 73.9125 
Q 224.238031 73.9125 224.238031 71.9125 
L 224.238031 14.2 
Q 224.238031 12.2 222.238031 12.2 
L 166.033344 12.2 
Q 164.033344 12.2 164.033344 14.2 
L 164.033344 71.9125 
Q 164.033344 73.9125 166.033344 73.9125 
z
" style="fill: #ffffff; opacity: 0.8; stroke: #cccccc; stroke-linejoin: miter"/>
    </g>
    <g id="line2d_30">
     <path d="M 168.033344 20.298438 
L 178.033344 20.298438 
L 188.033344 20.298438 
" style="fill: none; stroke-dasharray: 5.12,1.28,0.8,1.28; stroke-dashoffset: 0; stroke: #000000; stroke-width: 0.8"/>
     <g>
      <use xlink:href="#m6a281364b3" x="178.033344" y="20.298438" style="stroke: #000000; stroke-width: 0.5"/>
     </g>
    </g>
    <g id="text_13">
     <!-- v=0 -->
     <g transform="translate(196.033344 23.798438)scale(0.1 -0.1)">
      <use xlink:href="#DejaVuSans-76"/>
      <use xlink:href="#DejaVuSans-3d" x="59.179688"/>
      <use xlink:href="#DejaVuSans-30" x="142.96875"/>
     </g>
    </g>
    <g id="line2d_31">
     <path d="M 168.033344 34.976563 
L 178.033344 34.976563 
L 188.033344 34.976563 
" style="fill: none; stroke-dasharray: 5.12,1.28,0.8,1.28; stroke-dashoffset: 0; stroke: #000000; stroke-width: 0.8"/>
     <g>
      <use xlink:href="#mb25d17ecd9" x="178.033344" y="34.976563" style="fill: #ffffff; stroke: #000000"/>
     </g>
    </g>
    <g id="text_14">
     <!-- v=1 -->
     <g transform="translate(196.033344 38.476563)scale(0.1 -0.1)">
      <use xlink:href="#DejaVuSans-76"/>
      <use xlink:href="#DejaVuSans-3d" x="59.179688"/>
      <use xlink:href="#DejaVuSans-31" x="142.96875"/>
     </g>
    </g>
    <g id="line2d_32">
     <path d="M 168.033344 49.654688 
L 178.033344 49.654688 
L 188.033344 49.654688 
" style="fill: none; stroke-dasharray: 5.12,1.28,0.8,1.28; stroke-dashoffset: 0; stroke: #000000; stroke-width: 0.8"/>
     <g>
      <use xlink:href="#mc835a5b0a2" x="178.033344" y="49.654688" style="stroke: #000000"/>
     </g>
    </g>
    <g id="text_15">
     <!-- v=2 -->
     <g transform="translate(196.033344 53.154688)scale(0.1 -0.1)">
      <use xlink:href="#DejaVuSans-76"/>
      <use xlink:href="#DejaVuSans-3d" x="59.179688"/>
      <use xlink:href="#DejaVuSans-32" x="142.96875"/>
     </g>
    </g>
    <g id="patch_8">
     <path d="M 168.033344 67.832813 
L 188.033344 67.832813 
L 188.033344 60.832813 
L 168.033344 60.832813 
z
" style="fill: #808080; fill-opacity: 0.5"/>
    </g>
    <g id="text_16">
     <!-- error -->
     <g transform="translate(196.033344 67.832813)scale(0.1 -0.1)">
      <use xlink:href="#DejaVuSans-65"/>
      <use xlink:href="#DejaVuSans-72" x="61.523438"/>
      <use xlink:href="#DejaVuSans-72" x="100.886719"/>
      <use xlink:href="#DejaVuSans-6f" x="139.75"/>
      <use xlink:href="#DejaVuSans-72" x="200.931641"/>
     </g>
    </g>
   </g>
  </g>
 </g>
 <defs>
  <clipPath id="p2bef97d50b">
   <rect x="64.65" y="7.2" width="164.588031" height="136.271811"/>
  </clipPath>
 </defs>
</svg>
