<?xml version="1.0" encoding="utf-8" standalone="no"?>
<!DOCTYPE svg PUBLIC "-//W3C//DTD SVG 1.1//EN"
  "http://www.w3.org/Graphics/SVG/1.1/DTD/svg11.dtd">
<svg height="179.873415pt" version="1.1" viewBox="0 0 247.570844 179.873415" width="247.570844pt" xmlns="http://www.w3.org/2000/svg" xmlns:xlink="http://www.w3.org/1999/xlink">
 <metadata>
  <rdf:RDF xmlns:cc="http://creativecommons.org/ns#" xmlns:dc="http://purl.org/dc/elements/1.1/" xmlns:rdf="http://www.w3.org/1999/02/22-rdf-syntax-ns#">
   <cc:Work>
    <dc:type rdf:resource="http://purl.org/dc/dcmitype/StillImage"/>
    <dc:date>2022-07-10T16:18:38.416445</dc:date>
    <dc:format>image/svg+xml</dc:format>
    <dc:creator>
     <cc:Agent>
      <dc:title>Matplotlib v3.4.2, https://matplotlib.org/</dc:title>
     </cc:Agent>
    </dc:creator>
   </cc:Work>
  </rdf:RDF>
 </metadata>
 <defs>
  <style type="text/css">*{stroke-linecap:butt;stroke-linejoin:round;}</style>
 </defs>
 <g id="figure_1">
  <g id="patch_1">
   <path d="M 0 179.873415 
L 247.570844 179.873415 
L 247.570844 0 
L 0 0 
z
" style="fill:none;"/>
  </g>
  <g id="axes_1">
   <g id="patch_2">
    <path d="M 64.65 140.817165 
L 229.238031 140.817165 
L 229.238031 7.2 
L 64.65 7.2 
z
" style="fill:#ffffff;"/>
   </g>
   <g id="PolyCollection_1">
    <path clip-path="url(#p2c22de1928)" d="M 72.487525 13.273508 
L 72.487525 14.433595 
L 73.648969 17.162804 
L 75.966533 22.262488 
L 79.429575 29.021182 
L 84.022128 36.479451 
L 89.722905 43.735044 
L 96.505295 50.328726 
L 104.337368 56.350414 
L 113.181869 62.173301 
L 122.996223 68.14588 
L 133.732532 74.472914 
L 145.337576 81.236117 
L 157.752814 88.446918 
L 170.914383 96.084065 
L 184.753097 104.112263 
L 184.753097 102.952176 
L 184.753097 102.952176 
L 170.914383 94.923977 
L 157.752814 87.286831 
L 145.337576 80.076029 
L 133.732532 73.312826 
L 122.996223 66.985793 
L 113.181869 61.013214 
L 104.337368 55.190327 
L 96.505295 49.168638 
L 89.722905 42.574957 
L 84.022128 35.319364 
L 79.429575 27.861094 
L 75.966533 21.1024 
L 73.648969 16.002717 
L 72.487525 13.273508 
z
" style="fill:#808080;fill-opacity:0.5;"/>
   </g>
   <g id="PolyCollection_2">
    <path clip-path="url(#p2c22de1928)" d="M 72.487525 27.791415 
L 72.487525 31.201928 
L 73.607044 33.931061 
L 75.84076 39.030193 
L 79.178029 45.787357 
L 83.602886 53.242963 
L 89.094041 60.495066 
L 95.624887 67.084533 
L 103.16349 73.100487 
L 111.672597 78.914675 
L 121.109633 84.874161 
L 131.4267 91.182522 
L 142.570577 97.92039 
L 154.482725 105.098047 
L 167.099279 112.69294 
L 180.351053 120.668323 
L 180.351053 117.257811 
L 180.351053 117.257811 
L 167.099279 109.282428 
L 154.482725 101.687535 
L 142.570577 94.509878 
L 131.4267 87.772009 
L 121.109633 81.463648 
L 111.672597 75.504162 
L 103.16349 69.689974 
L 95.624887 63.674021 
L 89.094041 57.084553 
L 83.602886 49.83245 
L 79.178029 42.376845 
L 75.84076 35.619681 
L 73.607044 30.520548 
L 72.487525 27.791415 
z
" style="fill:#808080;fill-opacity:0.5;"/>
   </g>
   <g id="PolyCollection_3">
    <path clip-path="url(#p2c22de1928)" d="M 72.487525 41.709364 
L 72.487525 47.277302 
L 73.56512 48.774215 
L 75.714988 51.529645 
L 78.926484 55.156661 
L 83.183643 59.27413 
L 88.465178 63.649047 
L 94.744478 68.237268 
L 101.989612 73.11547 
L 110.163325 78.384381 
L 119.223043 84.111855 
L 129.120867 90.322335 
L 139.803579 97.008164 
L 151.212636 104.143002 
L 163.284175 111.690504 
L 175.94901 119.60852 
L 175.94901 114.040582 
L 175.94901 114.040582 
L 163.284175 106.122566 
L 151.212636 98.575064 
L 139.803579 91.440226 
L 129.120867 84.754397 
L 119.223043 78.543917 
L 110.163325 72.816443 
L 101.989612 67.547532 
L 94.744478 62.66933 
L 88.465178 58.081109 
L 83.183643 53.706192 
L 78.926484 49.588723 
L 75.714988 45.961707 
L 73.56512 43.206277 
L 72.487525 41.709364 
z
" style="fill:#808080;fill-opacity:0.5;"/>
   </g>
   <g id="PolyCollection_4">
    <path clip-path="url(#p2c22de1928)" d="M 72.487525 55.027353 
L 72.487525 62.659717 
L 73.523196 64.156582 
L 75.589215 66.911667 
L 78.674939 70.537719 
L 82.764401 74.653337 
L 87.836315 79.025217 
L 93.864069 83.608659 
L 100.815733 88.479444 
L 108.654053 93.737193 
L 117.336453 99.448569 
L 126.815035 105.636774 
L 137.03658 112.292828 
L 147.942546 119.388943 
L 159.46907 126.887181 
L 171.546967 134.743658 
L 171.546967 127.111294 
L 171.546967 127.111294 
L 159.46907 119.254818 
L 147.942546 111.75658 
L 137.03658 104.660464 
L 126.815035 98.004411 
L 117.336453 91.816205 
L 108.654053 86.10483 
L 100.815733 80.847081 
L 93.864069 75.976295 
L 87.836315 71.392854 
L 82.764401 67.020973 
L 78.674939 62.905356 
L 75.589215 59.279303 
L 73.523196 56.524218 
L 72.487525 55.027353 
z
" style="fill:#808080;fill-opacity:0.5;"/>
   </g>
   <g id="PolyCollection_5"/>
   <g id="matplotlib.axis_1">
    <g id="xtick_1">
     <g id="line2d_1">
      <defs>
       <path d="M 0 0 
L 0 5 
" id="m44b18cf25f" style="stroke:#000000;stroke-width:0.8;"/>
      </defs>
      <g>
       <use style="stroke:#000000;stroke-width:0.8;" x="72.487525" xlink:href="#m44b18cf25f" y="140.817165"/>
      </g>
     </g>
     <g id="text_1">
      <!-- 0.00 -->
      <g transform="translate(61.354713 156.915603)scale(0.1 -0.1)">
       <defs>
        <path d="M 2034 4250 
Q 1547 4250 1301 3770 
Q 1056 3291 1056 2328 
Q 1056 1369 1301 889 
Q 1547 409 2034 409 
Q 2525 409 2770 889 
Q 3016 1369 3016 2328 
Q 3016 3291 2770 3770 
Q 2525 4250 2034 4250 
z
M 2034 4750 
Q 2819 4750 3233 4129 
Q 3647 3509 3647 2328 
Q 3647 1150 3233 529 
Q 2819 -91 2034 -91 
Q 1250 -91 836 529 
Q 422 1150 422 2328 
Q 422 3509 836 4129 
Q 1250 4750 2034 4750 
z
" id="DejaVuSans-30" transform="scale(0.015625)"/>
        <path d="M 684 794 
L 1344 794 
L 1344 0 
L 684 0 
L 684 794 
z
" id="DejaVuSans-2e" transform="scale(0.015625)"/>
       </defs>
       <use xlink:href="#DejaVuSans-30"/>
       <use x="63.623047" xlink:href="#DejaVuSans-2e"/>
       <use x="95.410156" xlink:href="#DejaVuSans-30"/>
       <use x="159.033203" xlink:href="#DejaVuSans-30"/>
      </g>
     </g>
    </g>
    <g id="xtick_2">
     <g id="line2d_2">
      <g>
       <use style="stroke:#000000;stroke-width:0.8;" x="111.675152" xlink:href="#m44b18cf25f" y="140.817165"/>
      </g>
     </g>
     <g id="text_2">
      <!-- 0.25 -->
      <g transform="translate(100.542339 156.915603)scale(0.1 -0.1)">
       <defs>
        <path d="M 1228 531 
L 3431 531 
L 3431 0 
L 469 0 
L 469 531 
Q 828 903 1448 1529 
Q 2069 2156 2228 2338 
Q 2531 2678 2651 2914 
Q 2772 3150 2772 3378 
Q 2772 3750 2511 3984 
Q 2250 4219 1831 4219 
Q 1534 4219 1204 4116 
Q 875 4013 500 3803 
L 500 4441 
Q 881 4594 1212 4672 
Q 1544 4750 1819 4750 
Q 2544 4750 2975 4387 
Q 3406 4025 3406 3419 
Q 3406 3131 3298 2873 
Q 3191 2616 2906 2266 
Q 2828 2175 2409 1742 
Q 1991 1309 1228 531 
z
" id="DejaVuSans-32" transform="scale(0.015625)"/>
        <path d="M 691 4666 
L 3169 4666 
L 3169 4134 
L 1269 4134 
L 1269 2991 
Q 1406 3038 1543 3061 
Q 1681 3084 1819 3084 
Q 2600 3084 3056 2656 
Q 3513 2228 3513 1497 
Q 3513 744 3044 326 
Q 2575 -91 1722 -91 
Q 1428 -91 1123 -41 
Q 819 9 494 109 
L 494 744 
Q 775 591 1075 516 
Q 1375 441 1709 441 
Q 2250 441 2565 725 
Q 2881 1009 2881 1497 
Q 2881 1984 2565 2268 
Q 2250 2553 1709 2553 
Q 1456 2553 1204 2497 
Q 953 2441 691 2322 
L 691 4666 
z
" id="DejaVuSans-35" transform="scale(0.015625)"/>
       </defs>
       <use xlink:href="#DejaVuSans-30"/>
       <use x="63.623047" xlink:href="#DejaVuSans-2e"/>
       <use x="95.410156" xlink:href="#DejaVuSans-32"/>
       <use x="159.033203" xlink:href="#DejaVuSans-35"/>
      </g>
     </g>
    </g>
    <g id="xtick_3">
     <g id="line2d_3">
      <g>
       <use style="stroke:#000000;stroke-width:0.8;" x="150.862778" xlink:href="#m44b18cf25f" y="140.817165"/>
      </g>
     </g>
     <g id="text_3">
      <!-- 0.50 -->
      <g transform="translate(139.729966 156.915603)scale(0.1 -0.1)">
       <use xlink:href="#DejaVuSans-30"/>
       <use x="63.623047" xlink:href="#DejaVuSans-2e"/>
       <use x="95.410156" xlink:href="#DejaVuSans-35"/>
       <use x="159.033203" xlink:href="#DejaVuSans-30"/>
      </g>
     </g>
    </g>
    <g id="xtick_4">
     <g id="line2d_4">
      <g>
       <use style="stroke:#000000;stroke-width:0.8;" x="190.050405" xlink:href="#m44b18cf25f" y="140.817165"/>
      </g>
     </g>
     <g id="text_4">
      <!-- 0.75 -->
      <g transform="translate(178.917592 156.915603)scale(0.1 -0.1)">
       <defs>
        <path d="M 525 4666 
L 3525 4666 
L 3525 4397 
L 1831 0 
L 1172 0 
L 2766 4134 
L 525 4134 
L 525 4666 
z
" id="DejaVuSans-37" transform="scale(0.015625)"/>
       </defs>
       <use xlink:href="#DejaVuSans-30"/>
       <use x="63.623047" xlink:href="#DejaVuSans-2e"/>
       <use x="95.410156" xlink:href="#DejaVuSans-37"/>
       <use x="159.033203" xlink:href="#DejaVuSans-35"/>
      </g>
     </g>
    </g>
    <g id="xtick_5">
     <g id="line2d_5">
      <g>
       <use style="stroke:#000000;stroke-width:0.8;" x="229.238031" xlink:href="#m44b18cf25f" y="140.817165"/>
      </g>
     </g>
     <g id="text_5">
      <!-- 1.00 -->
      <g transform="translate(218.105219 156.915603)scale(0.1 -0.1)">
       <defs>
        <path d="M 794 531 
L 1825 531 
L 1825 4091 
L 703 3866 
L 703 4441 
L 1819 4666 
L 2450 4666 
L 2450 531 
L 3481 531 
L 3481 0 
L 794 0 
L 794 531 
z
" id="DejaVuSans-31" transform="scale(0.015625)"/>
       </defs>
       <use xlink:href="#DejaVuSans-31"/>
       <use x="63.623047" xlink:href="#DejaVuSans-2e"/>
       <use x="95.410156" xlink:href="#DejaVuSans-30"/>
       <use x="159.033203" xlink:href="#DejaVuSans-30"/>
      </g>
     </g>
    </g>
    <g id="text_6">
     <!-- Rotational Energy [eV] -->
     <g transform="translate(90.497922 170.593728)scale(0.1 -0.1)">
      <defs>
       <path d="M 2841 2188 
Q 3044 2119 3236 1894 
Q 3428 1669 3622 1275 
L 4263 0 
L 3584 0 
L 2988 1197 
Q 2756 1666 2539 1819 
Q 2322 1972 1947 1972 
L 1259 1972 
L 1259 0 
L 628 0 
L 628 4666 
L 2053 4666 
Q 2853 4666 3247 4331 
Q 3641 3997 3641 3322 
Q 3641 2881 3436 2590 
Q 3231 2300 2841 2188 
z
M 1259 4147 
L 1259 2491 
L 2053 2491 
Q 2509 2491 2742 2702 
Q 2975 2913 2975 3322 
Q 2975 3731 2742 3939 
Q 2509 4147 2053 4147 
L 1259 4147 
z
" id="DejaVuSans-52" transform="scale(0.015625)"/>
       <path d="M 1959 3097 
Q 1497 3097 1228 2736 
Q 959 2375 959 1747 
Q 959 1119 1226 758 
Q 1494 397 1959 397 
Q 2419 397 2687 759 
Q 2956 1122 2956 1747 
Q 2956 2369 2687 2733 
Q 2419 3097 1959 3097 
z
M 1959 3584 
Q 2709 3584 3137 3096 
Q 3566 2609 3566 1747 
Q 3566 888 3137 398 
Q 2709 -91 1959 -91 
Q 1206 -91 779 398 
Q 353 888 353 1747 
Q 353 2609 779 3096 
Q 1206 3584 1959 3584 
z
" id="DejaVuSans-6f" transform="scale(0.015625)"/>
       <path d="M 1172 4494 
L 1172 3500 
L 2356 3500 
L 2356 3053 
L 1172 3053 
L 1172 1153 
Q 1172 725 1289 603 
Q 1406 481 1766 481 
L 2356 481 
L 2356 0 
L 1766 0 
Q 1100 0 847 248 
Q 594 497 594 1153 
L 594 3053 
L 172 3053 
L 172 3500 
L 594 3500 
L 594 4494 
L 1172 4494 
z
" id="DejaVuSans-74" transform="scale(0.015625)"/>
       <path d="M 2194 1759 
Q 1497 1759 1228 1600 
Q 959 1441 959 1056 
Q 959 750 1161 570 
Q 1363 391 1709 391 
Q 2188 391 2477 730 
Q 2766 1069 2766 1631 
L 2766 1759 
L 2194 1759 
z
M 3341 1997 
L 3341 0 
L 2766 0 
L 2766 531 
Q 2569 213 2275 61 
Q 1981 -91 1556 -91 
Q 1019 -91 701 211 
Q 384 513 384 1019 
Q 384 1609 779 1909 
Q 1175 2209 1959 2209 
L 2766 2209 
L 2766 2266 
Q 2766 2663 2505 2880 
Q 2244 3097 1772 3097 
Q 1472 3097 1187 3025 
Q 903 2953 641 2809 
L 641 3341 
Q 956 3463 1253 3523 
Q 1550 3584 1831 3584 
Q 2591 3584 2966 3190 
Q 3341 2797 3341 1997 
z
" id="DejaVuSans-61" transform="scale(0.015625)"/>
       <path d="M 603 3500 
L 1178 3500 
L 1178 0 
L 603 0 
L 603 3500 
z
M 603 4863 
L 1178 4863 
L 1178 4134 
L 603 4134 
L 603 4863 
z
" id="DejaVuSans-69" transform="scale(0.015625)"/>
       <path d="M 3513 2113 
L 3513 0 
L 2938 0 
L 2938 2094 
Q 2938 2591 2744 2837 
Q 2550 3084 2163 3084 
Q 1697 3084 1428 2787 
Q 1159 2491 1159 1978 
L 1159 0 
L 581 0 
L 581 3500 
L 1159 3500 
L 1159 2956 
Q 1366 3272 1645 3428 
Q 1925 3584 2291 3584 
Q 2894 3584 3203 3211 
Q 3513 2838 3513 2113 
z
" id="DejaVuSans-6e" transform="scale(0.015625)"/>
       <path d="M 603 4863 
L 1178 4863 
L 1178 0 
L 603 0 
L 603 4863 
z
" id="DejaVuSans-6c" transform="scale(0.015625)"/>
       <path id="DejaVuSans-20" transform="scale(0.015625)"/>
       <path d="M 628 4666 
L 3578 4666 
L 3578 4134 
L 1259 4134 
L 1259 2753 
L 3481 2753 
L 3481 2222 
L 1259 2222 
L 1259 531 
L 3634 531 
L 3634 0 
L 628 0 
L 628 4666 
z
" id="DejaVuSans-45" transform="scale(0.015625)"/>
       <path d="M 3597 1894 
L 3597 1613 
L 953 1613 
Q 991 1019 1311 708 
Q 1631 397 2203 397 
Q 2534 397 2845 478 
Q 3156 559 3463 722 
L 3463 178 
Q 3153 47 2828 -22 
Q 2503 -91 2169 -91 
Q 1331 -91 842 396 
Q 353 884 353 1716 
Q 353 2575 817 3079 
Q 1281 3584 2069 3584 
Q 2775 3584 3186 3129 
Q 3597 2675 3597 1894 
z
M 3022 2063 
Q 3016 2534 2758 2815 
Q 2500 3097 2075 3097 
Q 1594 3097 1305 2825 
Q 1016 2553 972 2059 
L 3022 2063 
z
" id="DejaVuSans-65" transform="scale(0.015625)"/>
       <path d="M 2631 2963 
Q 2534 3019 2420 3045 
Q 2306 3072 2169 3072 
Q 1681 3072 1420 2755 
Q 1159 2438 1159 1844 
L 1159 0 
L 581 0 
L 581 3500 
L 1159 3500 
L 1159 2956 
Q 1341 3275 1631 3429 
Q 1922 3584 2338 3584 
Q 2397 3584 2469 3576 
Q 2541 3569 2628 3553 
L 2631 2963 
z
" id="DejaVuSans-72" transform="scale(0.015625)"/>
       <path d="M 2906 1791 
Q 2906 2416 2648 2759 
Q 2391 3103 1925 3103 
Q 1463 3103 1205 2759 
Q 947 2416 947 1791 
Q 947 1169 1205 825 
Q 1463 481 1925 481 
Q 2391 481 2648 825 
Q 2906 1169 2906 1791 
z
M 3481 434 
Q 3481 -459 3084 -895 
Q 2688 -1331 1869 -1331 
Q 1566 -1331 1297 -1286 
Q 1028 -1241 775 -1147 
L 775 -588 
Q 1028 -725 1275 -790 
Q 1522 -856 1778 -856 
Q 2344 -856 2625 -561 
Q 2906 -266 2906 331 
L 2906 616 
Q 2728 306 2450 153 
Q 2172 0 1784 0 
Q 1141 0 747 490 
Q 353 981 353 1791 
Q 353 2603 747 3093 
Q 1141 3584 1784 3584 
Q 2172 3584 2450 3431 
Q 2728 3278 2906 2969 
L 2906 3500 
L 3481 3500 
L 3481 434 
z
" id="DejaVuSans-67" transform="scale(0.015625)"/>
       <path d="M 2059 -325 
Q 1816 -950 1584 -1140 
Q 1353 -1331 966 -1331 
L 506 -1331 
L 506 -850 
L 844 -850 
Q 1081 -850 1212 -737 
Q 1344 -625 1503 -206 
L 1606 56 
L 191 3500 
L 800 3500 
L 1894 763 
L 2988 3500 
L 3597 3500 
L 2059 -325 
z
" id="DejaVuSans-79" transform="scale(0.015625)"/>
       <path d="M 550 4863 
L 1875 4863 
L 1875 4416 
L 1125 4416 
L 1125 -397 
L 1875 -397 
L 1875 -844 
L 550 -844 
L 550 4863 
z
" id="DejaVuSans-5b" transform="scale(0.015625)"/>
       <path d="M 1831 0 
L 50 4666 
L 709 4666 
L 2188 738 
L 3669 4666 
L 4325 4666 
L 2547 0 
L 1831 0 
z
" id="DejaVuSans-56" transform="scale(0.015625)"/>
       <path d="M 1947 4863 
L 1947 -844 
L 622 -844 
L 622 -397 
L 1369 -397 
L 1369 4416 
L 622 4416 
L 622 4863 
L 1947 4863 
z
" id="DejaVuSans-5d" transform="scale(0.015625)"/>
      </defs>
      <use xlink:href="#DejaVuSans-52"/>
      <use x="64.982422" xlink:href="#DejaVuSans-6f"/>
      <use x="126.164062" xlink:href="#DejaVuSans-74"/>
      <use x="165.373047" xlink:href="#DejaVuSans-61"/>
      <use x="226.652344" xlink:href="#DejaVuSans-74"/>
      <use x="265.861328" xlink:href="#DejaVuSans-69"/>
      <use x="293.644531" xlink:href="#DejaVuSans-6f"/>
      <use x="354.826172" xlink:href="#DejaVuSans-6e"/>
      <use x="418.205078" xlink:href="#DejaVuSans-61"/>
      <use x="479.484375" xlink:href="#DejaVuSans-6c"/>
      <use x="507.267578" xlink:href="#DejaVuSans-20"/>
      <use x="539.054688" xlink:href="#DejaVuSans-45"/>
      <use x="602.238281" xlink:href="#DejaVuSans-6e"/>
      <use x="665.617188" xlink:href="#DejaVuSans-65"/>
      <use x="727.140625" xlink:href="#DejaVuSans-72"/>
      <use x="766.503906" xlink:href="#DejaVuSans-67"/>
      <use x="829.980469" xlink:href="#DejaVuSans-79"/>
      <use x="889.160156" xlink:href="#DejaVuSans-20"/>
      <use x="920.947266" xlink:href="#DejaVuSans-5b"/>
      <use x="959.960938" xlink:href="#DejaVuSans-65"/>
      <use x="1021.484375" xlink:href="#DejaVuSans-56"/>
      <use x="1089.892578" xlink:href="#DejaVuSans-5d"/>
     </g>
    </g>
   </g>
   <g id="matplotlib.axis_2">
    <g id="ytick_1">
     <g id="line2d_6">
      <defs>
       <path d="M 0 0 
L -5 0 
" id="mafd397ed41" style="stroke:#000000;stroke-width:0.8;"/>
      </defs>
      <g>
       <use style="stroke:#000000;stroke-width:0.8;" x="64.65" xlink:href="#mafd397ed41" y="78.264467"/>
      </g>
     </g>
     <g id="text_7">
      <!-- $\mathdefault{10^{-1}}$ -->
      <g transform="translate(32.65 82.063686)scale(0.1 -0.1)">
       <defs>
        <path d="M 678 2272 
L 4684 2272 
L 4684 1741 
L 678 1741 
L 678 2272 
z
" id="DejaVuSans-2212" transform="scale(0.015625)"/>
       </defs>
       <use transform="translate(0 0.684375)" xlink:href="#DejaVuSans-31"/>
       <use transform="translate(63.623047 0.684375)" xlink:href="#DejaVuSans-30"/>
       <use transform="translate(128.203125 38.965625)scale(0.7)" xlink:href="#DejaVuSans-2212"/>
       <use transform="translate(186.855469 38.965625)scale(0.7)" xlink:href="#DejaVuSans-31"/>
      </g>
     </g>
    </g>
    <g id="ytick_2">
     <g id="line2d_7">
      <g>
       <use style="stroke:#000000;stroke-width:0.8;" x="64.65" xlink:href="#mafd397ed41" y="13.811829"/>
      </g>
     </g>
     <g id="text_8">
      <!-- $\mathdefault{10^{0}}$ -->
      <g transform="translate(38.55 17.611047)scale(0.1 -0.1)">
       <use transform="translate(0 0.765625)" xlink:href="#DejaVuSans-31"/>
       <use transform="translate(63.623047 0.765625)" xlink:href="#DejaVuSans-30"/>
       <use transform="translate(128.203125 39.046875)scale(0.7)" xlink:href="#DejaVuSans-30"/>
      </g>
     </g>
    </g>
    <g id="ytick_3">
     <g id="line2d_8">
      <defs>
       <path d="M 0 0 
L -2 0 
" id="mb2c362a711" style="stroke:#000000;stroke-width:0.6;"/>
      </defs>
      <g>
       <use style="stroke:#000000;stroke-width:0.6;" x="64.65" xlink:href="#mb2c362a711" y="123.314928"/>
      </g>
     </g>
    </g>
    <g id="ytick_4">
     <g id="line2d_9">
      <g>
       <use style="stroke:#000000;stroke-width:0.6;" x="64.65" xlink:href="#mb2c362a711" y="111.965382"/>
      </g>
     </g>
    </g>
    <g id="ytick_5">
     <g id="line2d_10">
      <g>
       <use style="stroke:#000000;stroke-width:0.6;" x="64.65" xlink:href="#mb2c362a711" y="103.91275"/>
      </g>
     </g>
    </g>
    <g id="ytick_6">
     <g id="line2d_11">
      <g>
       <use style="stroke:#000000;stroke-width:0.6;" x="64.65" xlink:href="#mb2c362a711" y="97.666644"/>
      </g>
     </g>
    </g>
    <g id="ytick_7">
     <g id="line2d_12">
      <g>
       <use style="stroke:#000000;stroke-width:0.6;" x="64.65" xlink:href="#mb2c362a711" y="92.563204"/>
      </g>
     </g>
    </g>
    <g id="ytick_8">
     <g id="line2d_13">
      <g>
       <use style="stroke:#000000;stroke-width:0.6;" x="64.65" xlink:href="#mb2c362a711" y="88.248307"/>
      </g>
     </g>
    </g>
    <g id="ytick_9">
     <g id="line2d_14">
      <g>
       <use style="stroke:#000000;stroke-width:0.6;" x="64.65" xlink:href="#mb2c362a711" y="84.510573"/>
      </g>
     </g>
    </g>
    <g id="ytick_10">
     <g id="line2d_15">
      <g>
       <use style="stroke:#000000;stroke-width:0.6;" x="64.65" xlink:href="#mb2c362a711" y="81.213658"/>
      </g>
     </g>
    </g>
    <g id="ytick_11">
     <g id="line2d_16">
      <g>
       <use style="stroke:#000000;stroke-width:0.6;" x="64.65" xlink:href="#mb2c362a711" y="58.862289"/>
      </g>
     </g>
    </g>
    <g id="ytick_12">
     <g id="line2d_17">
      <g>
       <use style="stroke:#000000;stroke-width:0.6;" x="64.65" xlink:href="#mb2c362a711" y="47.512743"/>
      </g>
     </g>
    </g>
    <g id="ytick_13">
     <g id="line2d_18">
      <g>
       <use style="stroke:#000000;stroke-width:0.6;" x="64.65" xlink:href="#mb2c362a711" y="39.460112"/>
      </g>
     </g>
    </g>
    <g id="ytick_14">
     <g id="line2d_19">
      <g>
       <use style="stroke:#000000;stroke-width:0.6;" x="64.65" xlink:href="#mb2c362a711" y="33.214006"/>
      </g>
     </g>
    </g>
    <g id="ytick_15">
     <g id="line2d_20">
      <g>
       <use style="stroke:#000000;stroke-width:0.6;" x="64.65" xlink:href="#mb2c362a711" y="28.110566"/>
      </g>
     </g>
    </g>
    <g id="ytick_16">
     <g id="line2d_21">
      <g>
       <use style="stroke:#000000;stroke-width:0.6;" x="64.65" xlink:href="#mb2c362a711" y="23.795669"/>
      </g>
     </g>
    </g>
    <g id="ytick_17">
     <g id="line2d_22">
      <g>
       <use style="stroke:#000000;stroke-width:0.6;" x="64.65" xlink:href="#mb2c362a711" y="20.057935"/>
      </g>
     </g>
    </g>
    <g id="ytick_18">
     <g id="line2d_23">
      <g>
       <use style="stroke:#000000;stroke-width:0.6;" x="64.65" xlink:href="#mb2c362a711" y="16.76102"/>
      </g>
     </g>
    </g>
    <g id="text_9">
     <!-- $\mathdefault{\mathrm{\frac{n_{XvN}}{(2N+1)g_{as}^{N}}}}}$ [a.u.] -->
     <g transform="translate(19.55 119.248583)rotate(-90)scale(0.13 -0.13)">
      <defs>
       <path d="M 403 4666 
L 1081 4666 
L 2241 2931 
L 3406 4666 
L 4084 4666 
L 2584 2425 
L 4184 0 
L 3506 0 
L 2194 1984 
L 872 0 
L 191 0 
L 1856 2491 
L 403 4666 
z
" id="DejaVuSans-58" transform="scale(0.015625)"/>
       <path d="M 191 3500 
L 800 3500 
L 1894 563 
L 2988 3500 
L 3597 3500 
L 2284 0 
L 1503 0 
L 191 3500 
z
" id="DejaVuSans-76" transform="scale(0.015625)"/>
       <path d="M 628 4666 
L 1478 4666 
L 3547 763 
L 3547 4666 
L 4159 4666 
L 4159 0 
L 3309 0 
L 1241 3903 
L 1241 0 
L 628 0 
L 628 4666 
z
" id="DejaVuSans-4e" transform="scale(0.015625)"/>
       <path d="M 1984 4856 
Q 1566 4138 1362 3434 
Q 1159 2731 1159 2009 
Q 1159 1288 1364 580 
Q 1569 -128 1984 -844 
L 1484 -844 
Q 1016 -109 783 600 
Q 550 1309 550 2009 
Q 550 2706 781 3412 
Q 1013 4119 1484 4856 
L 1984 4856 
z
" id="DejaVuSans-28" transform="scale(0.015625)"/>
       <path d="M 2944 4013 
L 2944 2272 
L 4684 2272 
L 4684 1741 
L 2944 1741 
L 2944 0 
L 2419 0 
L 2419 1741 
L 678 1741 
L 678 2272 
L 2419 2272 
L 2419 4013 
L 2944 4013 
z
" id="DejaVuSans-2b" transform="scale(0.015625)"/>
       <path d="M 513 4856 
L 1013 4856 
Q 1481 4119 1714 3412 
Q 1947 2706 1947 2009 
Q 1947 1309 1714 600 
Q 1481 -109 1013 -844 
L 513 -844 
Q 928 -128 1133 580 
Q 1338 1288 1338 2009 
Q 1338 2731 1133 3434 
Q 928 4138 513 4856 
z
" id="DejaVuSans-29" transform="scale(0.015625)"/>
       <path d="M 2834 3397 
L 2834 2853 
Q 2591 2978 2328 3040 
Q 2066 3103 1784 3103 
Q 1356 3103 1142 2972 
Q 928 2841 928 2578 
Q 928 2378 1081 2264 
Q 1234 2150 1697 2047 
L 1894 2003 
Q 2506 1872 2764 1633 
Q 3022 1394 3022 966 
Q 3022 478 2636 193 
Q 2250 -91 1575 -91 
Q 1294 -91 989 -36 
Q 684 19 347 128 
L 347 722 
Q 666 556 975 473 
Q 1284 391 1588 391 
Q 1994 391 2212 530 
Q 2431 669 2431 922 
Q 2431 1156 2273 1281 
Q 2116 1406 1581 1522 
L 1381 1569 
Q 847 1681 609 1914 
Q 372 2147 372 2553 
Q 372 3047 722 3315 
Q 1072 3584 1716 3584 
Q 2034 3584 2315 3537 
Q 2597 3491 2834 3397 
z
" id="DejaVuSans-73" transform="scale(0.015625)"/>
       <path d="M 544 1381 
L 544 3500 
L 1119 3500 
L 1119 1403 
Q 1119 906 1312 657 
Q 1506 409 1894 409 
Q 2359 409 2629 706 
Q 2900 1003 2900 1516 
L 2900 3500 
L 3475 3500 
L 3475 0 
L 2900 0 
L 2900 538 
Q 2691 219 2414 64 
Q 2138 -91 1772 -91 
Q 1169 -91 856 284 
Q 544 659 544 1381 
z
M 1991 3584 
L 1991 3584 
z
" id="DejaVuSans-75" transform="scale(0.015625)"/>
      </defs>
      <use transform="translate(119 55.8)scale(0.7)" xlink:href="#DejaVuSans-6e"/>
      <use transform="translate(164.035156 44.315625)scale(0.49)" xlink:href="#DejaVuSans-58"/>
      <use transform="translate(197.603027 44.315625)scale(0.49)" xlink:href="#DejaVuSans-76"/>
      <use transform="translate(226.601074 44.315625)scale(0.49)" xlink:href="#DejaVuSans-4e"/>
      <use transform="translate(0 -49.455312)scale(0.7)" xlink:href="#DejaVuSans-28"/>
      <use transform="translate(27.30957 -49.455312)scale(0.7)" xlink:href="#DejaVuSans-32"/>
      <use transform="translate(71.845703 -49.455312)scale(0.7)" xlink:href="#DejaVuSans-4e"/>
      <use transform="translate(137.84668 -49.455312)scale(0.7)" xlink:href="#DejaVuSans-2b"/>
      <use transform="translate(210.136719 -49.455312)scale(0.7)" xlink:href="#DejaVuSans-31"/>
      <use transform="translate(254.672852 -49.455312)scale(0.7)" xlink:href="#DejaVuSans-29"/>
      <use transform="translate(281.982422 -49.455312)scale(0.7)" xlink:href="#DejaVuSans-67"/>
      <use transform="translate(327.085938 -22.658437)scale(0.49)" xlink:href="#DejaVuSans-4e"/>
      <use transform="translate(327.085938 -68.595937)scale(0.49)" xlink:href="#DejaVuSans-61"/>
      <use transform="translate(357.112793 -68.595937)scale(0.49)" xlink:href="#DejaVuSans-73"/>
      <use transform="translate(397.055664 0.51875)" xlink:href="#DejaVuSans-20"/>
      <use transform="translate(428.842773 0.51875)" xlink:href="#DejaVuSans-5b"/>
      <use transform="translate(467.856445 0.51875)" xlink:href="#DejaVuSans-61"/>
      <use transform="translate(529.135742 0.51875)" xlink:href="#DejaVuSans-2e"/>
      <use transform="translate(560.922852 0.51875)" xlink:href="#DejaVuSans-75"/>
      <use transform="translate(624.301758 0.51875)" xlink:href="#DejaVuSans-2e"/>
      <use transform="translate(656.088867 0.51875)" xlink:href="#DejaVuSans-5d"/>
      <path d="M 0 19.315625 
L 0 25.565625 
L 384.555664 25.565625 
L 384.555664 19.315625 
L 0 19.315625 
z
"/>
     </g>
    </g>
   </g>
   <g id="line2d_24">
    <path clip-path="url(#p2c22de1928)" d="M 72.487525 13.811829 
L 73.648969 16.541038 
L 75.966533 21.640721 
L 79.429575 28.399415 
L 84.022128 35.857685 
L 89.722905 43.113278 
L 96.505295 49.706959 
L 104.337368 55.728648 
L 113.181869 61.551535 
L 122.996223 67.524114 
L 133.732532 73.851148 
L 145.337576 80.61435 
L 157.752814 87.825152 
L 170.914383 95.462298 
L 184.753097 103.490497 
" style="fill:none;stroke:#000000;stroke-dasharray:5.12,1.28,0.8,1.28;stroke-dashoffset:0;stroke-width:0.8;"/>
    <defs>
     <path d="M 0 2 
C 0.530406 2 1.03916 1.789267 1.414214 1.414214 
C 1.789267 1.03916 2 0.530406 2 0 
C 2 -0.530406 1.789267 -1.03916 1.414214 -1.414214 
C 1.03916 -1.789267 0.530406 -2 0 -2 
C -0.530406 -2 -1.03916 -1.789267 -1.414214 -1.414214 
C -1.789267 -1.03916 -2 -0.530406 -2 0 
C -2 0.530406 -1.789267 1.03916 -1.414214 1.414214 
C -1.03916 1.789267 -0.530406 2 0 2 
z
" id="m6abdb0c643" style="stroke:#000000;stroke-width:0.5;"/>
    </defs>
    <g clip-path="url(#p2c22de1928)">
     <use style="stroke:#000000;stroke-width:0.5;" x="72.487525" xlink:href="#m6abdb0c643" y="13.811829"/>
     <use style="stroke:#000000;stroke-width:0.5;" x="73.648969" xlink:href="#m6abdb0c643" y="16.541038"/>
     <use style="stroke:#000000;stroke-width:0.5;" x="75.966533" xlink:href="#m6abdb0c643" y="21.640721"/>
     <use style="stroke:#000000;stroke-width:0.5;" x="79.429575" xlink:href="#m6abdb0c643" y="28.399415"/>
     <use style="stroke:#000000;stroke-width:0.5;" x="84.022128" xlink:href="#m6abdb0c643" y="35.857685"/>
     <use style="stroke:#000000;stroke-width:0.5;" x="89.722905" xlink:href="#m6abdb0c643" y="43.113278"/>
     <use style="stroke:#000000;stroke-width:0.5;" x="96.505295" xlink:href="#m6abdb0c643" y="49.706959"/>
     <use style="stroke:#000000;stroke-width:0.5;" x="104.337368" xlink:href="#m6abdb0c643" y="55.728648"/>
     <use style="stroke:#000000;stroke-width:0.5;" x="113.181869" xlink:href="#m6abdb0c643" y="61.551535"/>
     <use style="stroke:#000000;stroke-width:0.5;" x="122.996223" xlink:href="#m6abdb0c643" y="67.524114"/>
     <use style="stroke:#000000;stroke-width:0.5;" x="133.732532" xlink:href="#m6abdb0c643" y="73.851148"/>
     <use style="stroke:#000000;stroke-width:0.5;" x="145.337576" xlink:href="#m6abdb0c643" y="80.61435"/>
     <use style="stroke:#000000;stroke-width:0.5;" x="157.752814" xlink:href="#m6abdb0c643" y="87.825152"/>
     <use style="stroke:#000000;stroke-width:0.5;" x="170.914383" xlink:href="#m6abdb0c643" y="95.462298"/>
     <use style="stroke:#000000;stroke-width:0.5;" x="184.753097" xlink:href="#m6abdb0c643" y="103.490497"/>
    </g>
   </g>
   <g id="line2d_25">
    <path clip-path="url(#p2c22de1928)" d="M 72.487525 29.374012 
L 73.607044 32.103145 
L 75.84076 37.202278 
L 79.178029 43.959442 
L 83.602886 51.415047 
L 89.094041 58.66715 
L 95.624887 65.256617 
L 103.16349 71.272571 
L 111.672597 77.086759 
L 121.109633 83.046245 
L 131.4267 89.354606 
L 142.570577 96.092475 
L 154.482725 103.270131 
L 167.099279 110.865025 
L 180.351053 118.840408 
" style="fill:none;stroke:#000000;stroke-dasharray:5.12,1.28,0.8,1.28;stroke-dashoffset:0;stroke-width:0.8;"/>
    <defs>
     <path d="M 0 2 
C 0.530406 2 1.03916 1.789267 1.414214 1.414214 
C 1.789267 1.03916 2 0.530406 2 0 
C 2 -0.530406 1.789267 -1.03916 1.414214 -1.414214 
C 1.03916 -1.789267 0.530406 -2 0 -2 
C -0.530406 -2 -1.03916 -1.789267 -1.414214 -1.414214 
C -1.789267 -1.03916 -2 -0.530406 -2 0 
C -2 0.530406 -1.789267 1.03916 -1.414214 1.414214 
C -1.03916 1.789267 -0.530406 2 0 2 
z
" id="mb7ebf3b4b5" style="stroke:#000000;"/>
    </defs>
    <g clip-path="url(#p2c22de1928)">
     <use style="fill:#ffffff;stroke:#000000;" x="72.487525" xlink:href="#mb7ebf3b4b5" y="29.374012"/>
     <use style="fill:#ffffff;stroke:#000000;" x="73.607044" xlink:href="#mb7ebf3b4b5" y="32.103145"/>
     <use style="fill:#ffffff;stroke:#000000;" x="75.84076" xlink:href="#mb7ebf3b4b5" y="37.202278"/>
     <use style="fill:#ffffff;stroke:#000000;" x="79.178029" xlink:href="#mb7ebf3b4b5" y="43.959442"/>
     <use style="fill:#ffffff;stroke:#000000;" x="83.602886" xlink:href="#mb7ebf3b4b5" y="51.415047"/>
     <use style="fill:#ffffff;stroke:#000000;" x="89.094041" xlink:href="#mb7ebf3b4b5" y="58.66715"/>
     <use style="fill:#ffffff;stroke:#000000;" x="95.624887" xlink:href="#mb7ebf3b4b5" y="65.256617"/>
     <use style="fill:#ffffff;stroke:#000000;" x="103.16349" xlink:href="#mb7ebf3b4b5" y="71.272571"/>
     <use style="fill:#ffffff;stroke:#000000;" x="111.672597" xlink:href="#mb7ebf3b4b5" y="77.086759"/>
     <use style="fill:#ffffff;stroke:#000000;" x="121.109633" xlink:href="#mb7ebf3b4b5" y="83.046245"/>
     <use style="fill:#ffffff;stroke:#000000;" x="131.4267" xlink:href="#mb7ebf3b4b5" y="89.354606"/>
     <use style="fill:#ffffff;stroke:#000000;" x="142.570577" xlink:href="#mb7ebf3b4b5" y="96.092475"/>
     <use style="fill:#ffffff;stroke:#000000;" x="154.482725" xlink:href="#mb7ebf3b4b5" y="103.270131"/>
     <use style="fill:#ffffff;stroke:#000000;" x="167.099279" xlink:href="#mb7ebf3b4b5" y="110.865025"/>
     <use style="fill:#ffffff;stroke:#000000;" x="180.351053" xlink:href="#mb7ebf3b4b5" y="118.840408"/>
    </g>
   </g>
   <g id="line2d_26">
    <path clip-path="url(#p2c22de1928)" d="M 72.487525 44.293082 
L 73.56512 45.789995 
L 75.714988 48.545424 
L 78.926484 52.172441 
L 83.183643 56.28991 
L 88.465178 60.664827 
L 94.744478 65.253048 
L 101.989612 70.131249 
L 110.163325 75.40016 
L 119.223043 81.127635 
L 129.120867 87.338115 
L 139.803579 94.023943 
L 151.212636 101.158782 
L 163.284175 108.706283 
L 175.94901 116.624299 
" style="fill:none;stroke:#000000;stroke-dasharray:5.12,1.28,0.8,1.28;stroke-dashoffset:0;stroke-width:0.8;"/>
    <defs>
     <path d="M -2 2 
L 2 -2 
M -2 -2 
L 2 2 
" id="m43d223375b" style="stroke:#000000;"/>
    </defs>
    <g clip-path="url(#p2c22de1928)">
     <use style="stroke:#000000;" x="72.487525" xlink:href="#m43d223375b" y="44.293082"/>
     <use style="stroke:#000000;" x="73.56512" xlink:href="#m43d223375b" y="45.789995"/>
     <use style="stroke:#000000;" x="75.714988" xlink:href="#m43d223375b" y="48.545424"/>
     <use style="stroke:#000000;" x="78.926484" xlink:href="#m43d223375b" y="52.172441"/>
     <use style="stroke:#000000;" x="83.183643" xlink:href="#m43d223375b" y="56.28991"/>
     <use style="stroke:#000000;" x="88.465178" xlink:href="#m43d223375b" y="60.664827"/>
     <use style="stroke:#000000;" x="94.744478" xlink:href="#m43d223375b" y="65.253048"/>
     <use style="stroke:#000000;" x="101.989612" xlink:href="#m43d223375b" y="70.131249"/>
     <use style="stroke:#000000;" x="110.163325" xlink:href="#m43d223375b" y="75.40016"/>
     <use style="stroke:#000000;" x="119.223043" xlink:href="#m43d223375b" y="81.127635"/>
     <use style="stroke:#000000;" x="129.120867" xlink:href="#m43d223375b" y="87.338115"/>
     <use style="stroke:#000000;" x="139.803579" xlink:href="#m43d223375b" y="94.023943"/>
     <use style="stroke:#000000;" x="151.212636" xlink:href="#m43d223375b" y="101.158782"/>
     <use style="stroke:#000000;" x="163.284175" xlink:href="#m43d223375b" y="108.706283"/>
     <use style="stroke:#000000;" x="175.94901" xlink:href="#m43d223375b" y="116.624299"/>
    </g>
   </g>
   <g id="line2d_27">
    <path clip-path="url(#p2c22de1928)" d="M 72.487525 58.569036 
L 73.523196 60.065901 
L 75.589215 62.820986 
L 78.674939 66.447039 
L 82.764401 70.562656 
L 87.836315 74.934537 
L 93.864069 79.517978 
L 100.815733 84.388764 
L 108.654053 89.646513 
L 117.336453 95.357888 
L 126.815035 101.546094 
L 137.03658 108.202147 
L 147.942546 115.298263 
L 159.46907 122.796501 
L 171.546967 130.652977 
" style="fill:none;stroke:#000000;stroke-dasharray:5.12,1.28,0.8,1.28;stroke-dashoffset:0;stroke-width:0.8;"/>
    <defs>
     <path d="M -2 2 
L 2 2 
L 2 -2 
L -2 -2 
z
" id="m1fcf7731e4" style="stroke:#000000;stroke-linejoin:miter;stroke-width:0.5;"/>
    </defs>
    <g clip-path="url(#p2c22de1928)">
     <use style="stroke:#000000;stroke-linejoin:miter;stroke-width:0.5;" x="72.487525" xlink:href="#m1fcf7731e4" y="58.569036"/>
     <use style="stroke:#000000;stroke-linejoin:miter;stroke-width:0.5;" x="73.523196" xlink:href="#m1fcf7731e4" y="60.065901"/>
     <use style="stroke:#000000;stroke-linejoin:miter;stroke-width:0.5;" x="75.589215" xlink:href="#m1fcf7731e4" y="62.820986"/>
     <use style="stroke:#000000;stroke-linejoin:miter;stroke-width:0.5;" x="78.674939" xlink:href="#m1fcf7731e4" y="66.447039"/>
     <use style="stroke:#000000;stroke-linejoin:miter;stroke-width:0.5;" x="82.764401" xlink:href="#m1fcf7731e4" y="70.562656"/>
     <use style="stroke:#000000;stroke-linejoin:miter;stroke-width:0.5;" x="87.836315" xlink:href="#m1fcf7731e4" y="74.934537"/>
     <use style="stroke:#000000;stroke-linejoin:miter;stroke-width:0.5;" x="93.864069" xlink:href="#m1fcf7731e4" y="79.517978"/>
     <use style="stroke:#000000;stroke-linejoin:miter;stroke-width:0.5;" x="100.815733" xlink:href="#m1fcf7731e4" y="84.388764"/>
     <use style="stroke:#000000;stroke-linejoin:miter;stroke-width:0.5;" x="108.654053" xlink:href="#m1fcf7731e4" y="89.646513"/>
     <use style="stroke:#000000;stroke-linejoin:miter;stroke-width:0.5;" x="117.336453" xlink:href="#m1fcf7731e4" y="95.357888"/>
     <use style="stroke:#000000;stroke-linejoin:miter;stroke-width:0.5;" x="126.815035" xlink:href="#m1fcf7731e4" y="101.546094"/>
     <use style="stroke:#000000;stroke-linejoin:miter;stroke-width:0.5;" x="137.03658" xlink:href="#m1fcf7731e4" y="108.202147"/>
     <use style="stroke:#000000;stroke-linejoin:miter;stroke-width:0.5;" x="147.942546" xlink:href="#m1fcf7731e4" y="115.298263"/>
     <use style="stroke:#000000;stroke-linejoin:miter;stroke-width:0.5;" x="159.46907" xlink:href="#m1fcf7731e4" y="122.796501"/>
     <use style="stroke:#000000;stroke-linejoin:miter;stroke-width:0.5;" x="171.546967" xlink:href="#m1fcf7731e4" y="130.652977"/>
    </g>
   </g>
   <g id="patch_3">
    <path d="M 64.65 140.817165 
L 64.65 7.2 
" style="fill:none;stroke:#000000;stroke-linecap:square;stroke-linejoin:miter;stroke-width:0.8;"/>
   </g>
   <g id="patch_4">
    <path d="M 229.238031 140.817165 
L 229.238031 7.2 
" style="fill:none;stroke:#000000;stroke-linecap:square;stroke-linejoin:miter;stroke-width:0.8;"/>
   </g>
   <g id="patch_5">
    <path d="M 64.65 140.817165 
L 229.238031 140.817165 
" style="fill:none;stroke:#000000;stroke-linecap:square;stroke-linejoin:miter;stroke-width:0.8;"/>
   </g>
   <g id="patch_6">
    <path d="M 64.65 7.2 
L 229.238031 7.2 
" style="fill:none;stroke:#000000;stroke-linecap:square;stroke-linejoin:miter;stroke-width:0.8;"/>
   </g>
   <g id="text_10">
    <!-- N=0 -->
    <g transform="translate(75.622535 15.247601)scale(0.09 -0.09)">
     <defs>
      <path d="M 678 2906 
L 4684 2906 
L 4684 2381 
L 678 2381 
L 678 2906 
z
M 678 1631 
L 4684 1631 
L 4684 1100 
L 678 1100 
L 678 1631 
z
" id="DejaVuSans-3d" transform="scale(0.015625)"/>
     </defs>
     <use xlink:href="#DejaVuSans-4e"/>
     <use x="74.804688" xlink:href="#DejaVuSans-3d"/>
     <use x="158.59375" xlink:href="#DejaVuSans-30"/>
    </g>
   </g>
   <g id="text_11">
    <!-- N=14 -->
    <g transform="translate(177.502703 92.696054)scale(0.09 -0.09)">
     <defs>
      <path d="M 2419 4116 
L 825 1625 
L 2419 1625 
L 2419 4116 
z
M 2253 4666 
L 3047 4666 
L 3047 1625 
L 3713 1625 
L 3713 1100 
L 3047 1100 
L 3047 0 
L 2419 0 
L 2419 1100 
L 313 1100 
L 313 1709 
L 2253 4666 
z
" id="DejaVuSans-34" transform="scale(0.015625)"/>
     </defs>
     <use xlink:href="#DejaVuSans-4e"/>
     <use x="74.804688" xlink:href="#DejaVuSans-3d"/>
     <use x="158.59375" xlink:href="#DejaVuSans-31"/>
     <use x="222.216797" xlink:href="#DejaVuSans-34"/>
    </g>
   </g>
   <g id="legend_1">
    <g id="patch_7">
     <path d="M 166.033344 88.590625 
L 222.238031 88.590625 
Q 224.238031 88.590625 224.238031 86.590625 
L 224.238031 14.2 
Q 224.238031 12.2 222.238031 12.2 
L 166.033344 12.2 
Q 164.033344 12.2 164.033344 14.2 
L 164.033344 86.590625 
Q 164.033344 88.590625 166.033344 88.590625 
z
" style="fill:#ffffff;opacity:0.8;stroke:#cccccc;stroke-linejoin:miter;"/>
    </g>
    <g id="line2d_28">
     <path d="M 168.033344 20.298438 
L 188.033344 20.298438 
" style="fill:none;stroke:#000000;stroke-dasharray:5.12,1.28,0.8,1.28;stroke-dashoffset:0;stroke-width:0.8;"/>
    </g>
    <g id="line2d_29">
     <g>
      <use style="stroke:#000000;stroke-width:0.5;" x="178.033344" xlink:href="#m6abdb0c643" y="20.298438"/>
     </g>
    </g>
    <g id="text_12">
     <!-- v=0 -->
     <g transform="translate(196.033344 23.798438)scale(0.1 -0.1)">
      <use xlink:href="#DejaVuSans-76"/>
      <use x="59.179688" xlink:href="#DejaVuSans-3d"/>
      <use x="142.96875" xlink:href="#DejaVuSans-30"/>
     </g>
    </g>
    <g id="line2d_30">
     <path d="M 168.033344 34.976562 
L 188.033344 34.976562 
" style="fill:none;stroke:#000000;stroke-dasharray:5.12,1.28,0.8,1.28;stroke-dashoffset:0;stroke-width:0.8;"/>
    </g>
    <g id="line2d_31">
     <g>
      <use style="fill:#ffffff;stroke:#000000;" x="178.033344" xlink:href="#mb7ebf3b4b5" y="34.976562"/>
     </g>
    </g>
    <g id="text_13">
     <!-- v=1 -->
     <g transform="translate(196.033344 38.476562)scale(0.1 -0.1)">
      <use xlink:href="#DejaVuSans-76"/>
      <use x="59.179688" xlink:href="#DejaVuSans-3d"/>
      <use x="142.96875" xlink:href="#DejaVuSans-31"/>
     </g>
    </g>
    <g id="line2d_32">
     <path d="M 168.033344 49.654688 
L 188.033344 49.654688 
" style="fill:none;stroke:#000000;stroke-dasharray:5.12,1.28,0.8,1.28;stroke-dashoffset:0;stroke-width:0.8;"/>
    </g>
    <g id="line2d_33">
     <g>
      <use style="stroke:#000000;" x="178.033344" xlink:href="#m43d223375b" y="49.654688"/>
     </g>
    </g>
    <g id="text_14">
     <!-- v=2 -->
     <g transform="translate(196.033344 53.154688)scale(0.1 -0.1)">
      <use xlink:href="#DejaVuSans-76"/>
      <use x="59.179688" xlink:href="#DejaVuSans-3d"/>
      <use x="142.96875" xlink:href="#DejaVuSans-32"/>
     </g>
    </g>
    <g id="line2d_34">
     <path d="M 168.033344 64.332813 
L 188.033344 64.332813 
" style="fill:none;stroke:#000000;stroke-dasharray:5.12,1.28,0.8,1.28;stroke-dashoffset:0;stroke-width:0.8;"/>
    </g>
    <g id="line2d_35">
     <g>
      <use style="stroke:#000000;stroke-linejoin:miter;stroke-width:0.5;" x="178.033344" xlink:href="#m1fcf7731e4" y="64.332813"/>
     </g>
    </g>
    <g id="text_15">
     <!-- v=3 -->
     <g transform="translate(196.033344 67.832813)scale(0.1 -0.1)">
      <defs>
       <path d="M 2597 2516 
Q 3050 2419 3304 2112 
Q 3559 1806 3559 1356 
Q 3559 666 3084 287 
Q 2609 -91 1734 -91 
Q 1441 -91 1130 -33 
Q 819 25 488 141 
L 488 750 
Q 750 597 1062 519 
Q 1375 441 1716 441 
Q 2309 441 2620 675 
Q 2931 909 2931 1356 
Q 2931 1769 2642 2001 
Q 2353 2234 1838 2234 
L 1294 2234 
L 1294 2753 
L 1863 2753 
Q 2328 2753 2575 2939 
Q 2822 3125 2822 3475 
Q 2822 3834 2567 4026 
Q 2313 4219 1838 4219 
Q 1578 4219 1281 4162 
Q 984 4106 628 3988 
L 628 4550 
Q 988 4650 1302 4700 
Q 1616 4750 1894 4750 
Q 2613 4750 3031 4423 
Q 3450 4097 3450 3541 
Q 3450 3153 3228 2886 
Q 3006 2619 2597 2516 
z
" id="DejaVuSans-33" transform="scale(0.015625)"/>
      </defs>
      <use xlink:href="#DejaVuSans-76"/>
      <use x="59.179688" xlink:href="#DejaVuSans-3d"/>
      <use x="142.96875" xlink:href="#DejaVuSans-33"/>
     </g>
    </g>
    <g id="patch_8">
     <path d="M 168.033344 82.510938 
L 188.033344 82.510938 
L 188.033344 75.510938 
L 168.033344 75.510938 
z
" style="fill:#808080;opacity:0.5;"/>
    </g>
    <g id="text_16">
     <!-- error -->
     <g transform="translate(196.033344 82.510938)scale(0.1 -0.1)">
      <use xlink:href="#DejaVuSans-65"/>
      <use x="61.523438" xlink:href="#DejaVuSans-72"/>
      <use x="100.886719" xlink:href="#DejaVuSans-72"/>
      <use x="139.75" xlink:href="#DejaVuSans-6f"/>
      <use x="200.931641" xlink:href="#DejaVuSans-72"/>
     </g>
    </g>
   </g>
  </g>
 </g>
 <defs>
  <clipPath id="p2c22de1928">
   <rect height="133.617165" width="164.588031" x="64.65" y="7.2"/>
  </clipPath>
 </defs>
</svg>
