<?xml version="1.0" encoding="utf-8" standalone="no"?>
<!DOCTYPE svg PUBLIC "-//W3C//DTD SVG 1.1//EN"
  "http://www.w3.org/Graphics/SVG/1.1/DTD/svg11.dtd">
<svg height="179.873415pt" version="1.1" viewBox="0 0 247.570844 179.873415" width="247.570844pt" xmlns="http://www.w3.org/2000/svg" xmlns:xlink="http://www.w3.org/1999/xlink">
 <metadata>
  <rdf:RDF xmlns:cc="http://creativecommons.org/ns#" xmlns:dc="http://purl.org/dc/elements/1.1/" xmlns:rdf="http://www.w3.org/1999/02/22-rdf-syntax-ns#">
   <cc:Work>
    <dc:type rdf:resource="http://purl.org/dc/dcmitype/StillImage"/>
    <dc:date>2022-07-10T16:18:47.306575</dc:date>
    <dc:format>image/svg+xml</dc:format>
    <dc:creator>
     <cc:Agent>
      <dc:title>Matplotlib v3.4.2, https://matplotlib.org/</dc:title>
     </cc:Agent>
    </dc:creator>
   </cc:Work>
  </rdf:RDF>
 </metadata>
 <defs>
  <style type="text/css">*{stroke-linecap:butt;stroke-linejoin:round;}</style>
 </defs>
 <g id="figure_1">
  <g id="patch_1">
   <path d="M 0 179.873415 
L 247.570844 179.873415 
L 247.570844 0 
L 0 0 
z
" style="fill:none;"/>
  </g>
  <g id="axes_1">
   <g id="patch_2">
    <path d="M 64.65 140.817165 
L 229.238031 140.817165 
L 229.238031 7.2 
L 64.65 7.2 
z
" style="fill:#ffffff;"/>
   </g>
   <g id="PolyCollection_1">
    <path clip-path="url(#p788b7b1550)" d="M 72.487525 13.273508 
L 72.487525 15.923629 
L 74.789657 19.510161 
L 79.371952 25.989189 
L 86.190472 34.075359 
L 95.179311 42.356344 
L 106.250594 50.056548 
L 119.294477 57.301917 
L 134.179146 64.602074 
L 150.750819 72.335169 
L 168.833747 80.64291 
L 188.230211 89.517649 
L 208.72052 98.88404 
L 208.72052 96.233919 
L 208.72052 96.233919 
L 188.230211 86.867528 
L 168.833747 77.992789 
L 150.750819 69.685048 
L 134.179146 61.951952 
L 119.294477 54.651796 
L 106.250594 47.406427 
L 95.179311 39.706222 
L 86.190472 31.425238 
L 79.371952 23.339068 
L 74.789657 16.86004 
L 72.487525 13.273508 
z
" style="fill:#808080;fill-opacity:0.5;"/>
   </g>
   <g id="PolyCollection_2">
    <path clip-path="url(#p788b7b1550)" d="M 72.487525 33.651695 
L 72.487525 41.379825 
L 74.67064 43.622456 
L 79.0149 47.629511 
L 85.476369 52.692946 
L 93.989139 58.259259 
L 104.465336 64.156446 
L 116.795115 70.490281 
L 130.846664 77.410304 
L 146.4662 84.984599 
L 163.477973 93.195284 
L 181.684264 101.971645 
L 200.865384 111.215271 
L 200.865384 103.487141 
L 200.865384 103.487141 
L 181.684264 94.243515 
L 163.477973 85.467154 
L 146.4662 77.256469 
L 130.846664 69.682174 
L 116.795115 62.762151 
L 104.465336 56.428317 
L 93.989139 50.53113 
L 85.476369 44.964817 
L 79.0149 39.901381 
L 74.67064 35.894326 
L 72.487525 33.651695 
z
" style="fill:#808080;fill-opacity:0.5;"/>
   </g>
   <g id="PolyCollection_3">
    <path clip-path="url(#p788b7b1550)" d="M 72.487525 52.840773 
L 72.487525 65.350599 
L 74.551623 67.593022 
L 78.657849 71.598654 
L 84.762266 76.658281 
L 92.798967 82.217336 
L 102.680078 88.101947 
L 114.295754 94.414578 
L 127.514182 101.300542 
L 142.18158 108.823355 
L 158.122198 116.96026 
L 175.138317 125.635167 
L 193.010248 134.743658 
L 193.010248 122.233832 
L 193.010248 122.233832 
L 175.138317 113.125341 
L 158.122198 104.450434 
L 142.18158 96.313529 
L 127.514182 88.790716 
L 114.295754 81.904752 
L 102.680078 75.59212 
L 92.798967 69.70751 
L 84.762266 64.148454 
L 78.657849 59.088828 
L 74.551623 55.083196 
L 72.487525 52.840773 
z
" style="fill:#808080;fill-opacity:0.5;"/>
   </g>
   <g id="PolyCollection_4"/>
   <g id="matplotlib.axis_1">
    <g id="xtick_1">
     <g id="line2d_1">
      <defs>
       <path d="M 0 0 
L 0 5 
" id="m3873dad35e" style="stroke:#000000;stroke-width:0.8;"/>
      </defs>
      <g>
       <use style="stroke:#000000;stroke-width:0.8;" x="72.487525" xlink:href="#m3873dad35e" y="140.817165"/>
      </g>
     </g>
     <g id="text_1">
      <!-- 0.00 -->
      <g transform="translate(61.354713 156.915603)scale(0.1 -0.1)">
       <defs>
        <path d="M 2034 4250 
Q 1547 4250 1301 3770 
Q 1056 3291 1056 2328 
Q 1056 1369 1301 889 
Q 1547 409 2034 409 
Q 2525 409 2770 889 
Q 3016 1369 3016 2328 
Q 3016 3291 2770 3770 
Q 2525 4250 2034 4250 
z
M 2034 4750 
Q 2819 4750 3233 4129 
Q 3647 3509 3647 2328 
Q 3647 1150 3233 529 
Q 2819 -91 2034 -91 
Q 1250 -91 836 529 
Q 422 1150 422 2328 
Q 422 3509 836 4129 
Q 1250 4750 2034 4750 
z
" id="DejaVuSans-30" transform="scale(0.015625)"/>
        <path d="M 684 794 
L 1344 794 
L 1344 0 
L 684 0 
L 684 794 
z
" id="DejaVuSans-2e" transform="scale(0.015625)"/>
       </defs>
       <use xlink:href="#DejaVuSans-30"/>
       <use x="63.623047" xlink:href="#DejaVuSans-2e"/>
       <use x="95.410156" xlink:href="#DejaVuSans-30"/>
       <use x="159.033203" xlink:href="#DejaVuSans-30"/>
      </g>
     </g>
    </g>
    <g id="xtick_2">
     <g id="line2d_2">
      <g>
       <use style="stroke:#000000;stroke-width:0.8;" x="111.675152" xlink:href="#m3873dad35e" y="140.817165"/>
      </g>
     </g>
     <g id="text_2">
      <!-- 0.25 -->
      <g transform="translate(100.542339 156.915603)scale(0.1 -0.1)">
       <defs>
        <path d="M 1228 531 
L 3431 531 
L 3431 0 
L 469 0 
L 469 531 
Q 828 903 1448 1529 
Q 2069 2156 2228 2338 
Q 2531 2678 2651 2914 
Q 2772 3150 2772 3378 
Q 2772 3750 2511 3984 
Q 2250 4219 1831 4219 
Q 1534 4219 1204 4116 
Q 875 4013 500 3803 
L 500 4441 
Q 881 4594 1212 4672 
Q 1544 4750 1819 4750 
Q 2544 4750 2975 4387 
Q 3406 4025 3406 3419 
Q 3406 3131 3298 2873 
Q 3191 2616 2906 2266 
Q 2828 2175 2409 1742 
Q 1991 1309 1228 531 
z
" id="DejaVuSans-32" transform="scale(0.015625)"/>
        <path d="M 691 4666 
L 3169 4666 
L 3169 4134 
L 1269 4134 
L 1269 2991 
Q 1406 3038 1543 3061 
Q 1681 3084 1819 3084 
Q 2600 3084 3056 2656 
Q 3513 2228 3513 1497 
Q 3513 744 3044 326 
Q 2575 -91 1722 -91 
Q 1428 -91 1123 -41 
Q 819 9 494 109 
L 494 744 
Q 775 591 1075 516 
Q 1375 441 1709 441 
Q 2250 441 2565 725 
Q 2881 1009 2881 1497 
Q 2881 1984 2565 2268 
Q 2250 2553 1709 2553 
Q 1456 2553 1204 2497 
Q 953 2441 691 2322 
L 691 4666 
z
" id="DejaVuSans-35" transform="scale(0.015625)"/>
       </defs>
       <use xlink:href="#DejaVuSans-30"/>
       <use x="63.623047" xlink:href="#DejaVuSans-2e"/>
       <use x="95.410156" xlink:href="#DejaVuSans-32"/>
       <use x="159.033203" xlink:href="#DejaVuSans-35"/>
      </g>
     </g>
    </g>
    <g id="xtick_3">
     <g id="line2d_3">
      <g>
       <use style="stroke:#000000;stroke-width:0.8;" x="150.862778" xlink:href="#m3873dad35e" y="140.817165"/>
      </g>
     </g>
     <g id="text_3">
      <!-- 0.50 -->
      <g transform="translate(139.729966 156.915603)scale(0.1 -0.1)">
       <use xlink:href="#DejaVuSans-30"/>
       <use x="63.623047" xlink:href="#DejaVuSans-2e"/>
       <use x="95.410156" xlink:href="#DejaVuSans-35"/>
       <use x="159.033203" xlink:href="#DejaVuSans-30"/>
      </g>
     </g>
    </g>
    <g id="xtick_4">
     <g id="line2d_4">
      <g>
       <use style="stroke:#000000;stroke-width:0.8;" x="190.050405" xlink:href="#m3873dad35e" y="140.817165"/>
      </g>
     </g>
     <g id="text_4">
      <!-- 0.75 -->
      <g transform="translate(178.917592 156.915603)scale(0.1 -0.1)">
       <defs>
        <path d="M 525 4666 
L 3525 4666 
L 3525 4397 
L 1831 0 
L 1172 0 
L 2766 4134 
L 525 4134 
L 525 4666 
z
" id="DejaVuSans-37" transform="scale(0.015625)"/>
       </defs>
       <use xlink:href="#DejaVuSans-30"/>
       <use x="63.623047" xlink:href="#DejaVuSans-2e"/>
       <use x="95.410156" xlink:href="#DejaVuSans-37"/>
       <use x="159.033203" xlink:href="#DejaVuSans-35"/>
      </g>
     </g>
    </g>
    <g id="xtick_5">
     <g id="line2d_5">
      <g>
       <use style="stroke:#000000;stroke-width:0.8;" x="229.238031" xlink:href="#m3873dad35e" y="140.817165"/>
      </g>
     </g>
     <g id="text_5">
      <!-- 1.00 -->
      <g transform="translate(218.105219 156.915603)scale(0.1 -0.1)">
       <defs>
        <path d="M 794 531 
L 1825 531 
L 1825 4091 
L 703 3866 
L 703 4441 
L 1819 4666 
L 2450 4666 
L 2450 531 
L 3481 531 
L 3481 0 
L 794 0 
L 794 531 
z
" id="DejaVuSans-31" transform="scale(0.015625)"/>
       </defs>
       <use xlink:href="#DejaVuSans-31"/>
       <use x="63.623047" xlink:href="#DejaVuSans-2e"/>
       <use x="95.410156" xlink:href="#DejaVuSans-30"/>
       <use x="159.033203" xlink:href="#DejaVuSans-30"/>
      </g>
     </g>
    </g>
    <g id="text_6">
     <!-- Rotational Energy [eV] -->
     <g transform="translate(90.497922 170.593728)scale(0.1 -0.1)">
      <defs>
       <path d="M 2841 2188 
Q 3044 2119 3236 1894 
Q 3428 1669 3622 1275 
L 4263 0 
L 3584 0 
L 2988 1197 
Q 2756 1666 2539 1819 
Q 2322 1972 1947 1972 
L 1259 1972 
L 1259 0 
L 628 0 
L 628 4666 
L 2053 4666 
Q 2853 4666 3247 4331 
Q 3641 3997 3641 3322 
Q 3641 2881 3436 2590 
Q 3231 2300 2841 2188 
z
M 1259 4147 
L 1259 2491 
L 2053 2491 
Q 2509 2491 2742 2702 
Q 2975 2913 2975 3322 
Q 2975 3731 2742 3939 
Q 2509 4147 2053 4147 
L 1259 4147 
z
" id="DejaVuSans-52" transform="scale(0.015625)"/>
       <path d="M 1959 3097 
Q 1497 3097 1228 2736 
Q 959 2375 959 1747 
Q 959 1119 1226 758 
Q 1494 397 1959 397 
Q 2419 397 2687 759 
Q 2956 1122 2956 1747 
Q 2956 2369 2687 2733 
Q 2419 3097 1959 3097 
z
M 1959 3584 
Q 2709 3584 3137 3096 
Q 3566 2609 3566 1747 
Q 3566 888 3137 398 
Q 2709 -91 1959 -91 
Q 1206 -91 779 398 
Q 353 888 353 1747 
Q 353 2609 779 3096 
Q 1206 3584 1959 3584 
z
" id="DejaVuSans-6f" transform="scale(0.015625)"/>
       <path d="M 1172 4494 
L 1172 3500 
L 2356 3500 
L 2356 3053 
L 1172 3053 
L 1172 1153 
Q 1172 725 1289 603 
Q 1406 481 1766 481 
L 2356 481 
L 2356 0 
L 1766 0 
Q 1100 0 847 248 
Q 594 497 594 1153 
L 594 3053 
L 172 3053 
L 172 3500 
L 594 3500 
L 594 4494 
L 1172 4494 
z
" id="DejaVuSans-74" transform="scale(0.015625)"/>
       <path d="M 2194 1759 
Q 1497 1759 1228 1600 
Q 959 1441 959 1056 
Q 959 750 1161 570 
Q 1363 391 1709 391 
Q 2188 391 2477 730 
Q 2766 1069 2766 1631 
L 2766 1759 
L 2194 1759 
z
M 3341 1997 
L 3341 0 
L 2766 0 
L 2766 531 
Q 2569 213 2275 61 
Q 1981 -91 1556 -91 
Q 1019 -91 701 211 
Q 384 513 384 1019 
Q 384 1609 779 1909 
Q 1175 2209 1959 2209 
L 2766 2209 
L 2766 2266 
Q 2766 2663 2505 2880 
Q 2244 3097 1772 3097 
Q 1472 3097 1187 3025 
Q 903 2953 641 2809 
L 641 3341 
Q 956 3463 1253 3523 
Q 1550 3584 1831 3584 
Q 2591 3584 2966 3190 
Q 3341 2797 3341 1997 
z
" id="DejaVuSans-61" transform="scale(0.015625)"/>
       <path d="M 603 3500 
L 1178 3500 
L 1178 0 
L 603 0 
L 603 3500 
z
M 603 4863 
L 1178 4863 
L 1178 4134 
L 603 4134 
L 603 4863 
z
" id="DejaVuSans-69" transform="scale(0.015625)"/>
       <path d="M 3513 2113 
L 3513 0 
L 2938 0 
L 2938 2094 
Q 2938 2591 2744 2837 
Q 2550 3084 2163 3084 
Q 1697 3084 1428 2787 
Q 1159 2491 1159 1978 
L 1159 0 
L 581 0 
L 581 3500 
L 1159 3500 
L 1159 2956 
Q 1366 3272 1645 3428 
Q 1925 3584 2291 3584 
Q 2894 3584 3203 3211 
Q 3513 2838 3513 2113 
z
" id="DejaVuSans-6e" transform="scale(0.015625)"/>
       <path d="M 603 4863 
L 1178 4863 
L 1178 0 
L 603 0 
L 603 4863 
z
" id="DejaVuSans-6c" transform="scale(0.015625)"/>
       <path id="DejaVuSans-20" transform="scale(0.015625)"/>
       <path d="M 628 4666 
L 3578 4666 
L 3578 4134 
L 1259 4134 
L 1259 2753 
L 3481 2753 
L 3481 2222 
L 1259 2222 
L 1259 531 
L 3634 531 
L 3634 0 
L 628 0 
L 628 4666 
z
" id="DejaVuSans-45" transform="scale(0.015625)"/>
       <path d="M 3597 1894 
L 3597 1613 
L 953 1613 
Q 991 1019 1311 708 
Q 1631 397 2203 397 
Q 2534 397 2845 478 
Q 3156 559 3463 722 
L 3463 178 
Q 3153 47 2828 -22 
Q 2503 -91 2169 -91 
Q 1331 -91 842 396 
Q 353 884 353 1716 
Q 353 2575 817 3079 
Q 1281 3584 2069 3584 
Q 2775 3584 3186 3129 
Q 3597 2675 3597 1894 
z
M 3022 2063 
Q 3016 2534 2758 2815 
Q 2500 3097 2075 3097 
Q 1594 3097 1305 2825 
Q 1016 2553 972 2059 
L 3022 2063 
z
" id="DejaVuSans-65" transform="scale(0.015625)"/>
       <path d="M 2631 2963 
Q 2534 3019 2420 3045 
Q 2306 3072 2169 3072 
Q 1681 3072 1420 2755 
Q 1159 2438 1159 1844 
L 1159 0 
L 581 0 
L 581 3500 
L 1159 3500 
L 1159 2956 
Q 1341 3275 1631 3429 
Q 1922 3584 2338 3584 
Q 2397 3584 2469 3576 
Q 2541 3569 2628 3553 
L 2631 2963 
z
" id="DejaVuSans-72" transform="scale(0.015625)"/>
       <path d="M 2906 1791 
Q 2906 2416 2648 2759 
Q 2391 3103 1925 3103 
Q 1463 3103 1205 2759 
Q 947 2416 947 1791 
Q 947 1169 1205 825 
Q 1463 481 1925 481 
Q 2391 481 2648 825 
Q 2906 1169 2906 1791 
z
M 3481 434 
Q 3481 -459 3084 -895 
Q 2688 -1331 1869 -1331 
Q 1566 -1331 1297 -1286 
Q 1028 -1241 775 -1147 
L 775 -588 
Q 1028 -725 1275 -790 
Q 1522 -856 1778 -856 
Q 2344 -856 2625 -561 
Q 2906 -266 2906 331 
L 2906 616 
Q 2728 306 2450 153 
Q 2172 0 1784 0 
Q 1141 0 747 490 
Q 353 981 353 1791 
Q 353 2603 747 3093 
Q 1141 3584 1784 3584 
Q 2172 3584 2450 3431 
Q 2728 3278 2906 2969 
L 2906 3500 
L 3481 3500 
L 3481 434 
z
" id="DejaVuSans-67" transform="scale(0.015625)"/>
       <path d="M 2059 -325 
Q 1816 -950 1584 -1140 
Q 1353 -1331 966 -1331 
L 506 -1331 
L 506 -850 
L 844 -850 
Q 1081 -850 1212 -737 
Q 1344 -625 1503 -206 
L 1606 56 
L 191 3500 
L 800 3500 
L 1894 763 
L 2988 3500 
L 3597 3500 
L 2059 -325 
z
" id="DejaVuSans-79" transform="scale(0.015625)"/>
       <path d="M 550 4863 
L 1875 4863 
L 1875 4416 
L 1125 4416 
L 1125 -397 
L 1875 -397 
L 1875 -844 
L 550 -844 
L 550 4863 
z
" id="DejaVuSans-5b" transform="scale(0.015625)"/>
       <path d="M 1831 0 
L 50 4666 
L 709 4666 
L 2188 738 
L 3669 4666 
L 4325 4666 
L 2547 0 
L 1831 0 
z
" id="DejaVuSans-56" transform="scale(0.015625)"/>
       <path d="M 1947 4863 
L 1947 -844 
L 622 -844 
L 622 -397 
L 1369 -397 
L 1369 4416 
L 622 4416 
L 622 4863 
L 1947 4863 
z
" id="DejaVuSans-5d" transform="scale(0.015625)"/>
      </defs>
      <use xlink:href="#DejaVuSans-52"/>
      <use x="64.982422" xlink:href="#DejaVuSans-6f"/>
      <use x="126.164062" xlink:href="#DejaVuSans-74"/>
      <use x="165.373047" xlink:href="#DejaVuSans-61"/>
      <use x="226.652344" xlink:href="#DejaVuSans-74"/>
      <use x="265.861328" xlink:href="#DejaVuSans-69"/>
      <use x="293.644531" xlink:href="#DejaVuSans-6f"/>
      <use x="354.826172" xlink:href="#DejaVuSans-6e"/>
      <use x="418.205078" xlink:href="#DejaVuSans-61"/>
      <use x="479.484375" xlink:href="#DejaVuSans-6c"/>
      <use x="507.267578" xlink:href="#DejaVuSans-20"/>
      <use x="539.054688" xlink:href="#DejaVuSans-45"/>
      <use x="602.238281" xlink:href="#DejaVuSans-6e"/>
      <use x="665.617188" xlink:href="#DejaVuSans-65"/>
      <use x="727.140625" xlink:href="#DejaVuSans-72"/>
      <use x="766.503906" xlink:href="#DejaVuSans-67"/>
      <use x="829.980469" xlink:href="#DejaVuSans-79"/>
      <use x="889.160156" xlink:href="#DejaVuSans-20"/>
      <use x="920.947266" xlink:href="#DejaVuSans-5b"/>
      <use x="959.960938" xlink:href="#DejaVuSans-65"/>
      <use x="1021.484375" xlink:href="#DejaVuSans-56"/>
      <use x="1089.892578" xlink:href="#DejaVuSans-5d"/>
     </g>
    </g>
   </g>
   <g id="matplotlib.axis_2">
    <g id="ytick_1">
     <g id="line2d_6">
      <defs>
       <path d="M 0 0 
L -5 0 
" id="m203601785d" style="stroke:#000000;stroke-width:0.8;"/>
      </defs>
      <g>
       <use style="stroke:#000000;stroke-width:0.8;" x="64.65" xlink:href="#m203601785d" y="132.941331"/>
      </g>
     </g>
     <g id="text_7">
      <!-- $\mathdefault{10^{-2}}$ -->
      <g transform="translate(32.65 136.74055)scale(0.1 -0.1)">
       <defs>
        <path d="M 678 2272 
L 4684 2272 
L 4684 1741 
L 678 1741 
L 678 2272 
z
" id="DejaVuSans-2212" transform="scale(0.015625)"/>
       </defs>
       <use transform="translate(0 0.765625)" xlink:href="#DejaVuSans-31"/>
       <use transform="translate(63.623047 0.765625)" xlink:href="#DejaVuSans-30"/>
       <use transform="translate(128.203125 39.046875)scale(0.7)" xlink:href="#DejaVuSans-2212"/>
       <use transform="translate(186.855469 39.046875)scale(0.7)" xlink:href="#DejaVuSans-32"/>
      </g>
     </g>
    </g>
    <g id="ytick_2">
     <g id="line2d_7">
      <g>
       <use style="stroke:#000000;stroke-width:0.8;" x="64.65" xlink:href="#m203601785d" y="73.696548"/>
      </g>
     </g>
     <g id="text_8">
      <!-- $\mathdefault{10^{-1}}$ -->
      <g transform="translate(32.65 77.495766)scale(0.1 -0.1)">
       <use transform="translate(0 0.684375)" xlink:href="#DejaVuSans-31"/>
       <use transform="translate(63.623047 0.684375)" xlink:href="#DejaVuSans-30"/>
       <use transform="translate(128.203125 38.965625)scale(0.7)" xlink:href="#DejaVuSans-2212"/>
       <use transform="translate(186.855469 38.965625)scale(0.7)" xlink:href="#DejaVuSans-31"/>
      </g>
     </g>
    </g>
    <g id="ytick_3">
     <g id="line2d_8">
      <g>
       <use style="stroke:#000000;stroke-width:0.8;" x="64.65" xlink:href="#m203601785d" y="14.451764"/>
      </g>
     </g>
     <g id="text_9">
      <!-- $\mathdefault{10^{0}}$ -->
      <g transform="translate(38.55 18.250983)scale(0.1 -0.1)">
       <use transform="translate(0 0.765625)" xlink:href="#DejaVuSans-31"/>
       <use transform="translate(63.623047 0.765625)" xlink:href="#DejaVuSans-30"/>
       <use transform="translate(128.203125 39.046875)scale(0.7)" xlink:href="#DejaVuSans-30"/>
      </g>
     </g>
    </g>
    <g id="ytick_4">
     <g id="line2d_9">
      <defs>
       <path d="M 0 0 
L -2 0 
" id="m9de977b21e" style="stroke:#000000;stroke-width:0.6;"/>
      </defs>
      <g>
       <use style="stroke:#000000;stroke-width:0.6;" x="64.65" xlink:href="#m9de977b21e" y="138.682744"/>
      </g>
     </g>
    </g>
    <g id="ytick_5">
     <g id="line2d_10">
      <g>
       <use style="stroke:#000000;stroke-width:0.6;" x="64.65" xlink:href="#m9de977b21e" y="135.652224"/>
      </g>
     </g>
    </g>
    <g id="ytick_6">
     <g id="line2d_11">
      <g>
       <use style="stroke:#000000;stroke-width:0.6;" x="64.65" xlink:href="#m9de977b21e" y="115.106874"/>
      </g>
     </g>
    </g>
    <g id="ytick_7">
     <g id="line2d_12">
      <g>
       <use style="stroke:#000000;stroke-width:0.6;" x="64.65" xlink:href="#m9de977b21e" y="104.674386"/>
      </g>
     </g>
    </g>
    <g id="ytick_8">
     <g id="line2d_13">
      <g>
       <use style="stroke:#000000;stroke-width:0.6;" x="64.65" xlink:href="#m9de977b21e" y="97.272417"/>
      </g>
     </g>
    </g>
    <g id="ytick_9">
     <g id="line2d_14">
      <g>
       <use style="stroke:#000000;stroke-width:0.6;" x="64.65" xlink:href="#m9de977b21e" y="91.531004"/>
      </g>
     </g>
    </g>
    <g id="ytick_10">
     <g id="line2d_15">
      <g>
       <use style="stroke:#000000;stroke-width:0.6;" x="64.65" xlink:href="#m9de977b21e" y="86.839929"/>
      </g>
     </g>
    </g>
    <g id="ytick_11">
     <g id="line2d_16">
      <g>
       <use style="stroke:#000000;stroke-width:0.6;" x="64.65" xlink:href="#m9de977b21e" y="82.873681"/>
      </g>
     </g>
    </g>
    <g id="ytick_12">
     <g id="line2d_17">
      <g>
       <use style="stroke:#000000;stroke-width:0.6;" x="64.65" xlink:href="#m9de977b21e" y="79.43796"/>
      </g>
     </g>
    </g>
    <g id="ytick_13">
     <g id="line2d_18">
      <g>
       <use style="stroke:#000000;stroke-width:0.6;" x="64.65" xlink:href="#m9de977b21e" y="76.40744"/>
      </g>
     </g>
    </g>
    <g id="ytick_14">
     <g id="line2d_19">
      <g>
       <use style="stroke:#000000;stroke-width:0.6;" x="64.65" xlink:href="#m9de977b21e" y="55.862091"/>
      </g>
     </g>
    </g>
    <g id="ytick_15">
     <g id="line2d_20">
      <g>
       <use style="stroke:#000000;stroke-width:0.6;" x="64.65" xlink:href="#m9de977b21e" y="45.429602"/>
      </g>
     </g>
    </g>
    <g id="ytick_16">
     <g id="line2d_21">
      <g>
       <use style="stroke:#000000;stroke-width:0.6;" x="64.65" xlink:href="#m9de977b21e" y="38.027634"/>
      </g>
     </g>
    </g>
    <g id="ytick_17">
     <g id="line2d_22">
      <g>
       <use style="stroke:#000000;stroke-width:0.6;" x="64.65" xlink:href="#m9de977b21e" y="32.286221"/>
      </g>
     </g>
    </g>
    <g id="ytick_18">
     <g id="line2d_23">
      <g>
       <use style="stroke:#000000;stroke-width:0.6;" x="64.65" xlink:href="#m9de977b21e" y="27.595145"/>
      </g>
     </g>
    </g>
    <g id="ytick_19">
     <g id="line2d_24">
      <g>
       <use style="stroke:#000000;stroke-width:0.6;" x="64.65" xlink:href="#m9de977b21e" y="23.628897"/>
      </g>
     </g>
    </g>
    <g id="ytick_20">
     <g id="line2d_25">
      <g>
       <use style="stroke:#000000;stroke-width:0.6;" x="64.65" xlink:href="#m9de977b21e" y="20.193177"/>
      </g>
     </g>
    </g>
    <g id="ytick_21">
     <g id="line2d_26">
      <g>
       <use style="stroke:#000000;stroke-width:0.6;" x="64.65" xlink:href="#m9de977b21e" y="17.162657"/>
      </g>
     </g>
    </g>
    <g id="text_10">
     <!-- $\mathdefault{\mathrm{\frac{n_{XvN}}{(2N+1)g_{as}^{N}}}}}$ [a.u.] -->
     <g transform="translate(19.55 119.248583)rotate(-90)scale(0.13 -0.13)">
      <defs>
       <path d="M 403 4666 
L 1081 4666 
L 2241 2931 
L 3406 4666 
L 4084 4666 
L 2584 2425 
L 4184 0 
L 3506 0 
L 2194 1984 
L 872 0 
L 191 0 
L 1856 2491 
L 403 4666 
z
" id="DejaVuSans-58" transform="scale(0.015625)"/>
       <path d="M 191 3500 
L 800 3500 
L 1894 563 
L 2988 3500 
L 3597 3500 
L 2284 0 
L 1503 0 
L 191 3500 
z
" id="DejaVuSans-76" transform="scale(0.015625)"/>
       <path d="M 628 4666 
L 1478 4666 
L 3547 763 
L 3547 4666 
L 4159 4666 
L 4159 0 
L 3309 0 
L 1241 3903 
L 1241 0 
L 628 0 
L 628 4666 
z
" id="DejaVuSans-4e" transform="scale(0.015625)"/>
       <path d="M 1984 4856 
Q 1566 4138 1362 3434 
Q 1159 2731 1159 2009 
Q 1159 1288 1364 580 
Q 1569 -128 1984 -844 
L 1484 -844 
Q 1016 -109 783 600 
Q 550 1309 550 2009 
Q 550 2706 781 3412 
Q 1013 4119 1484 4856 
L 1984 4856 
z
" id="DejaVuSans-28" transform="scale(0.015625)"/>
       <path d="M 2944 4013 
L 2944 2272 
L 4684 2272 
L 4684 1741 
L 2944 1741 
L 2944 0 
L 2419 0 
L 2419 1741 
L 678 1741 
L 678 2272 
L 2419 2272 
L 2419 4013 
L 2944 4013 
z
" id="DejaVuSans-2b" transform="scale(0.015625)"/>
       <path d="M 513 4856 
L 1013 4856 
Q 1481 4119 1714 3412 
Q 1947 2706 1947 2009 
Q 1947 1309 1714 600 
Q 1481 -109 1013 -844 
L 513 -844 
Q 928 -128 1133 580 
Q 1338 1288 1338 2009 
Q 1338 2731 1133 3434 
Q 928 4138 513 4856 
z
" id="DejaVuSans-29" transform="scale(0.015625)"/>
       <path d="M 2834 3397 
L 2834 2853 
Q 2591 2978 2328 3040 
Q 2066 3103 1784 3103 
Q 1356 3103 1142 2972 
Q 928 2841 928 2578 
Q 928 2378 1081 2264 
Q 1234 2150 1697 2047 
L 1894 2003 
Q 2506 1872 2764 1633 
Q 3022 1394 3022 966 
Q 3022 478 2636 193 
Q 2250 -91 1575 -91 
Q 1294 -91 989 -36 
Q 684 19 347 128 
L 347 722 
Q 666 556 975 473 
Q 1284 391 1588 391 
Q 1994 391 2212 530 
Q 2431 669 2431 922 
Q 2431 1156 2273 1281 
Q 2116 1406 1581 1522 
L 1381 1569 
Q 847 1681 609 1914 
Q 372 2147 372 2553 
Q 372 3047 722 3315 
Q 1072 3584 1716 3584 
Q 2034 3584 2315 3537 
Q 2597 3491 2834 3397 
z
" id="DejaVuSans-73" transform="scale(0.015625)"/>
       <path d="M 544 1381 
L 544 3500 
L 1119 3500 
L 1119 1403 
Q 1119 906 1312 657 
Q 1506 409 1894 409 
Q 2359 409 2629 706 
Q 2900 1003 2900 1516 
L 2900 3500 
L 3475 3500 
L 3475 0 
L 2900 0 
L 2900 538 
Q 2691 219 2414 64 
Q 2138 -91 1772 -91 
Q 1169 -91 856 284 
Q 544 659 544 1381 
z
M 1991 3584 
L 1991 3584 
z
" id="DejaVuSans-75" transform="scale(0.015625)"/>
      </defs>
      <use transform="translate(119 55.8)scale(0.7)" xlink:href="#DejaVuSans-6e"/>
      <use transform="translate(164.035156 44.315625)scale(0.49)" xlink:href="#DejaVuSans-58"/>
      <use transform="translate(197.603027 44.315625)scale(0.49)" xlink:href="#DejaVuSans-76"/>
      <use transform="translate(226.601074 44.315625)scale(0.49)" xlink:href="#DejaVuSans-4e"/>
      <use transform="translate(0 -49.455312)scale(0.7)" xlink:href="#DejaVuSans-28"/>
      <use transform="translate(27.30957 -49.455312)scale(0.7)" xlink:href="#DejaVuSans-32"/>
      <use transform="translate(71.845703 -49.455312)scale(0.7)" xlink:href="#DejaVuSans-4e"/>
      <use transform="translate(137.84668 -49.455312)scale(0.7)" xlink:href="#DejaVuSans-2b"/>
      <use transform="translate(210.136719 -49.455312)scale(0.7)" xlink:href="#DejaVuSans-31"/>
      <use transform="translate(254.672852 -49.455312)scale(0.7)" xlink:href="#DejaVuSans-29"/>
      <use transform="translate(281.982422 -49.455312)scale(0.7)" xlink:href="#DejaVuSans-67"/>
      <use transform="translate(327.085938 -22.658437)scale(0.49)" xlink:href="#DejaVuSans-4e"/>
      <use transform="translate(327.085938 -68.595937)scale(0.49)" xlink:href="#DejaVuSans-61"/>
      <use transform="translate(357.112793 -68.595937)scale(0.49)" xlink:href="#DejaVuSans-73"/>
      <use transform="translate(397.055664 0.51875)" xlink:href="#DejaVuSans-20"/>
      <use transform="translate(428.842773 0.51875)" xlink:href="#DejaVuSans-5b"/>
      <use transform="translate(467.856445 0.51875)" xlink:href="#DejaVuSans-61"/>
      <use transform="translate(529.135742 0.51875)" xlink:href="#DejaVuSans-2e"/>
      <use transform="translate(560.922852 0.51875)" xlink:href="#DejaVuSans-75"/>
      <use transform="translate(624.301758 0.51875)" xlink:href="#DejaVuSans-2e"/>
      <use transform="translate(656.088867 0.51875)" xlink:href="#DejaVuSans-5d"/>
      <path d="M 0 19.315625 
L 0 25.565625 
L 384.555664 25.565625 
L 384.555664 19.315625 
L 0 19.315625 
z
"/>
     </g>
    </g>
   </g>
   <g id="line2d_27">
    <path clip-path="url(#p788b7b1550)" d="M 72.487525 14.451764 
L 74.789657 18.038297 
L 79.371952 24.517324 
L 86.190472 32.603495 
L 95.179311 40.884479 
L 106.250594 48.584683 
L 119.294477 55.830053 
L 134.179146 63.130209 
L 150.750819 70.863304 
L 168.833747 79.171046 
L 188.230211 88.045785 
L 208.72052 97.412176 
" style="fill:none;stroke:#000000;stroke-dasharray:5.12,1.28,0.8,1.28;stroke-dashoffset:0;stroke-width:0.8;"/>
    <defs>
     <path d="M 0 2 
C 0.530406 2 1.03916 1.789267 1.414214 1.414214 
C 1.789267 1.03916 2 0.530406 2 0 
C 2 -0.530406 1.789267 -1.03916 1.414214 -1.414214 
C 1.03916 -1.789267 0.530406 -2 0 -2 
C -0.530406 -2 -1.03916 -1.789267 -1.414214 -1.414214 
C -1.789267 -1.03916 -2 -0.530406 -2 0 
C -2 0.530406 -1.789267 1.03916 -1.414214 1.414214 
C -1.03916 1.789267 -0.530406 2 0 2 
z
" id="mb946a3564d" style="stroke:#000000;stroke-width:0.5;"/>
    </defs>
    <g clip-path="url(#p788b7b1550)">
     <use style="stroke:#000000;stroke-width:0.5;" x="72.487525" xlink:href="#mb946a3564d" y="14.451764"/>
     <use style="stroke:#000000;stroke-width:0.5;" x="74.789657" xlink:href="#mb946a3564d" y="18.038297"/>
     <use style="stroke:#000000;stroke-width:0.5;" x="79.371952" xlink:href="#mb946a3564d" y="24.517324"/>
     <use style="stroke:#000000;stroke-width:0.5;" x="86.190472" xlink:href="#mb946a3564d" y="32.603495"/>
     <use style="stroke:#000000;stroke-width:0.5;" x="95.179311" xlink:href="#mb946a3564d" y="40.884479"/>
     <use style="stroke:#000000;stroke-width:0.5;" x="106.250594" xlink:href="#mb946a3564d" y="48.584683"/>
     <use style="stroke:#000000;stroke-width:0.5;" x="119.294477" xlink:href="#mb946a3564d" y="55.830053"/>
     <use style="stroke:#000000;stroke-width:0.5;" x="134.179146" xlink:href="#mb946a3564d" y="63.130209"/>
     <use style="stroke:#000000;stroke-width:0.5;" x="150.750819" xlink:href="#mb946a3564d" y="70.863304"/>
     <use style="stroke:#000000;stroke-width:0.5;" x="168.833747" xlink:href="#mb946a3564d" y="79.171046"/>
     <use style="stroke:#000000;stroke-width:0.5;" x="188.230211" xlink:href="#mb946a3564d" y="88.045785"/>
     <use style="stroke:#000000;stroke-width:0.5;" x="208.72052" xlink:href="#mb946a3564d" y="97.412176"/>
    </g>
   </g>
   <g id="line2d_28">
    <path clip-path="url(#p788b7b1550)" d="M 72.487525 37.087659 
L 74.67064 39.33029 
L 79.0149 43.337344 
L 85.476369 48.40078 
L 93.989139 53.967093 
L 104.465336 59.86428 
L 116.795115 66.198115 
L 130.846664 73.118138 
L 146.4662 80.692433 
L 163.477973 88.903118 
L 181.684264 97.679478 
L 200.865384 106.923105 
" style="fill:none;stroke:#000000;stroke-dasharray:5.12,1.28,0.8,1.28;stroke-dashoffset:0;stroke-width:0.8;"/>
    <defs>
     <path d="M 0 2 
C 0.530406 2 1.03916 1.789267 1.414214 1.414214 
C 1.789267 1.03916 2 0.530406 2 0 
C 2 -0.530406 1.789267 -1.03916 1.414214 -1.414214 
C 1.03916 -1.789267 0.530406 -2 0 -2 
C -0.530406 -2 -1.03916 -1.789267 -1.414214 -1.414214 
C -1.789267 -1.03916 -2 -0.530406 -2 0 
C -2 0.530406 -1.789267 1.03916 -1.414214 1.414214 
C -1.03916 1.789267 -0.530406 2 0 2 
z
" id="m3b81cda4ea" style="stroke:#000000;"/>
    </defs>
    <g clip-path="url(#p788b7b1550)">
     <use style="fill:#ffffff;stroke:#000000;" x="72.487525" xlink:href="#m3b81cda4ea" y="37.087659"/>
     <use style="fill:#ffffff;stroke:#000000;" x="74.67064" xlink:href="#m3b81cda4ea" y="39.33029"/>
     <use style="fill:#ffffff;stroke:#000000;" x="79.0149" xlink:href="#m3b81cda4ea" y="43.337344"/>
     <use style="fill:#ffffff;stroke:#000000;" x="85.476369" xlink:href="#m3b81cda4ea" y="48.40078"/>
     <use style="fill:#ffffff;stroke:#000000;" x="93.989139" xlink:href="#m3b81cda4ea" y="53.967093"/>
     <use style="fill:#ffffff;stroke:#000000;" x="104.465336" xlink:href="#m3b81cda4ea" y="59.86428"/>
     <use style="fill:#ffffff;stroke:#000000;" x="116.795115" xlink:href="#m3b81cda4ea" y="66.198115"/>
     <use style="fill:#ffffff;stroke:#000000;" x="130.846664" xlink:href="#m3b81cda4ea" y="73.118138"/>
     <use style="fill:#ffffff;stroke:#000000;" x="146.4662" xlink:href="#m3b81cda4ea" y="80.692433"/>
     <use style="fill:#ffffff;stroke:#000000;" x="163.477973" xlink:href="#m3b81cda4ea" y="88.903118"/>
     <use style="fill:#ffffff;stroke:#000000;" x="181.684264" xlink:href="#m3b81cda4ea" y="97.679478"/>
     <use style="fill:#ffffff;stroke:#000000;" x="200.865384" xlink:href="#m3b81cda4ea" y="106.923105"/>
    </g>
   </g>
   <g id="line2d_29">
    <path clip-path="url(#p788b7b1550)" d="M 72.487525 58.402702 
L 74.551623 60.645125 
L 78.657849 64.650757 
L 84.762266 69.710383 
L 92.798967 75.269439 
L 102.680078 81.154049 
L 114.295754 87.466681 
L 127.514182 94.352645 
L 142.18158 101.875458 
L 158.122198 110.012363 
L 175.138317 118.68727 
L 193.010248 127.795761 
" style="fill:none;stroke:#000000;stroke-dasharray:5.12,1.28,0.8,1.28;stroke-dashoffset:0;stroke-width:0.8;"/>
    <defs>
     <path d="M -2 2 
L 2 -2 
M -2 -2 
L 2 2 
" id="m796a80ef39" style="stroke:#000000;"/>
    </defs>
    <g clip-path="url(#p788b7b1550)">
     <use style="stroke:#000000;" x="72.487525" xlink:href="#m796a80ef39" y="58.402702"/>
     <use style="stroke:#000000;" x="74.551623" xlink:href="#m796a80ef39" y="60.645125"/>
     <use style="stroke:#000000;" x="78.657849" xlink:href="#m796a80ef39" y="64.650757"/>
     <use style="stroke:#000000;" x="84.762266" xlink:href="#m796a80ef39" y="69.710383"/>
     <use style="stroke:#000000;" x="92.798967" xlink:href="#m796a80ef39" y="75.269439"/>
     <use style="stroke:#000000;" x="102.680078" xlink:href="#m796a80ef39" y="81.154049"/>
     <use style="stroke:#000000;" x="114.295754" xlink:href="#m796a80ef39" y="87.466681"/>
     <use style="stroke:#000000;" x="127.514182" xlink:href="#m796a80ef39" y="94.352645"/>
     <use style="stroke:#000000;" x="142.18158" xlink:href="#m796a80ef39" y="101.875458"/>
     <use style="stroke:#000000;" x="158.122198" xlink:href="#m796a80ef39" y="110.012363"/>
     <use style="stroke:#000000;" x="175.138317" xlink:href="#m796a80ef39" y="118.68727"/>
     <use style="stroke:#000000;" x="193.010248" xlink:href="#m796a80ef39" y="127.795761"/>
    </g>
   </g>
   <g id="patch_3">
    <path d="M 64.65 140.817165 
L 64.65 7.2 
" style="fill:none;stroke:#000000;stroke-linecap:square;stroke-linejoin:miter;stroke-width:0.8;"/>
   </g>
   <g id="patch_4">
    <path d="M 229.238031 140.817165 
L 229.238031 7.2 
" style="fill:none;stroke:#000000;stroke-linecap:square;stroke-linejoin:miter;stroke-width:0.8;"/>
   </g>
   <g id="patch_5">
    <path d="M 64.65 140.817165 
L 229.238031 140.817165 
" style="fill:none;stroke:#000000;stroke-linecap:square;stroke-linejoin:miter;stroke-width:0.8;"/>
   </g>
   <g id="patch_6">
    <path d="M 64.65 7.2 
L 229.238031 7.2 
" style="fill:none;stroke:#000000;stroke-linecap:square;stroke-linejoin:miter;stroke-width:0.8;"/>
   </g>
   <g id="text_11">
    <!-- N=0 -->
    <g transform="translate(75.622535 15.771524)scale(0.09 -0.09)">
     <defs>
      <path d="M 678 2906 
L 4684 2906 
L 4684 2381 
L 678 2381 
L 678 2906 
z
M 678 1631 
L 4684 1631 
L 4684 1100 
L 678 1100 
L 678 1631 
z
" id="DejaVuSans-3d" transform="scale(0.015625)"/>
     </defs>
     <use xlink:href="#DejaVuSans-4e"/>
     <use x="74.804688" xlink:href="#DejaVuSans-3d"/>
     <use x="158.59375" xlink:href="#DejaVuSans-30"/>
    </g>
   </g>
   <g id="text_12">
    <!-- N=11 -->
    <g transform="translate(202.668498 87.903051)scale(0.09 -0.09)">
     <use xlink:href="#DejaVuSans-4e"/>
     <use x="74.804688" xlink:href="#DejaVuSans-3d"/>
     <use x="158.59375" xlink:href="#DejaVuSans-31"/>
     <use x="222.216797" xlink:href="#DejaVuSans-31"/>
    </g>
   </g>
   <g id="legend_1">
    <g id="patch_7">
     <path d="M 166.033344 73.9125 
L 222.238031 73.9125 
Q 224.238031 73.9125 224.238031 71.9125 
L 224.238031 14.2 
Q 224.238031 12.2 222.238031 12.2 
L 166.033344 12.2 
Q 164.033344 12.2 164.033344 14.2 
L 164.033344 71.9125 
Q 164.033344 73.9125 166.033344 73.9125 
z
" style="fill:#ffffff;opacity:0.8;stroke:#cccccc;stroke-linejoin:miter;"/>
    </g>
    <g id="line2d_30">
     <path d="M 168.033344 20.298438 
L 188.033344 20.298438 
" style="fill:none;stroke:#000000;stroke-dasharray:5.12,1.28,0.8,1.28;stroke-dashoffset:0;stroke-width:0.8;"/>
    </g>
    <g id="line2d_31">
     <g>
      <use style="stroke:#000000;stroke-width:0.5;" x="178.033344" xlink:href="#mb946a3564d" y="20.298438"/>
     </g>
    </g>
    <g id="text_13">
     <!-- v=0 -->
     <g transform="translate(196.033344 23.798438)scale(0.1 -0.1)">
      <use xlink:href="#DejaVuSans-76"/>
      <use x="59.179688" xlink:href="#DejaVuSans-3d"/>
      <use x="142.96875" xlink:href="#DejaVuSans-30"/>
     </g>
    </g>
    <g id="line2d_32">
     <path d="M 168.033344 34.976562 
L 188.033344 34.976562 
" style="fill:none;stroke:#000000;stroke-dasharray:5.12,1.28,0.8,1.28;stroke-dashoffset:0;stroke-width:0.8;"/>
    </g>
    <g id="line2d_33">
     <g>
      <use style="fill:#ffffff;stroke:#000000;" x="178.033344" xlink:href="#m3b81cda4ea" y="34.976562"/>
     </g>
    </g>
    <g id="text_14">
     <!-- v=1 -->
     <g transform="translate(196.033344 38.476562)scale(0.1 -0.1)">
      <use xlink:href="#DejaVuSans-76"/>
      <use x="59.179688" xlink:href="#DejaVuSans-3d"/>
      <use x="142.96875" xlink:href="#DejaVuSans-31"/>
     </g>
    </g>
    <g id="line2d_34">
     <path d="M 168.033344 49.654688 
L 188.033344 49.654688 
" style="fill:none;stroke:#000000;stroke-dasharray:5.12,1.28,0.8,1.28;stroke-dashoffset:0;stroke-width:0.8;"/>
    </g>
    <g id="line2d_35">
     <g>
      <use style="stroke:#000000;" x="178.033344" xlink:href="#m796a80ef39" y="49.654688"/>
     </g>
    </g>
    <g id="text_15">
     <!-- v=2 -->
     <g transform="translate(196.033344 53.154688)scale(0.1 -0.1)">
      <use xlink:href="#DejaVuSans-76"/>
      <use x="59.179688" xlink:href="#DejaVuSans-3d"/>
      <use x="142.96875" xlink:href="#DejaVuSans-32"/>
     </g>
    </g>
    <g id="patch_8">
     <path d="M 168.033344 67.832813 
L 188.033344 67.832813 
L 188.033344 60.832813 
L 168.033344 60.832813 
z
" style="fill:#808080;opacity:0.5;"/>
    </g>
    <g id="text_16">
     <!-- error -->
     <g transform="translate(196.033344 67.832813)scale(0.1 -0.1)">
      <use xlink:href="#DejaVuSans-65"/>
      <use x="61.523438" xlink:href="#DejaVuSans-72"/>
      <use x="100.886719" xlink:href="#DejaVuSans-72"/>
      <use x="139.75" xlink:href="#DejaVuSans-6f"/>
      <use x="200.931641" xlink:href="#DejaVuSans-72"/>
     </g>
    </g>
   </g>
  </g>
 </g>
 <defs>
  <clipPath id="p788b7b1550">
   <rect height="133.617165" width="164.588031" x="64.65" y="7.2"/>
  </clipPath>
 </defs>
</svg>
